<?xml version="1.0" encoding="UTF-8"?>
<!-- Generated by Pixelmator Pro 3.7.1 -->
<svg width="900" height="238" viewBox="0 0 900 238" xmlns="http://www.w3.org/2000/svg">
    <path id="the-mythology-of-you" fill="#dfefff" fill-rule="evenodd" stroke="none" d="M 684.538574 209.534302 C 682.223267 209.534302 680.433411 208.866425 679.168945 207.53067 C 677.904419 206.194916 677.272095 204.298172 677.272095 201.840393 C 677.272095 201.430756 677.307739 200.940979 677.379028 200.371063 C 677.450195 199.801147 677.557129 199.079834 677.699585 198.207153 L 680.317627 182.819321 L 685.17981 182.819321 L 682.668579 197.459137 C 682.543884 198.153717 682.45929 198.745895 682.414795 199.235672 C 682.370239 199.725449 682.348022 200.095001 682.348022 200.344345 C 682.348022 203.621399 683.737183 205.259903 686.515503 205.259903 C 687.619751 205.259903 688.688354 204.988312 689.721313 204.445099 C 690.754272 203.901886 691.653687 203.033661 692.419556 201.840393 L 691.805054 205.794205 C 690.914551 206.880615 689.881592 207.775558 688.706177 208.479065 C 687.53064 209.182556 686.141479 209.534302 684.538574 209.534302 Z M 691.377686 209 L 691.59137 205.36676 L 695.545166 182.819321 L 700.407349 182.819321 L 695.812378 209 Z M 604.286804 176.194 C 604.536133 174.804825 604.941284 173.562592 605.502319 172.46727 C 606.063354 171.371948 606.869263 170.508179 607.920044 169.875916 C 608.970825 169.243652 610.342163 168.927536 612.03418 168.927536 C 613.084961 168.927536 613.970947 169.021027 614.692261 169.208038 C 615.413574 169.39505 615.881104 169.533066 616.094849 169.622116 L 614.759094 173.6828 C 614.278198 173.486877 613.810669 173.357758 613.356567 173.295425 C 612.902405 173.233093 612.497192 173.201935 612.140991 173.201935 C 611.357361 173.201935 610.756287 173.397827 610.337769 173.789658 C 609.919189 174.181488 609.589722 174.844894 609.349304 175.779922 C 609.108887 176.714951 608.846191 177.992798 608.561218 179.613525 L 603.37854 209 L 598.516357 209 Z M 598.62323 186.559418 L 599.798706 182.819321 L 614.011108 182.819321 L 613.316467 186.559418 Z M 580.510498 209.534302 C 578.28418 209.534302 576.440918 209.048981 574.980469 208.078339 C 573.52002 207.107681 572.429199 205.785309 571.707886 204.11116 C 570.986572 202.437012 570.625977 200.558075 570.625977 198.474304 C 570.625977 196.319275 570.977661 194.271149 571.681152 192.329849 C 572.384644 190.38855 573.377563 188.665451 574.659912 187.160507 C 575.942261 185.655548 577.46051 184.466751 579.214844 183.594055 C 580.969116 182.721359 582.896973 182.285019 584.998596 182.285019 C 587.224854 182.285019 589.068176 182.774796 590.528564 183.754349 C 591.989014 184.733902 593.079834 186.065186 593.801147 187.74823 C 594.522461 189.43129 594.883179 191.314667 594.883179 193.398453 C 594.883179 195.53566 594.531372 197.570435 593.827881 199.502823 C 593.12439 201.435211 592.13147 203.158325 590.849182 204.67218 C 589.566895 206.186035 588.048584 207.374832 586.294312 208.238617 C 584.539978 209.102417 582.612061 209.534302 580.510498 209.534302 Z M 581.205078 205.259903 C 582.986084 205.259903 584.526611 204.743408 585.826782 203.710434 C 587.126892 202.67746 588.133179 201.29274 588.845581 199.556259 C 589.557983 197.819763 589.914185 195.891861 589.914185 193.772461 C 589.914185 191.368103 589.4422 189.56485 588.498291 188.362671 C 587.554321 187.160492 586.15625 186.559418 584.304016 186.559418 C 582.52301 186.559418 580.982422 187.075897 579.682312 188.108887 C 578.382202 189.141876 577.375916 190.526581 576.663513 192.263062 C 575.951111 193.999542 575.59491 195.92746 575.59491 198.04686 C 575.59491 200.415588 576.062439 202.20993 576.997437 203.429932 C 577.932495 204.649918 579.335022 205.259903 581.205078 205.259903 Z M 476.375488 209.534302 C 474.48761 209.534302 473.160797 209.080154 472.394958 208.171844 C 471.62912 207.263519 471.246216 206.186035 471.246216 204.939331 C 471.246216 204.547501 471.290741 204.035461 471.379791 203.403214 C 471.468842 202.77095 471.602417 201.965057 471.780518 200.985504 L 477.390656 168.927536 L 482.252808 168.927536 L 476.589203 201.46637 C 476.482361 202.071915 476.411133 202.526062 476.375488 202.828842 C 476.339874 203.131607 476.322083 203.37204 476.322083 203.55014 C 476.322083 204.422836 476.549133 204.997208 477.003296 205.273254 C 477.457458 205.549316 478.227722 205.687347 479.314148 205.687347 L 478.031799 209.534302 Z M 453.507446 209.534302 C 451.281189 209.534302 449.437897 209.048981 447.977478 208.078339 C 446.517029 207.107681 445.426208 205.785309 444.704895 204.11116 C 443.983582 202.437012 443.622925 200.558075 443.622925 198.474304 C 443.622925 196.319275 443.97467 194.271149 444.678162 192.329849 C 445.381653 190.38855 446.374573 188.665451 447.656891 187.160507 C 448.939209 185.655548 450.45752 184.466751 452.211792 183.594055 C 453.966064 182.721359 455.893982 182.285019 457.995605 182.285019 C 460.221863 182.285019 462.065155 182.774796 463.525574 183.754349 C 464.986023 184.733902 466.076843 186.065186 466.798157 187.74823 C 467.51947 189.43129 467.880127 191.314667 467.880127 193.398453 C 467.880127 195.53566 467.528381 197.570435 466.82489 199.502823 C 466.121399 201.435211 465.128479 203.158325 463.846161 204.67218 C 462.563843 206.186035 461.045532 207.374832 459.29126 208.238617 C 457.536987 209.102417 455.60907 209.534302 453.507446 209.534302 Z M 454.202057 205.259903 C 455.983063 205.259903 457.523621 204.743408 458.82373 203.710434 C 460.123901 202.67746 461.130127 201.29274 461.842529 199.556259 C 462.554932 197.819763 462.911133 195.891861 462.911133 193.772461 C 462.911133 191.368103 462.439178 189.56485 461.495239 188.362671 C 460.551331 187.160492 459.153259 186.559418 457.300995 186.559418 C 455.519989 186.559418 453.979431 187.075897 452.679321 188.108887 C 451.37915 189.141876 450.372925 190.526581 449.660522 192.263062 C 448.94812 193.999542 448.591919 195.92746 448.591919 198.04686 C 448.591919 200.415588 449.059418 202.20993 449.994446 203.429932 C 450.929474 204.649918 452.332001 205.259903 454.202057 205.259903 Z M 374.057129 221.930054 L 383.086792 205.820923 L 382.445618 210.068604 L 376.461456 182.819321 L 381.85791 182.819321 L 385.83844 204.511887 L 384.395813 204.298157 L 395.375671 182.819321 L 400.772095 182.819321 L 379.239807 221.930054 Z M 333.076355 209 L 337.671326 182.819321 L 341.51828 182.819321 L 341.51828 188.776764 L 337.938477 209 Z M 348.891602 209 C 349.443726 205.847626 349.897888 203.234024 350.254089 201.159149 C 350.610291 199.08429 350.895233 197.423523 351.108948 196.176819 C 351.322662 194.930115 351.47406 193.97728 351.56311 193.318298 C 351.652161 192.659332 351.710022 192.182922 351.736755 191.889053 C 351.763458 191.595184 351.776825 191.350311 351.776825 191.154388 C 351.776825 189.355576 351.407288 188.14006 350.668152 187.507797 C 349.929047 186.875549 348.927246 186.559418 347.66272 186.559418 C 346.273529 186.559418 345.017944 186.866638 343.895905 187.481079 C 342.773865 188.095535 341.821045 189.061707 341.037415 190.379669 L 341.09082 186.025116 C 342.569061 184.511261 343.895905 183.50946 345.07135 183.019684 C 346.246826 182.529907 347.484619 182.285019 348.784729 182.285019 C 349.888977 182.285019 350.95755 182.472015 351.99054 182.846039 C 353.023529 183.220047 353.918457 183.950256 354.675415 185.036667 C 355.432312 186.123077 355.935455 187.743774 356.184814 189.898788 L 356.986237 190.646805 L 353.753723 209 Z M 364.706879 209 C 365.276794 205.722946 365.748749 203.015854 366.122772 200.878647 C 366.496765 198.74144 366.790649 197.036148 367.004364 195.762726 C 367.218079 194.489304 367.373932 193.527588 367.471863 192.877502 C 367.569824 192.227448 367.632172 191.768829 367.658875 191.501678 C 367.685608 191.234528 367.698944 191.011917 367.698944 190.833817 C 367.698944 189.391205 367.365021 188.318161 366.697144 187.614655 C 366.029266 186.911163 364.97403 186.559418 363.531433 186.559418 C 361.857269 186.559418 360.534882 186.955688 359.56424 187.74823 C 358.593597 188.540787 357.872314 189.498062 357.40033 190.620087 C 356.928345 191.742126 356.603333 192.810715 356.425232 193.825897 L 354.875763 189.311066 C 355.445679 187.868439 356.198151 186.621765 357.133179 185.570953 C 358.068207 184.520172 359.194672 183.709824 360.512634 183.139893 C 361.830566 182.569977 363.353302 182.285019 365.080872 182.285019 C 367.57428 182.285019 369.462128 182.903915 370.744446 184.141708 C 372.026794 185.379517 372.667938 187.253998 372.667938 189.765213 C 372.667938 190.014557 372.654572 190.308411 372.627869 190.646805 C 372.601135 190.985199 372.534363 191.515045 372.42749 192.236359 C 372.320648 192.957657 372.155914 193.986176 371.933289 195.32193 C 371.710663 196.657684 371.407898 198.434204 371.024963 200.651566 C 370.642059 202.868927 370.156738 205.651703 369.569 209 Z M 303.102142 193.638885 C 303.850159 193.923843 304.575897 194.142014 305.279419 194.293396 C 305.98291 194.444794 306.824402 194.520477 307.803955 194.520477 C 309.941162 194.520477 311.601929 194.253326 312.786316 193.719025 C 313.970673 193.184723 314.798828 192.534668 315.270813 191.768829 C 315.742767 191.003006 315.97876 190.263901 315.97876 189.551498 C 315.97876 188.839096 315.805115 188.264725 315.457825 187.828369 C 315.110504 187.392029 314.643005 187.071457 314.055267 186.866638 C 313.467529 186.661819 312.826385 186.559418 312.131805 186.559418 C 310.938538 186.559418 309.803162 186.866638 308.725647 187.481079 C 307.648132 188.095535 306.673035 189.052811 305.800354 190.352936 C 304.927643 191.653076 304.197449 193.336105 303.609711 195.402069 L 303.583008 195.66922 C 303.387085 198.216064 303.565186 200.184052 304.11731 201.573242 C 304.669403 202.962418 305.493103 203.924149 306.58844 204.45845 C 307.683746 204.992752 308.925995 205.259903 310.315186 205.259903 C 311.365967 205.259903 312.545868 205.135239 313.854919 204.885895 C 315.16394 204.636551 316.388367 204.244736 317.528229 203.710434 L 317.314514 207.503967 C 316.299316 208.09169 315.092712 208.577011 313.694611 208.95993 C 312.296539 209.34285 310.742615 209.534302 309.032867 209.534302 C 306.610687 209.534302 304.611542 209.031174 303.035339 208.024902 C 301.459167 207.018631 300.283691 205.660645 299.508972 203.950867 C 298.734222 202.241104 298.346863 200.326538 298.346863 198.207153 C 298.346863 196.141174 298.685242 194.155396 299.36203 192.24971 C 300.038818 190.344025 301.00946 188.643188 302.273956 187.147156 C 303.538483 185.651093 305.043396 184.466751 306.788788 183.594055 C 308.53418 182.721359 310.475464 182.285019 312.612671 182.285019 C 315.159515 182.285019 317.096313 182.903915 318.423157 184.141708 C 319.750031 185.379517 320.413452 186.986847 320.413452 188.96376 C 320.413452 189.943329 320.217529 190.94957 319.825714 191.982559 C 319.433899 193.015533 318.774933 193.972824 317.848816 194.854416 C 316.922668 195.736023 315.675995 196.443954 314.108704 196.978256 C 312.541412 197.512558 310.582336 197.779709 308.231415 197.779709 C 307.180603 197.779709 306.143188 197.712921 305.11911 197.579346 C 304.095032 197.44577 303.280243 197.263214 302.674683 197.031693 Z M 630.939453 207.838577 L 623.040771 221.930054 L 628.223389 221.930054 L 649.755737 182.819321 L 644.359253 182.819321 L 634.412109 202.277969 L 634.822021 204.511887 L 633.379395 204.298157 L 634.412109 202.277969 L 630.841492 182.819321 L 625.445068 182.819321 L 630.939453 207.838577 Z M 630.939453 207.838577 L 632.070435 205.820923 L 631.429199 210.068604 L 630.939453 207.838577 Z M 653.469116 208.078339 C 654.929504 209.048981 656.772827 209.534302 658.999084 209.534302 C 661.100708 209.534302 663.028564 209.102417 664.782898 208.238617 C 666.53717 207.374832 668.05542 206.186035 669.337769 204.67218 C 670.620117 203.158325 671.613037 201.435211 672.316528 199.502823 C 673.02002 197.570435 673.371704 195.53566 673.371704 193.398453 C 673.371704 191.314667 673.011108 189.43129 672.289795 187.74823 C 671.568481 186.065186 670.477661 184.733902 669.017212 183.754349 C 667.556763 182.774796 665.713501 182.285019 663.487183 182.285019 C 661.38562 182.285019 659.457703 182.721359 657.703369 183.594055 C 655.949097 184.466751 654.430847 185.655548 653.148499 187.160507 C 651.866211 188.665451 650.873291 190.38855 650.1698 192.329849 C 649.466309 194.271149 649.114563 196.319275 649.114563 198.474304 C 649.114563 200.558075 649.47522 202.437012 650.196533 204.11116 C 650.917847 205.785309 652.008667 207.107681 653.469116 208.078339 Z M 664.315369 203.710434 C 663.015259 204.743408 661.474731 205.259903 659.693726 205.259903 C 657.823608 205.259903 656.421143 204.649918 655.486084 203.429932 C 654.551025 202.20993 654.083496 200.415588 654.083496 198.04686 C 654.083496 195.92746 654.439697 193.999542 655.1521 192.263062 C 655.864502 190.526581 656.870789 189.141876 658.170898 188.108887 C 659.471069 187.075897 661.011597 186.559418 662.792603 186.559418 C 664.644897 186.559418 666.042969 187.160492 666.986877 188.362671 C 667.930786 189.56485 668.402771 191.368103 668.402771 193.772461 C 668.402771 195.891861 668.04657 197.819763 667.334167 199.556259 C 666.621765 201.29274 665.615479 202.67746 664.315369 203.710434 Z M 517.302856 222.357483 C 514.827271 222.357483 512.863708 221.996841 511.412201 221.275528 C 509.960663 220.55423 508.923248 219.668182 508.299896 218.617401 C 507.676544 217.566605 507.364868 216.551437 507.364868 215.571884 C 507.364868 214.912918 507.525146 214.124832 507.845734 213.207611 C 508.166321 212.29039 508.749573 211.386536 509.595581 210.496033 C 510.335144 209.717545 511.350342 209.068375 512.641174 208.548508 C 512.375549 208.387207 512.130615 208.212662 511.906403 208.024902 C 511.194 207.428268 510.837799 206.622375 510.837799 205.607193 C 510.837799 205.072891 511.131683 204.342697 511.719421 203.416565 C 512.250244 202.580063 513.137085 201.867065 514.379944 201.277573 C 514.189209 201.127869 514.005859 200.96817 513.829895 200.798492 C 512.333862 199.355881 511.585846 197.209808 511.585846 194.360199 C 511.585846 192.329834 512.053345 190.393036 512.988403 188.549683 C 513.923401 186.706345 515.26355 185.201416 517.008972 184.034851 C 518.754395 182.868286 520.829224 182.285019 523.233521 182.285019 C 525.529907 182.285019 527.388184 182.92569 528.808594 184.207062 C 529.474854 183.824036 530.256897 183.49057 531.154541 183.206696 C 532.196411 182.877197 533.331787 182.712463 534.56073 182.712463 L 535.308716 182.712463 L 534.293579 185.918259 L 532.850952 185.918259 C 532.672852 185.918259 532.2677 185.958328 531.635437 186.038483 C 531.189941 186.09494 530.786438 186.180145 530.424927 186.294098 C 531.11615 187.607315 531.461792 189.173981 531.461792 190.99411 C 531.461792 192.418915 531.190186 193.839233 530.646973 195.255142 C 530.10376 196.671051 529.324585 197.96225 528.309448 199.128815 C 527.29425 200.29538 526.078735 201.225937 524.662842 201.920532 C 523.246948 202.615128 521.66626 202.962418 519.920898 202.962418 C 518.758972 202.962418 517.706665 202.814362 516.764038 202.518219 C 516.508606 202.7052 516.278625 202.906693 516.073975 203.122711 C 515.753357 203.46109 515.593079 203.835098 515.593079 204.244736 C 515.593079 204.850281 516.08728 205.31778 517.075806 205.647278 C 518.064209 205.976761 519.707153 206.381927 522.004639 206.862793 C 522.823975 207.040894 523.718872 207.267975 524.689575 207.544037 C 525.660156 207.820084 526.581848 208.194092 527.454529 208.666061 C 528.327271 209.138031 529.044067 209.752472 529.605103 210.509399 C 530.166138 211.266327 530.446594 212.205795 530.446594 213.32782 C 530.446594 214.806061 529.916748 216.235306 528.857056 217.615585 C 527.797363 218.995865 526.283569 220.131241 524.315552 221.021744 C 522.347534 221.912247 520.01001 222.357483 517.302856 222.357483 Z M 530.424927 186.294098 C 530.108337 185.692673 529.71936 185.144409 529.257813 184.649292 C 529.113281 184.494263 528.963562 184.346863 528.808594 184.207062 C 528.701538 184.2686 528.597534 184.331421 528.49646 184.395508 L 529.992432 186.45256 C 530.129211 186.394684 530.273376 186.341858 530.424927 186.294098 Z M 516.764038 202.518219 C 516.908752 202.412292 517.061646 202.311005 517.222656 202.214386 L 514.791626 201.092361 C 514.65033 201.152679 514.513062 201.214417 514.379944 201.277573 C 515.076172 201.824081 515.87085 202.237625 516.764038 202.518219 Z M 516.11908 209.797928 C 516.315186 209.72699 516.513855 209.665833 516.715088 209.614441 L 513.215454 208.332123 C 513.018311 208.401581 512.826904 208.473694 512.641174 208.548508 C 513.219666 208.899765 513.896362 209.188293 514.671387 209.414078 C 515.142395 209.5513 515.624939 209.679245 516.11908 209.797928 Z M 516.11908 209.797928 C 515.499512 210.022064 514.90564 210.343811 514.337463 210.763184 C 513.589478 211.315308 512.979492 211.951996 512.507507 212.673309 C 512.035522 213.394623 511.799561 214.129272 511.799561 214.877289 C 511.799561 215.910278 512.324951 216.79187 513.375732 217.522079 C 514.426514 218.252289 515.94928 218.617401 517.94397 218.617401 C 519.529053 218.617401 520.900452 218.39032 522.058105 217.936157 C 523.215759 217.48201 524.110718 216.907639 524.74292 216.213043 C 525.375244 215.518448 525.691345 214.806061 525.691345 214.075851 C 525.691345 213.220963 525.335144 212.557556 524.622742 212.085571 C 523.910339 211.613617 522.988647 211.244064 521.857788 210.976913 C 520.726807 210.709763 519.529053 210.464874 518.264587 210.242249 C 517.526672 210.112335 516.811523 209.964233 516.11908 209.797928 Z M 533.438721 221.930054 L 541.337402 207.838577 L 535.843018 182.819321 L 541.239502 182.819321 L 544.810059 202.277954 L 554.757202 182.819321 L 560.153687 182.819321 L 538.621399 221.930054 L 533.438721 221.930054 Z M 544.810059 202.277954 L 543.777344 204.298157 L 545.219971 204.511887 L 544.810059 202.277954 Z M 541.337402 207.838577 L 541.827148 210.068604 L 542.468384 205.820923 L 541.337402 207.838577 Z M 487.622498 208.078339 C 489.082916 209.048981 490.926239 209.534302 493.152496 209.534302 C 495.254089 209.534302 497.182007 209.102417 498.936279 208.238617 C 500.690582 207.374832 502.208862 206.186035 503.491211 204.67218 C 504.773499 203.158325 505.766418 201.435211 506.46991 199.502823 C 507.173401 197.570435 507.525146 195.53566 507.525146 193.398453 C 507.525146 191.314667 507.16449 189.43129 506.443207 187.74823 C 505.721893 186.065186 504.631042 184.733902 503.170593 183.754349 C 501.710205 182.774796 499.866882 182.285019 497.640625 182.285019 C 495.539032 182.285019 493.611115 182.721359 491.856812 183.594055 C 490.102539 184.466751 488.584229 185.655548 487.30191 187.160507 C 486.019592 188.665451 485.026672 190.38855 484.323181 192.329849 C 483.61969 194.271149 483.267944 196.319275 483.267944 198.474304 C 483.267944 200.558075 483.628601 202.437012 484.349915 204.11116 C 485.071228 205.785309 486.162048 207.107681 487.622498 208.078339 Z M 498.468781 203.710434 C 497.16864 204.743408 495.628113 205.259903 493.847107 205.259903 C 491.977051 205.259903 490.574524 204.649918 489.639465 203.429932 C 488.704468 202.20993 488.236938 200.415588 488.236938 198.04686 C 488.236938 195.92746 488.59314 193.999542 489.305542 192.263062 C 490.017944 190.526581 491.0242 189.141876 492.324341 188.108887 C 493.624451 187.075897 495.165039 186.559418 496.946045 186.559418 C 498.798279 186.559418 500.19635 187.160492 501.140259 188.362671 C 502.084229 189.56485 502.556152 191.368103 502.556152 193.772461 C 502.556152 195.891861 502.199951 197.819763 501.487549 199.556259 C 500.775146 201.29274 499.768921 202.67746 498.468781 203.710434 Z M 520.4552 199.275757 C 521.773193 199.275757 522.917419 198.883942 523.888062 198.100281 C 524.858765 197.31665 525.60675 196.305939 526.132141 195.068146 C 526.657532 193.830338 526.920227 192.525772 526.920227 191.154388 C 526.920227 189.498062 526.541748 188.246918 525.784851 187.40094 C 525.027954 186.554962 523.963745 186.131973 522.592407 186.131973 C 521.256653 186.131973 520.103455 186.501526 519.132813 187.240646 C 518.16217 187.979767 517.418579 188.950409 516.9021 190.152588 C 516.38562 191.354767 516.12738 192.650421 516.12738 194.039612 C 516.12738 195.71376 516.510254 197.004974 517.276123 197.913284 C 518.041992 198.821594 519.101685 199.275757 520.4552 199.275757 Z M 403.123016 208.064972 C 403.906677 209.044525 405.260193 209.534302 407.183716 209.534302 L 411.190918 209.534302 L 412.259521 205.687347 L 410.977234 205.687347 C 409.463379 205.687347 408.417053 205.580475 407.838196 205.36676 C 407.259399 205.153046 406.969971 204.565323 406.969971 203.603577 L 409.892761 186.559418 L 404.998871 186.559418 C 404.800934 187.676498 404.616425 188.718384 404.445404 189.685074 C 403.830963 193.158035 403.354553 195.88739 403.016174 197.873215 C 402.677765 199.859039 402.432861 201.319443 402.281494 202.254471 C 402.130127 203.189499 402.036621 203.799484 402.000977 204.084442 C 401.965363 204.369415 401.947571 204.565308 401.947571 204.67218 C 401.947571 205.954498 402.339355 207.085419 403.123016 208.064972 Z M 405.661987 182.819321 L 402.214722 182.819321 L 401.146118 186.559418 L 404.998871 186.559418 C 405.205292 185.394501 405.4263 184.147797 405.661987 182.819321 Z M 405.661987 182.819321 L 410.534119 182.819321 L 411.72522 175.873428 L 406.809692 176.354294 C 406.394806 178.689941 406.012238 180.844955 405.661987 182.819321 Z M 410.534119 182.819321 L 409.892761 186.559418 L 415.732483 186.559418 L 416.427063 182.819321 L 410.534119 182.819321 Z M 423.052368 168.927536 L 415.999634 209 L 420.861755 209 L 424.238129 189.960312 C 424.135773 190.079742 424.034424 190.201706 423.93399 190.326233 L 424.628571 186.025116 C 424.756165 185.876251 424.884186 185.732147 425.012634 185.592834 L 427.967957 168.927536 L 423.052368 168.927536 Z M 425.012634 185.592834 C 426.067383 184.448746 427.150452 183.626663 428.26181 183.126541 C 429.508514 182.565521 430.906586 182.285019 432.456055 182.285019 C 434.094604 182.285019 435.443665 182.654572 436.503387 183.393692 C 437.56308 184.132813 438.34671 185.116806 438.854309 186.345703 C 439.361877 187.574585 439.615662 188.928131 439.615662 190.406372 C 439.615662 190.958496 439.571167 191.68869 439.482117 192.597 C 439.393066 193.50531 439.241669 194.573914 439.027954 195.802795 L 436.730469 209 L 431.868347 209 L 434.112396 195.909668 C 434.308289 194.805435 434.455231 193.870422 434.553192 193.104584 C 434.651123 192.338745 434.700134 191.653076 434.700134 191.047531 C 434.700134 189.658356 434.330566 188.563049 433.591431 187.761597 C 432.852325 186.960144 431.814911 186.559418 430.479156 186.559418 C 429.089966 186.559418 427.874451 186.911163 426.832581 187.614655 C 425.908142 188.238831 425.043365 189.020706 424.238129 189.960312 L 425.012634 185.592834 Z M 257.846954 208.064972 C 258.630615 209.044525 259.984131 209.534302 261.907623 209.534302 L 265.914886 209.534302 L 266.98349 205.687347 L 265.701172 205.687347 C 264.187317 205.687347 263.140991 205.580475 262.562164 205.36676 C 261.983337 205.153046 261.693909 204.565323 261.693909 203.603577 L 264.616699 186.559418 L 259.722778 186.559418 C 259.524841 187.676498 259.340363 188.718384 259.169342 189.685074 C 258.554901 193.158035 258.078491 195.88739 257.740112 197.873215 C 257.401703 199.859039 257.15683 201.319443 257.005432 202.254471 C 256.854065 203.189499 256.760559 203.799484 256.724915 204.084442 C 256.689301 204.369415 256.671509 204.565308 256.671509 204.67218 C 256.671509 205.954498 257.063324 207.085419 257.846954 208.064972 Z M 260.385925 182.819321 L 256.93866 182.819321 L 255.870056 186.559418 L 259.722778 186.559418 C 259.929199 185.394501 260.150238 184.147797 260.385925 182.819321 Z M 260.385925 182.819321 L 265.258087 182.819321 L 266.449188 175.873428 L 261.53363 176.354294 C 261.118744 178.689941 260.736176 180.844955 260.385925 182.819321 Z M 265.258087 182.819321 L 264.616699 186.559418 L 270.456421 186.559418 L 271.151001 182.819321 L 265.258087 182.819321 Z M 277.776337 168.927536 L 270.723572 209 L 275.585693 209 L 278.962067 189.960312 C 278.859711 190.079742 278.758362 190.201706 278.657928 190.326233 L 279.352509 186.025116 C 279.480103 185.876251 279.608124 185.732147 279.736572 185.592834 L 282.691895 168.927536 L 277.776337 168.927536 Z M 279.736572 185.592834 C 280.791321 184.448746 281.87439 183.626663 282.985748 183.126541 C 284.232452 182.565521 285.630524 182.285019 287.179993 182.285019 C 288.818542 182.285019 290.167633 182.654572 291.227325 183.393692 C 292.287018 184.132813 293.070648 185.116806 293.578247 186.345703 C 294.085815 187.574585 294.33963 188.928131 294.33963 190.406372 C 294.33963 190.958496 294.295105 191.68869 294.206055 192.597 C 294.117004 193.50531 293.965607 194.573914 293.751892 195.802795 L 291.454407 209 L 286.592285 209 L 288.836334 195.909668 C 289.032257 194.805435 289.179169 193.870422 289.27713 193.104584 C 289.375092 192.338745 289.424072 191.653076 289.424072 191.047531 C 289.424072 189.658356 289.054504 188.563049 288.315399 187.761597 C 287.576263 186.960144 286.538849 186.559418 285.203094 186.559418 C 283.813904 186.559418 282.598389 186.911163 281.556488 187.614655 C 280.632111 188.238831 279.767303 189.020706 278.962067 189.960312 L 279.736572 185.592834 Z"/>
    <g id="icon-gradient">
        <linearGradient id="linearGradient1" x1="14.320686" y1="22.990137" x2="14.320686" y2="219.190349" gradientUnits="userSpaceOnUse">
            <stop offset="1e-05" stop-color="#9dd8f7" stop-opacity="1"/>
            <stop offset="0.35" stop-color="#b8a5e5" stop-opacity="1"/>
            <stop offset="1" stop-color="#e8f5ff" stop-opacity="1"/>
        </linearGradient>
        <path id="Path" fill="url(#linearGradient1)" fill-rule="evenodd" stroke="none" d="M 149.393265 107.262756 L 108.095703 77.251663 L 66.798126 107.262756 L 82.570923 155.815887 L 133.622757 155.815887 L 149.393265 107.262756 L 149.393265 107.262756 Z M 153.806564 102.386749 L 111.36985 71.547836 L 111.36985 22.990128 L 166.055099 40.763489 L 199.863022 87.306152 L 153.806564 102.386749 L 153.806564 102.386749 Z M 201.870712 93.528519 L 201.870712 151.044495 L 168.067322 197.5849 L 139.614014 158.526794 L 155.832458 108.60231 L 201.870712 93.528519 L 201.870712 93.528519 Z M 162.792297 201.412476 L 134.348083 162.365753 L 81.84333 162.365753 L 53.399101 201.412476 L 108.095703 219.190353 L 162.792297 201.412476 L 162.792297 201.412476 Z M 48.126347 197.5849 L 14.320685 151.044495 L 14.320685 93.528519 L 60.361233 108.60231 L 76.5774 158.526794 L 48.126347 197.5849 L 48.126347 197.5849 Z M 16.328381 87.306152 L 50.136318 40.763489 L 104.821556 22.990128 L 104.821556 71.547836 L 62.384846 102.386749 L 16.328381 87.306152 Z"/>
        <text id="Created-by-Proicon" visibility="hidden" xml:space="preserve" x="-4" y="283" font-family="Helvetica" font-size="11.369943" fill="#000000">Created by Proicon</text>
        <text id="from-Noun-Project" visibility="hidden" xml:space="preserve" x="-4" y="295" font-family="Helvetica" font-size="11.369943" fill="#000000">from Noun Project</text>
    </g>
    <g id="logo-iridescent">
        <linearGradient id="linearGradient2" x1="229.571847" y1="32.048024" x2="229.571847" y2="145.575588" gradientUnits="userSpaceOnUse">
            <stop offset="1e-05" stop-color="#9dd8f7" stop-opacity="1"/>
            <stop offset="0.35" stop-color="#b8a5e5" stop-opacity="1"/>
            <stop offset="1" stop-color="#e8f5ff" stop-opacity="1"/>
        </linearGradient>
        <path id="path1" fill="url(#linearGradient2)" stroke="none" d="M 336.312927 32.354294 L 290.561676 145.575592 L 274.098328 145.575592 L 229.571854 32.071594 L 249.085312 32.048019 L 282.824615 122.72403 L 317.082123 32.29538 Z"/>
        <linearGradient id="linearGradient3" x1="345.533816" y1="30.752316" x2="345.533816" y2="145.575588" gradientUnits="userSpaceOnUse">
            <stop offset="1e-05" stop-color="#9dd8f7" stop-opacity="1"/>
            <stop offset="0.35" stop-color="#b8a5e5" stop-opacity="1"/>
            <stop offset="1" stop-color="#e8f5ff" stop-opacity="1"/>
        </linearGradient>
        <path id="path2" fill="url(#linearGradient3)" stroke="none" d="M 347.524017 65.73642 L 364.576233 65.73642 L 364.576233 145.575592 L 347.524017 145.575592 L 347.524017 65.73642 Z M 356.05011 52.343521 C 353.070709 52.343521 350.562347 51.318726 348.560364 49.292709 C 346.534821 47.243134 345.533813 44.628159 345.533813 41.471375 C 345.533813 38.420563 346.534821 35.864487 348.536774 33.83847 C 350.562347 31.7771 353.058929 30.752319 356.05011 30.752319 C 359.029541 30.752319 361.514374 31.7771 363.539886 33.82666 C 365.54187 35.876266 366.566437 38.432327 366.566437 41.459564 C 366.566437 44.592819 365.54187 47.19603 363.539886 49.257355 C 361.514374 51.318726 359.029541 52.343521 356.05011 52.343521 Z"/>
        <linearGradient id="linearGradient4" x1="385.255531" y1="32.424957" x2="385.255531" y2="147.813629" gradientUnits="userSpaceOnUse">
            <stop offset="1e-05" stop-color="#9dd8f7" stop-opacity="1"/>
            <stop offset="0.35" stop-color="#b8a5e5" stop-opacity="1"/>
            <stop offset="1" stop-color="#e8f5ff" stop-opacity="1"/>
        </linearGradient>
        <path id="path3" fill="url(#linearGradient4)" stroke="none" d="M 402.955414 104.372086 L 402.931885 107.199081 C 403.497131 121.428322 414.260742 132.783447 427.450287 132.783447 C 441.004883 132.783447 451.992218 120.803993 451.992218 106.032928 C 451.992218 91.261871 441.004883 79.282455 427.450287 79.282455 C 414.402039 79.282455 403.744446 90.378448 402.955414 104.372086 M 402.755219 145.775818 L 385.255524 145.775818 L 385.255524 32.424973 L 403.414703 32.848999 C 403.414703 47.843872 403.308716 62.826981 403.190948 77.821854 C 410.233215 69.175934 420.514008 63.733963 431.948883 63.733963 C 453.22876 63.733963 470.46936 82.557083 470.46936 105.773804 C 470.46936 128.99054 453.21701 147.813629 431.948883 147.813629 C 420.290253 147.813629 409.844604 142.159637 402.778778 133.231033 C 402.767029 137.412643 402.755219 141.594208 402.755219 145.775818 Z"/>
        <linearGradient id="linearGradient5" x1="481.150556" y1="63.851761" x2="481.150556" y2="147.872524" gradientUnits="userSpaceOnUse">
            <stop offset="1e-05" stop-color="#9dd8f7" stop-opacity="1"/>
            <stop offset="0.35" stop-color="#b8a5e5" stop-opacity="1"/>
            <stop offset="1" stop-color="#e8f5ff" stop-opacity="1"/>
        </linearGradient>
        <path id="path4" fill="url(#linearGradient5)" stroke="none" d="M 523.722168 132.58316 C 528.515137 132.58316 532.895935 131.417053 536.864624 129.143646 C 540.845032 126.846725 543.965698 123.654556 546.262146 119.543633 C 548.523254 115.409164 549.665466 110.791725 549.665466 105.69136 C 549.665466 100.661636 548.523254 96.114883 546.285706 92.051071 C 544.024597 88.010818 540.89209 84.842224 536.888123 82.545273 C 532.907715 80.248367 528.515137 79.105789 523.722168 79.105789 C 518.929199 79.105789 514.513062 80.248367 510.532623 82.545273 C 506.552185 84.842224 503.431488 88.010818 501.1586 92.027527 C 498.897552 96.06778 497.767029 100.614532 497.767029 105.69136 C 497.767029 110.8153 498.909332 115.456268 501.17041 119.543633 C 503.431488 123.654556 506.563995 126.846725 510.544373 129.143646 C 514.53656 131.428818 518.929199 132.58316 523.722168 132.58316 M 523.722168 147.872528 C 515.502258 147.848969 508.177338 145.987869 501.735657 142.265625 C 495.294006 138.543442 490.241943 133.490189 486.614807 127.082306 C 482.987671 120.698006 481.150574 113.559845 481.150574 105.703125 C 481.150574 97.893524 482.964142 90.837814 486.591217 84.453506 C 490.218353 78.092773 495.246887 73.063049 501.712097 69.387985 C 508.177338 65.689301 515.490479 63.851761 523.722168 63.851761 C 531.918457 63.851761 539.243408 65.689301 545.708679 69.387985 C 552.173889 73.063049 557.202332 78.092773 560.829529 84.477081 C 564.480225 90.861389 566.293701 97.917099 566.293701 105.703125 C 566.293701 113.53627 564.456604 120.674431 560.829529 127.058739 C 557.178833 133.466614 552.12677 138.543442 545.685059 142.265625 C 539.243408 145.987869 531.918457 147.848969 523.722168 147.872528 Z"/>
        <linearGradient id="linearGradient6" x1="481.150556" y1="63.851761" x2="481.150556" y2="147.872524" gradientUnits="userSpaceOnUse">
            <stop offset="1e-05" stop-color="#9dd8f7" stop-opacity="1"/>
            <stop offset="0.35" stop-color="#b8a5e5" stop-opacity="1"/>
            <stop offset="1" stop-color="#e8f5ff" stop-opacity="1"/>
        </linearGradient>
        <path id="path5" fill="url(#linearGradient6)" stroke="none" d="M 523.722168 132.58316 C 528.515137 132.58316 532.895935 131.417053 536.864624 129.143646 C 540.845032 126.846725 543.965698 123.654556 546.262146 119.543633 C 548.523254 115.409164 549.665466 110.791725 549.665466 105.69136 C 549.665466 100.661636 548.523254 96.114883 546.285706 92.051071 C 544.024597 88.010818 540.89209 84.842224 536.888123 82.545273 C 532.907715 80.248367 528.515137 79.105789 523.722168 79.105789 C 518.929199 79.105789 514.513062 80.248367 510.532623 82.545273 C 506.552185 84.842224 503.431488 88.010818 501.1586 92.027527 C 498.897552 96.06778 497.767029 100.614532 497.767029 105.69136 C 497.767029 110.8153 498.909332 115.456268 501.17041 119.543633 C 503.431488 123.654556 506.563995 126.846725 510.544373 129.143646 C 514.53656 131.428818 518.929199 132.58316 523.722168 132.58316 M 523.722168 147.872528 C 515.502258 147.848969 508.177338 145.987869 501.735657 142.265625 C 495.294006 138.543442 490.241943 133.490189 486.614807 127.082306 C 482.987671 120.698006 481.150574 113.559845 481.150574 105.703125 C 481.150574 97.893524 482.964142 90.837814 486.591217 84.453506 C 490.218353 78.092773 495.246887 73.063049 501.712097 69.387985 C 508.177338 65.689301 515.490479 63.851761 523.722168 63.851761 C 531.918457 63.851761 539.243408 65.689301 545.708679 69.387985 C 552.173889 73.063049 557.202332 78.092773 560.829529 84.477081 C 564.480225 90.861389 566.293701 97.917099 566.293701 105.703125 C 566.293701 113.53627 564.456604 120.674431 560.829529 127.058739 C 557.178833 133.466614 552.12677 138.543442 545.685059 142.265625 C 539.243408 145.987869 531.918457 147.848969 523.722168 147.872528 Z"/>
        <linearGradient id="linearGradient7" x1="580.919775" y1="32.424957" x2="580.919775" y2="148.027349" gradientUnits="userSpaceOnUse">
            <stop offset="1e-05" stop-color="#9dd8f7" stop-opacity="1"/>
            <stop offset="0.35" stop-color="#b8a5e5" stop-opacity="1"/>
            <stop offset="1" stop-color="#e8f5ff" stop-opacity="1"/>
        </linearGradient>
        <path id="path6" fill="url(#linearGradient7)" stroke="none" d="M 598.749451 32.424973 L 598.749451 126.269539 C 598.749451 128.413361 599.267639 129.97998 600.280396 130.922318 C 601.293091 131.864655 602.70636 132.324036 604.508118 132.324036 C 606.156799 132.324036 608.570923 131.852875 611.797668 130.875214 L 612.480652 144.986633 C 604.80249 148.379028 592.661011 150.145905 586.101624 143.643814 C 582.651184 140.227875 580.896423 135.586853 580.919983 129.720825 L 581.332214 32.53096 L 598.749451 32.424973 Z"/>
        <linearGradient id="linearGradient8" x1="580.919775" y1="32.424957" x2="580.919775" y2="148.027349" gradientUnits="userSpaceOnUse">
            <stop offset="1e-05" stop-color="#9dd8f7" stop-opacity="1"/>
            <stop offset="0.35" stop-color="#b8a5e5" stop-opacity="1"/>
            <stop offset="1" stop-color="#e8f5ff" stop-opacity="1"/>
        </linearGradient>
        <path id="path7" fill="url(#linearGradient8)" stroke="none" d="M 598.749451 32.424973 L 598.749451 126.269539 C 598.749451 128.413361 599.267639 129.97998 600.280396 130.922318 C 601.293091 131.864655 602.70636 132.324036 604.508118 132.324036 C 606.156799 132.324036 608.570923 131.852875 611.797668 130.875214 L 612.480652 144.986633 C 604.80249 148.379028 592.661011 150.145905 586.101624 143.643814 C 582.651184 140.227875 580.896423 135.586853 580.919983 129.720825 L 581.332214 32.53096 L 598.749451 32.424973 Z"/>
        <linearGradient id="linearGradient9" x1="710.224612" y1="64.381824" x2="710.224612" y2="175.64968" gradientUnits="userSpaceOnUse">
            <stop offset="1e-05" stop-color="#9dd8f7" stop-opacity="1"/>
            <stop offset="0.35" stop-color="#b8a5e5" stop-opacity="1"/>
            <stop offset="1" stop-color="#e8f5ff" stop-opacity="1"/>
        </linearGradient>
        <path id="path8" fill="url(#linearGradient9)" stroke="none" d="M 774.759155 96.091309 C 771.520691 86.185074 762.617737 79.082214 752.160278 79.082214 C 738.958984 79.082214 728.254272 90.413757 728.254272 104.38385 C 728.254272 118.365715 738.958984 129.697296 752.160278 129.697296 C 761.204529 129.697296 769.071167 124.384872 773.133972 116.551735 C 775.85437 111.298233 776.596313 101.721756 774.759155 96.091309 M 792.812317 66.030914 L 792.812317 139.002808 C 792.812317 171.513306 753.549866 183.304245 728.218872 170.700531 C 723.814514 168.509613 719.480835 165.317459 715.35907 160.711807 L 725.451477 150.946869 C 732.846985 159.227631 752.678467 168.120911 768.352783 154.680878 C 772.851318 150.817322 774.700256 144.491882 774.700256 137.742447 L 774.700256 131.841064 C 767.881714 139.285492 758.331116 143.914734 747.7677 143.914734 C 727.04126 143.914734 710.224609 126.116409 710.224609 104.14827 C 710.224609 82.191895 727.029541 64.381836 747.7677 64.381836 C 759.237915 64.381836 769.495117 69.823807 776.384216 78.410812 L 776.384216 66.066254 L 792.812317 66.030914 Z"/>
        <linearGradient id="linearGradient10" x1="803.387518" y1="65.500844" x2="803.387518" y2="175.082875" gradientUnits="userSpaceOnUse">
            <stop offset="1e-05" stop-color="#9dd8f7" stop-opacity="1"/>
            <stop offset="0.35" stop-color="#b8a5e5" stop-opacity="1"/>
            <stop offset="1" stop-color="#e8f5ff" stop-opacity="1"/>
        </linearGradient>
        <path id="path9" fill="url(#linearGradient10)" stroke="none" d="M 887.152893 65.771759 L 849.185852 156.294632 C 842.602844 171.996246 822.87738 179.841187 808.592651 172.019806 L 812.054932 157.908371 C 818.449524 162.726044 831.097351 162.372681 834.61853 150.122345 L 836.337769 144.138519 L 803.387573 65.70108 L 821.110962 65.759995 L 845.287903 126.870262 L 868.734619 65.500839 L 887.152893 65.771759 Z"/>
        <linearGradient id="linearGradient11" x1="614.765312" y1="63.851761" x2="614.765312" y2="147.872524" gradientUnits="userSpaceOnUse">
            <stop offset="1e-05" stop-color="#9dd8f7" stop-opacity="1"/>
            <stop offset="0.35" stop-color="#b8a5e5" stop-opacity="1"/>
            <stop offset="1" stop-color="#e8f5ff" stop-opacity="1"/>
        </linearGradient>
        <path id="path10" fill="url(#linearGradient11)" stroke="none" d="M 657.336914 132.58316 C 652.543945 132.58316 648.163086 131.417053 644.194458 129.143646 C 640.214111 126.846725 637.093323 123.654556 634.796936 119.543633 C 632.535828 115.409164 631.393555 110.791725 631.393555 105.69136 C 631.393555 100.661636 632.535828 96.114883 634.773376 92.051071 C 637.034424 88.010818 640.166931 84.842224 644.170898 82.545273 C 648.151367 80.248367 652.543945 79.105789 657.336914 79.105789 C 662.129883 79.105789 666.546021 80.248367 670.526489 82.545273 C 674.506897 84.842224 677.627563 88.010818 679.900391 92.027527 C 682.161499 96.06778 683.292053 100.614532 683.292053 105.69136 C 683.292053 110.8153 682.149719 115.456268 679.888733 119.543633 C 677.627563 123.654556 674.495056 126.846725 670.514648 129.143646 C 666.510681 131.428818 662.129883 132.58316 657.336914 132.58316 M 657.336914 147.872528 C 665.556824 147.848969 672.881714 145.987869 679.323425 142.265625 C 685.765076 138.543442 690.817139 133.490189 694.444275 127.082306 C 698.07135 120.698006 699.908508 113.559845 699.908508 105.703125 C 699.908508 97.893524 698.094971 90.837814 694.467773 84.453506 C 690.840698 78.092773 685.812195 73.063049 679.346924 69.387985 C 672.881714 65.689301 665.568604 63.851761 657.336914 63.851761 C 649.140564 63.851761 641.815613 65.689301 635.350464 69.387985 C 628.885193 73.063049 623.856689 78.092773 620.229614 84.477081 C 616.578918 90.861389 614.76532 97.917099 614.76532 105.703125 C 614.76532 113.53627 616.602417 120.674431 620.229614 127.058739 C 623.880249 133.466614 628.932251 138.543442 635.373962 142.265625 C 641.815613 145.987869 649.128723 147.848969 657.336914 147.872528 Z"/>
        <linearGradient id="linearGradient12" x1="614.765312" y1="63.851761" x2="614.765312" y2="147.872524" gradientUnits="userSpaceOnUse">
            <stop offset="1e-05" stop-color="#9dd8f7" stop-opacity="1"/>
            <stop offset="0.35" stop-color="#b8a5e5" stop-opacity="1"/>
            <stop offset="1" stop-color="#e8f5ff" stop-opacity="1"/>
        </linearGradient>
        <path id="path11" fill="url(#linearGradient12)" stroke="none" d="M 657.336914 132.58316 C 652.543945 132.58316 648.163086 131.417053 644.194458 129.143646 C 640.214111 126.846725 637.093323 123.654556 634.796936 119.543633 C 632.535828 115.409164 631.393555 110.791725 631.393555 105.69136 C 631.393555 100.661636 632.535828 96.114883 634.773376 92.051071 C 637.034424 88.010818 640.166931 84.842224 644.170898 82.545273 C 648.151367 80.248367 652.543945 79.105789 657.336914 79.105789 C 662.129883 79.105789 666.546021 80.248367 670.526489 82.545273 C 674.506897 84.842224 677.627563 88.010818 679.900391 92.027527 C 682.161499 96.06778 683.292053 100.614532 683.292053 105.69136 C 683.292053 110.8153 682.149719 115.456268 679.888733 119.543633 C 677.627563 123.654556 674.495056 126.846725 670.514648 129.143646 C 666.510681 131.428818 662.129883 132.58316 657.336914 132.58316 M 657.336914 147.872528 C 665.556824 147.848969 672.881714 145.987869 679.323425 142.265625 C 685.765076 138.543442 690.817139 133.490189 694.444275 127.082306 C 698.07135 120.698006 699.908508 113.559845 699.908508 105.703125 C 699.908508 97.893524 698.094971 90.837814 694.467773 84.453506 C 690.840698 78.092773 685.812195 73.063049 679.346924 69.387985 C 672.881714 65.689301 665.568604 63.851761 657.336914 63.851761 C 649.140564 63.851761 641.815613 65.689301 635.350464 69.387985 C 628.885193 73.063049 623.856689 78.092773 620.229614 84.477081 C 616.578918 90.861389 614.76532 97.917099 614.76532 105.703125 C 614.76532 113.53627 616.602417 120.674431 620.229614 127.058739 C 623.880249 133.466614 628.932251 138.543442 635.373962 142.265625 C 641.815613 145.987869 649.128723 147.848969 657.336914 147.872528 Z"/>
    </g>
</svg>
