<?xml version="1.0" encoding="UTF-8"?>
<!-- Generated by Pixelmator Pro 3.7.1 -->
<svg width="8822" height="1800" viewBox="0 0 8822 1800" xmlns="http://www.w3.org/2000/svg">
    <g id="Group">
        <linearGradient id="linearGradient1" x1="1604" y1="140.145185" x2="1604" y2="1372.950624" gradientUnits="userSpaceOnUse">
            <stop offset="1e-05" stop-color="#9dd8f7" stop-opacity="1"/>
            <stop offset="0.35" stop-color="#b8a5e5" stop-opacity="1"/>
            <stop offset="1" stop-color="#e8f5ff" stop-opacity="1"/>
        </linearGradient>
        <path id="Path" fill="url(#linearGradient1)" stroke="none" d="M 2763.384521 143.470825 L 2266.450684 1372.950684 L 2087.631104 1372.950684 L 1604 140.401001 L 1815.948364 140.145142 L 2182.413086 1124.803467 L 2554.505859 142.831299 Z"/>
        <linearGradient id="linearGradient2" x1="2863.538821" y1="126.074983" x2="2863.538821" y2="1372.950624" gradientUnits="userSpaceOnUse">
            <stop offset="1e-05" stop-color="#9dd8f7" stop-opacity="1"/>
            <stop offset="0.35" stop-color="#b8a5e5" stop-opacity="1"/>
            <stop offset="1" stop-color="#e8f5ff" stop-opacity="1"/>
        </linearGradient>
        <path id="path1" fill="url(#linearGradient2)" stroke="none" d="M 2885.155762 505.970459 L 3070.370605 505.970459 L 3070.370605 1372.950684 L 2885.155762 1372.950684 L 2885.155762 505.970459 Z M 2977.763184 360.535645 C 2945.401855 360.535645 2918.156738 349.407471 2896.411865 327.406738 C 2874.411133 305.150269 2863.538818 276.754028 2863.538818 242.473877 C 2863.538818 209.344971 2874.411133 181.588379 2896.156006 159.587646 C 2918.156738 137.203247 2945.273926 126.074951 2977.763184 126.074951 C 3010.124756 126.074951 3037.11377 137.203247 3059.114502 159.459717 C 3080.859375 181.716187 3091.987793 209.4729 3091.987793 242.346069 C 3091.987793 276.370361 3080.859375 304.638672 3059.114502 327.023071 C 3037.11377 349.407471 3010.124756 360.535645 2977.763184 360.535645 Z"/>
        <linearGradient id="linearGradient3" x1="3294.982352" y1="144.238334" x2="3294.982352" y2="1397.253698" gradientUnits="userSpaceOnUse">
            <stop offset="1e-05" stop-color="#9dd8f7" stop-opacity="1"/>
            <stop offset="0.35" stop-color="#b8a5e5" stop-opacity="1"/>
            <stop offset="1" stop-color="#e8f5ff" stop-opacity="1"/>
        </linearGradient>
        <path id="path2" fill="url(#linearGradient3)" stroke="none" d="M 3487.232422 925.51825 L 3486.976563 956.216858 C 3493.116455 1110.733276 3610.026855 1234.039429 3753.287109 1234.039429 C 3900.512451 1234.039429 4019.853516 1103.953857 4019.853516 943.553711 C 4019.853516 783.153381 3900.512451 653.067993 3753.287109 653.067993 C 3611.561768 653.067993 3495.802246 773.560059 3487.232422 925.51825 M 3485.057861 1375.125122 L 3294.982178 1375.125122 L 3294.982178 144.238281 L 3492.220947 148.84314 C 3492.220947 311.673706 3491.069824 474.376465 3489.790527 637.207031 C 3566.281494 543.320435 3677.947754 484.225586 3802.14917 484.225586 C 4033.28418 484.225586 4220.54541 688.627197 4220.54541 940.739685 C 4220.54541 1192.852051 4033.15625 1397.253662 3802.14917 1397.253662 C 3675.517334 1397.253662 3562.060303 1335.856445 3485.313721 1238.900024 C 3485.186035 1284.30835 3485.057861 1329.716675 3485.057861 1375.125122 Z"/>
        <linearGradient id="linearGradient4" x1="4336.560966" y1="485.504666" x2="4336.560966" y2="1397.893253" gradientUnits="userSpaceOnUse">
            <stop offset="1e-05" stop-color="#9dd8f7" stop-opacity="1"/>
            <stop offset="0.35" stop-color="#b8a5e5" stop-opacity="1"/>
            <stop offset="1" stop-color="#e8f5ff" stop-opacity="1"/>
        </linearGradient>
        <path id="path3" fill="url(#linearGradient4)" stroke="none" d="M 4798.958984 1231.864868 C 4851.018555 1231.864868 4898.601563 1219.20166 4941.70752 1194.514893 C 4984.941406 1169.572266 5018.837891 1134.908447 5043.780273 1090.267456 C 5068.339355 1045.37085 5080.746582 995.229614 5080.746582 939.844299 C 5080.746582 885.226257 5068.339355 835.852722 5044.036133 791.723389 C 5019.477539 747.849976 4985.453125 713.441895 4941.962891 688.49939 C 4898.729492 663.556641 4851.018555 651.149292 4798.958984 651.149292 C 4746.899414 651.149292 4698.932617 663.556641 4655.69873 688.49939 C 4612.464844 713.441895 4578.568359 747.849976 4553.881836 791.46759 C 4529.322754 835.341064 4517.043457 884.714661 4517.043457 939.844299 C 4517.043457 995.485535 4529.450684 1045.882446 4554.009766 1090.267456 C 4578.568359 1134.908447 4612.592773 1169.572266 4655.82666 1194.514893 C 4699.188477 1219.32959 4746.899414 1231.864868 4798.958984 1231.864868 M 4798.958984 1397.893311 C 4709.677246 1397.637451 4630.116211 1377.42749 4560.149414 1337.007568 C 4490.181641 1296.587891 4435.308594 1241.714111 4395.911621 1172.130493 C 4356.515137 1102.802734 4336.561035 1025.288818 4336.561035 939.972107 C 4336.561035 855.167236 4356.259277 778.548584 4395.655762 709.220947 C 4435.052734 640.148926 4489.67041 585.531006 4559.893555 545.622803 C 4630.116211 505.45874 4709.548828 485.504639 4798.958984 485.504639 C 4887.984863 485.504639 4967.54541 505.45874 5037.768555 545.622803 C 5107.991699 585.531006 5162.609375 640.148926 5202.006348 709.476685 C 5241.65918 778.804382 5261.356934 855.423035 5261.356934 939.972107 C 5261.356934 1025.032959 5241.402832 1102.546875 5202.006348 1171.874756 C 5162.354004 1241.458252 5107.47998 1296.587891 5037.512695 1337.007568 C 4967.54541 1377.42749 4887.984863 1397.637451 4798.958984 1397.893311 Z"/>
        <linearGradient id="linearGradient5" x1="4336.560966" y1="485.504666" x2="4336.560966" y2="1397.893253" gradientUnits="userSpaceOnUse">
            <stop offset="1e-05" stop-color="#9dd8f7" stop-opacity="1"/>
            <stop offset="0.35" stop-color="#b8a5e5" stop-opacity="1"/>
            <stop offset="1" stop-color="#e8f5ff" stop-opacity="1"/>
        </linearGradient>
        <path id="path4" fill="url(#linearGradient5)" stroke="none" d="M 4798.958984 1231.864868 C 4851.018555 1231.864868 4898.601563 1219.20166 4941.70752 1194.514893 C 4984.941406 1169.572266 5018.837891 1134.908447 5043.780273 1090.267456 C 5068.339355 1045.37085 5080.746582 995.229614 5080.746582 939.844299 C 5080.746582 885.226257 5068.339355 835.852722 5044.036133 791.723389 C 5019.477539 747.849976 4985.453125 713.441895 4941.962891 688.49939 C 4898.729492 663.556641 4851.018555 651.149292 4798.958984 651.149292 C 4746.899414 651.149292 4698.932617 663.556641 4655.69873 688.49939 C 4612.464844 713.441895 4578.568359 747.849976 4553.881836 791.46759 C 4529.322754 835.341064 4517.043457 884.714661 4517.043457 939.844299 C 4517.043457 995.485535 4529.450684 1045.882446 4554.009766 1090.267456 C 4578.568359 1134.908447 4612.592773 1169.572266 4655.82666 1194.514893 C 4699.188477 1219.32959 4746.899414 1231.864868 4798.958984 1231.864868 M 4798.958984 1397.893311 C 4709.677246 1397.637451 4630.116211 1377.42749 4560.149414 1337.007568 C 4490.181641 1296.587891 4435.308594 1241.714111 4395.911621 1172.130493 C 4356.515137 1102.802734 4336.561035 1025.288818 4336.561035 939.972107 C 4336.561035 855.167236 4356.259277 778.548584 4395.655762 709.220947 C 4435.052734 640.148926 4489.67041 585.531006 4559.893555 545.622803 C 4630.116211 505.45874 4709.548828 485.504639 4798.958984 485.504639 C 4887.984863 485.504639 4967.54541 505.45874 5037.768555 545.622803 C 5107.991699 585.531006 5162.609375 640.148926 5202.006348 709.476685 C 5241.65918 778.804382 5261.356934 855.423035 5261.356934 939.972107 C 5261.356934 1025.032959 5241.402832 1102.546875 5202.006348 1171.874756 C 5162.354004 1241.458252 5107.47998 1296.587891 5037.512695 1337.007568 C 4967.54541 1377.42749 4887.984863 1397.637451 4798.958984 1397.893311 Z"/>
        <linearGradient id="linearGradient6" x1="5420.219732" y1="144.238334" x2="5420.219732" y2="1399.574508" gradientUnits="userSpaceOnUse">
            <stop offset="1e-05" stop-color="#9dd8f7" stop-opacity="1"/>
            <stop offset="0.35" stop-color="#b8a5e5" stop-opacity="1"/>
            <stop offset="1" stop-color="#e8f5ff" stop-opacity="1"/>
        </linearGradient>
        <path id="path5" fill="url(#linearGradient6)" stroke="none" d="M 5613.879395 144.238281 L 5613.879395 1163.304565 C 5613.879395 1186.584473 5619.507324 1203.596558 5630.507813 1213.829468 C 5641.507813 1224.062256 5656.857422 1229.050903 5676.427734 1229.050903 C 5694.335449 1229.050903 5720.557129 1223.934448 5755.60498 1213.317871 L 5763.023438 1366.555176 C 5679.625488 1403.393433 5547.749512 1422.580078 5476.50293 1351.973145 C 5439.025391 1314.87915 5419.966309 1264.482178 5420.222168 1200.782471 L 5424.699219 145.389526 L 5613.879395 144.238281 Z"/>
        <linearGradient id="linearGradient7" x1="5420.219732" y1="144.238334" x2="5420.219732" y2="1399.574508" gradientUnits="userSpaceOnUse">
            <stop offset="1e-05" stop-color="#9dd8f7" stop-opacity="1"/>
            <stop offset="0.35" stop-color="#b8a5e5" stop-opacity="1"/>
            <stop offset="1" stop-color="#e8f5ff" stop-opacity="1"/>
        </linearGradient>
        <path id="path6" fill="url(#linearGradient7)" stroke="none" d="M 5613.879395 144.238281 L 5613.879395 1163.304565 C 5613.879395 1186.584473 5619.507324 1203.596558 5630.507813 1213.829468 C 5641.507813 1224.062256 5656.857422 1229.050903 5676.427734 1229.050903 C 5694.335449 1229.050903 5720.557129 1223.934448 5755.60498 1213.317871 L 5763.023438 1366.555176 C 5679.625488 1403.393433 5547.749512 1422.580078 5476.50293 1351.973145 C 5439.025391 1314.87915 5419.966309 1264.482178 5420.222168 1200.782471 L 5424.699219 145.389526 L 5613.879395 144.238281 Z"/>
        <linearGradient id="linearGradient8" x1="6824.684166" y1="491.260658" x2="6824.684166" y2="1699.527745" gradientUnits="userSpaceOnUse">
            <stop offset="1e-05" stop-color="#9dd8f7" stop-opacity="1"/>
            <stop offset="0.35" stop-color="#b8a5e5" stop-opacity="1"/>
            <stop offset="1" stop-color="#e8f5ff" stop-opacity="1"/>
        </linearGradient>
        <path id="path7" fill="url(#linearGradient8)" stroke="none" d="M 7525.63623 835.596863 C 7490.460449 728.023804 7393.760254 650.893433 7280.175293 650.893433 C 7136.786621 650.893433 7020.515625 773.943848 7020.515625 925.646179 C 7020.515625 1077.476318 7136.786621 1200.526733 7280.175293 1200.526733 C 7378.410645 1200.526733 7463.85498 1142.838867 7507.984375 1057.778076 C 7537.531738 1000.729797 7545.590332 896.738281 7525.63623 835.596863 M 7721.723633 509.168213 L 7721.723633 1301.576416 C 7721.723633 1654.610474 7295.268555 1782.64917 7020.131836 1645.784546 C 6972.293457 1621.993164 6925.222168 1587.329346 6880.453613 1537.316162 L 6990.072754 1431.278076 C 7070.400879 1521.199341 7285.803223 1617.772217 7456.052734 1471.825806 C 7504.914063 1429.870972 7524.996582 1361.182861 7524.996582 1287.889893 L 7524.996582 1223.806519 C 7450.936035 1304.64624 7347.200195 1354.915161 7232.464355 1354.915161 C 7007.34082 1354.915161 6824.684082 1161.641846 6824.684082 923.087891 C 6824.684082 684.661987 7007.213379 491.26062 7232.464355 491.26062 C 7357.049316 491.26062 7468.459961 550.355469 7543.287598 643.602539 L 7543.287598 509.55188 L 7721.723633 509.168213 Z"/>
        <linearGradient id="linearGradient9" x1="7836.587448" y1="503.412195" x2="7836.587448" y2="1693.372753" gradientUnits="userSpaceOnUse">
            <stop offset="1e-05" stop-color="#9dd8f7" stop-opacity="1"/>
            <stop offset="0.35" stop-color="#b8a5e5" stop-opacity="1"/>
            <stop offset="1" stop-color="#e8f5ff" stop-opacity="1"/>
        </linearGradient>
        <path id="path8" fill="url(#linearGradient9)" stroke="none" d="M 8746.417969 506.354126 L 8334.033203 1489.349609 C 8262.53125 1659.854858 8048.279785 1745.043579 7893.124023 1660.110596 L 7930.72998 1506.873291 C 8000.185547 1559.188965 8137.562012 1555.351563 8175.807617 1422.324219 L 8194.482422 1357.345459 L 7836.587402 505.58667 L 8029.093262 506.226196 L 8291.695313 1169.828125 L 8546.365234 503.412231 L 8746.417969 506.354126 Z"/>
        <linearGradient id="linearGradient10" x1="5787.838256" y1="485.504666" x2="5787.838256" y2="1397.893253" gradientUnits="userSpaceOnUse">
            <stop offset="1e-05" stop-color="#9dd8f7" stop-opacity="1"/>
            <stop offset="0.35" stop-color="#b8a5e5" stop-opacity="1"/>
            <stop offset="1" stop-color="#e8f5ff" stop-opacity="1"/>
        </linearGradient>
        <path id="path9" fill="url(#linearGradient10)" stroke="none" d="M 6250.236328 1231.864868 C 6198.176758 1231.864868 6150.59375 1219.20166 6107.487305 1194.514893 C 6064.253906 1169.572266 6030.357422 1134.908447 6005.415039 1090.267456 C 5980.855957 1045.37085 5968.448242 995.229614 5968.448242 939.844299 C 5968.448242 885.226257 5980.855957 835.852722 6005.158691 791.723389 C 6029.717773 747.849976 6063.742188 713.441895 6107.231934 688.49939 C 6150.46582 663.556641 6198.176758 651.149292 6250.236328 651.149292 C 6302.295898 651.149292 6350.262695 663.556641 6393.496582 688.49939 C 6436.730469 713.441895 6470.626953 747.849976 6495.313477 791.46759 C 6519.872559 835.341064 6532.151855 884.714661 6532.151855 939.844299 C 6532.151855 995.485535 6519.744629 1045.882446 6495.186035 1090.267456 C 6470.626953 1134.908447 6436.602539 1169.572266 6393.368652 1194.514893 C 6349.878906 1219.32959 6302.295898 1231.864868 6250.236328 1231.864868 M 6250.236328 1397.893311 C 6339.518066 1397.637451 6419.078613 1377.42749 6489.045898 1337.007568 C 6559.013184 1296.587891 6613.887207 1241.714111 6653.283691 1172.130493 C 6692.679688 1102.802734 6712.634277 1025.288818 6712.634277 939.972107 C 6712.634277 855.167236 6692.936035 778.548584 6653.539063 709.220947 C 6614.143066 640.148926 6559.524902 585.531006 6489.301758 545.622803 C 6419.078613 505.45874 6339.645996 485.504639 6250.236328 485.504639 C 6161.210449 485.504639 6081.649414 505.45874 6011.426758 545.622803 C 5941.203125 585.531006 5886.585449 640.148926 5847.188965 709.476685 C 5807.536621 778.804382 5787.838379 855.423035 5787.838379 939.972107 C 5787.838379 1025.032959 5807.79248 1102.546875 5847.188965 1171.874756 C 5886.841309 1241.458252 5941.714844 1296.587891 6011.682129 1337.007568 C 6081.649414 1377.42749 6161.082031 1397.637451 6250.236328 1397.893311 Z"/>
        <linearGradient id="linearGradient11" x1="5787.838256" y1="485.504666" x2="5787.838256" y2="1397.893253" gradientUnits="userSpaceOnUse">
            <stop offset="1e-05" stop-color="#9dd8f7" stop-opacity="1"/>
            <stop offset="0.35" stop-color="#b8a5e5" stop-opacity="1"/>
            <stop offset="1" stop-color="#e8f5ff" stop-opacity="1"/>
        </linearGradient>
        <path id="path10" fill="url(#linearGradient11)" stroke="none" d="M 6250.236328 1231.864868 C 6198.176758 1231.864868 6150.59375 1219.20166 6107.487305 1194.514893 C 6064.253906 1169.572266 6030.357422 1134.908447 6005.415039 1090.267456 C 5980.855957 1045.37085 5968.448242 995.229614 5968.448242 939.844299 C 5968.448242 885.226257 5980.855957 835.852722 6005.158691 791.723389 C 6029.717773 747.849976 6063.742188 713.441895 6107.231934 688.49939 C 6150.46582 663.556641 6198.176758 651.149292 6250.236328 651.149292 C 6302.295898 651.149292 6350.262695 663.556641 6393.496582 688.49939 C 6436.730469 713.441895 6470.626953 747.849976 6495.313477 791.46759 C 6519.872559 835.341064 6532.151855 884.714661 6532.151855 939.844299 C 6532.151855 995.485535 6519.744629 1045.882446 6495.186035 1090.267456 C 6470.626953 1134.908447 6436.602539 1169.572266 6393.368652 1194.514893 C 6349.878906 1219.32959 6302.295898 1231.864868 6250.236328 1231.864868 M 6250.236328 1397.893311 C 6339.518066 1397.637451 6419.078613 1377.42749 6489.045898 1337.007568 C 6559.013184 1296.587891 6613.887207 1241.714111 6653.283691 1172.130493 C 6692.679688 1102.802734 6712.634277 1025.288818 6712.634277 939.972107 C 6712.634277 855.167236 6692.936035 778.548584 6653.539063 709.220947 C 6614.143066 640.148926 6559.524902 585.531006 6489.301758 545.622803 C 6419.078613 505.45874 6339.645996 485.504639 6250.236328 485.504639 C 6161.210449 485.504639 6081.649414 505.45874 6011.426758 545.622803 C 5941.203125 585.531006 5886.585449 640.148926 5847.188965 709.476685 C 5807.536621 778.804382 5787.838379 855.423035 5787.838379 939.972107 C 5787.838379 1025.032959 5807.79248 1102.546875 5847.188965 1171.874756 C 5886.841309 1241.458252 5941.714844 1296.587891 6011.682129 1337.007568 C 6081.649414 1377.42749 6161.082031 1397.637451 6250.236328 1397.893311 Z"/>
    </g>
    <linearGradient id="linearGradient12" x1="143.101818" y1="164.581789" x2="143.101818" y2="1419.418211" gradientUnits="userSpaceOnUse">
        <stop offset="1e-05" stop-color="#9dd8f7" stop-opacity="1"/>
        <stop offset="0.35" stop-color="#b8a5e5" stop-opacity="1"/>
        <stop offset="1" stop-color="#e8f5ff" stop-opacity="1"/>
    </linearGradient>
    <path id="Path-copy" fill="url(#linearGradient12)" fill-rule="evenodd" stroke="none" d="M 1007.189087 703.563599 L 743 511.621826 L 478.810852 703.563599 L 579.712708 1014.094482 L 906.30188 1014.094482 L 1007.189087 703.563599 L 1007.189087 703.563599 Z M 1035.421753 672.378174 L 763.945435 475.141846 L 763.945435 164.581787 L 1113.778198 278.254517 L 1330.054565 575.927246 L 1035.421753 672.378174 L 1035.421753 672.378174 Z M 1342.898071 615.723633 L 1342.898071 983.578247 L 1126.650879 1281.236328 L 944.629089 1031.432617 L 1048.381836 712.130859 L 1342.898071 615.723633 L 1342.898071 615.723633 Z M 1092.905396 1305.716309 L 910.941895 1055.985474 L 575.058167 1055.985474 L 393.094543 1305.716309 L 743 1419.418213 L 1092.905396 1305.716309 L 1092.905396 1305.716309 Z M 359.363647 1281.236328 L 143.101822 983.578247 L 143.101822 615.723633 L 437.632721 712.130859 L 541.370911 1031.432617 L 359.363647 1281.236328 L 359.363647 1281.236328 Z M 155.945465 575.927246 L 372.221832 278.254517 L 722.054565 164.581787 L 722.054565 475.141846 L 450.578186 672.378174 L 155.945465 575.927246 Z"/>
</svg>
