<svg width="7168" height="1600" viewBox="0 0 560.39 125.01" xmlns="http://www.w3.org/2000/svg">
  <defs>
    <!-- Main iridescent gradient: soft pastel holographic flow -->
    <linearGradient id="logoGradient" x1="0%" y1="0%" x2="0%" y2="100%">
      <stop offset="0%" style="stop-color:#9DD8F7"/>
      <stop offset="35%" style="stop-color:#B8A5E5"/>
      <stop offset="100%" style="stop-color:#E8F5FF"/>
    </linearGradient>
  </defs>

  <!-- Main letters -->
  <g fill="url(#logoGradient)">
    <polygon points="90.64,3.36 51.79,99.48 37.81,99.48 0,3.12 16.57,3.1 45.22,80.08 74.31,3.31 		"/>
    <path d="M100.16,31.7h14.48v67.78h-14.48V31.7z M107.4,20.33
			c-2.53,0-4.66-0.87-6.36-2.59c-1.72-1.74-2.57-3.96-2.57-6.64c0-2.59,0.85-4.76,2.55-6.48C102.74,2.87,104.86,2,107.4,2
			c2.53,0,4.64,0.87,6.36,2.61c1.7,1.74,2.57,3.91,2.57,6.48c0,2.66-0.87,4.87-2.57,6.62C112.04,19.46,109.93,20.33,107.4,20.33z"/>
    <path d="M147.23,64.5l-0.02,2.4
			c0.48,12.08,9.62,21.72,20.82,21.72c11.51,0,20.84-10.17,20.84-22.71s-9.33-22.71-20.84-22.71
			C156.95,43.2,147.9,52.62,147.23,64.5 M147.06,99.65H132.2V3.42l15.42,0.36c0,12.73-0.09,25.45-0.19,38.18
			C153.41,34.62,162.14,30,171.85,30c18.07,0,32.71,15.98,32.71,35.69c0,19.71-14.65,35.69-32.71,35.69
			c-9.9,0-18.77-4.8-24.77-12.38C147.07,92.55,147.06,96.1,147.06,99.65z"/>
    <path d="M249.78,88.45c4.07,0,7.79-0.99,11.16-2.92
			c3.38-1.95,6.03-4.66,7.98-8.15c1.92-3.51,2.89-7.43,2.89-11.76c0-4.27-0.97-8.13-2.87-11.58c-1.92-3.43-4.58-6.12-7.98-8.07
			c-3.38-1.95-7.11-2.92-11.18-2.92c-4.07,0-7.82,0.97-11.2,2.92c-3.38,1.95-6.03,4.64-7.96,8.05c-1.92,3.43-2.88,7.29-2.88,11.6
			c0,4.35,0.97,8.29,2.89,11.76c1.92,3.49,4.58,6.2,7.96,8.15C241.98,87.47,245.71,88.45,249.78,88.45 M249.78,101.43
			c-6.98-0.02-13.2-1.6-18.67-4.76c-5.47-3.16-9.76-7.45-12.84-12.89c-3.08-5.42-4.64-11.48-4.64-18.15
			c0-6.63,1.54-12.62,4.62-18.04c3.08-5.4,7.35-9.67,12.84-12.79c5.49-3.14,11.7-4.7,18.69-4.7c6.96,0,13.18,1.56,18.67,4.7
			c5.49,3.12,9.76,7.39,12.84,12.81c3.1,5.42,4.64,11.41,4.64,18.02c0,6.65-1.56,12.71-4.64,18.13c-3.1,5.44-7.39,9.75-12.86,12.91
			C262.96,99.83,256.74,101.41,249.78,101.43z"/>
    <path d="M249.78,88.45c4.07,0,7.79-0.99,11.16-2.92
			c3.38-1.95,6.03-4.66,7.98-8.15c1.92-3.51,2.89-7.43,2.89-11.76c0-4.27-0.97-8.13-2.87-11.58c-1.92-3.43-4.58-6.12-7.98-8.07
			c-3.38-1.95-7.11-2.92-11.18-2.92c-4.07,0-7.82,0.97-11.2,2.92c-3.38,1.95-6.03,4.64-7.96,8.05c-1.92,3.43-2.88,7.29-2.88,11.6
			c0,4.35,0.97,8.29,2.89,11.76c1.92,3.49,4.58,6.2,7.96,8.15C241.98,87.47,245.71,88.45,249.78,88.45 M249.78,101.43
			c-6.98-0.02-13.2-1.6-18.67-4.76c-5.47-3.16-9.76-7.45-12.84-12.89c-3.08-5.42-4.64-11.48-4.64-18.15
			c0-6.63,1.54-12.62,4.62-18.04c3.08-5.4,7.35-9.67,12.84-12.79c5.49-3.14,11.7-4.7,18.69-4.7c6.96,0,13.18,1.56,18.67,4.7
			c5.49,3.12,9.76,7.39,12.84,12.81c3.1,5.42,4.64,11.41,4.64,18.02c0,6.65-1.56,12.71-4.64,18.13c-3.1,5.44-7.39,9.75-12.86,12.91
			C262.96,99.83,256.74,101.41,249.78,101.43z"/>
    <path d="M313.49,3.42v79.67c0,1.82,0.44,3.15,1.3,3.95
			c0.86,0.8,2.06,1.19,3.59,1.19c1.4,0,3.45-0.4,6.19-1.23l0.58,11.98c-6.52,2.88-16.83,4.38-22.4-1.14
			c-2.93-2.9-4.42-6.84-4.4-11.82l0.35-82.51L313.49,3.42z"/>
    <path d="M313.49,3.42v79.67c0,1.82,0.44,3.15,1.3,3.95
			c0.86,0.8,2.06,1.19,3.59,1.19c1.4,0,3.45-0.4,6.19-1.23l0.58,11.98c-6.52,2.88-16.83,4.38-22.4-1.14
			c-2.93-2.9-4.42-6.84-4.4-11.82l0.35-82.51L313.49,3.42z"/>
    <path d="M462.95,57.47c-2.75-8.41-10.31-14.44-19.19-14.44
			c-11.21,0-20.3,9.62-20.3,21.48c0,11.87,9.09,21.49,20.3,21.49c7.68,0,14.36-4.51,17.81-11.16
			C463.88,70.38,464.51,62.25,462.95,57.47 M478.28,31.95V93.9c0,27.6-33.34,37.61-54.85,26.91c-3.74-1.86-7.42-4.57-10.92-8.48
			l8.57-8.29c6.28,7.03,23.12,14.58,36.43,3.17c3.82-3.28,5.39-8.65,5.39-14.38v-5.01c-5.79,6.32-13.9,10.25-22.87,10.25
			c-17.6,0-31.88-15.11-31.88-33.76c0-18.64,14.27-33.76,31.88-33.76c9.74,0,18.45,4.62,24.3,11.91V31.98L478.28,31.95z"/>
    <path d="M558.39,31.73l-32.24,76.85
			c-5.59,13.33-22.34,19.99-34.47,13.35l2.94-11.98c5.43,4.09,16.17,3.79,19.16-6.61l1.46-5.08l-27.98-66.59l15.05,0.05l20.53,51.88
			l19.91-52.1L558.39,31.73z"/>
    <path d="M363.24,88.45c-4.07,0-7.79-0.99-11.16-2.92
			c-3.38-1.95-6.03-4.66-7.98-8.15c-1.92-3.51-2.89-7.43-2.89-11.76c0-4.27,0.97-8.13,2.87-11.58c1.92-3.43,4.58-6.12,7.98-8.07
			c3.38-1.95,7.11-2.92,11.18-2.92c4.07,0,7.82,0.97,11.2,2.92c3.38,1.95,6.03,4.64,7.96,8.05c1.92,3.43,2.88,7.29,2.88,11.6
			c0,4.35-0.97,8.29-2.89,11.76c-1.92,3.49-4.58,6.2-7.96,8.15C371.03,87.47,367.31,88.45,363.24,88.45 M363.24,101.43
			c6.98-0.02,13.2-1.6,18.67-4.76c5.47-3.16,9.76-7.45,12.84-12.89c3.08-5.42,4.64-11.48,4.64-18.15c0-6.63-1.54-12.62-4.62-18.04
			c-3.08-5.4-7.35-9.67-12.84-12.79c-5.49-3.14-11.7-4.7-18.69-4.7c-6.96,0-13.18,1.56-18.67,4.7c-5.49,3.12-9.76,7.39-12.84,12.81
			c-3.1,5.42-4.64,11.41-4.64,18.02c0,6.65,1.56,12.71,4.64,18.13c3.1,5.44,7.39,9.75,12.86,12.91
			C350.06,99.83,356.27,101.41,363.24,101.43z"/>
    <path d="M363.24,88.45c-4.07,0-7.79-0.99-11.16-2.92
			c-3.38-1.95-6.03-4.66-7.98-8.15c-1.92-3.51-2.89-7.43-2.89-11.76c0-4.27,0.97-8.13,2.87-11.58c1.92-3.43,4.58-6.12,7.98-8.07
			c3.38-1.95,7.11-2.92,11.18-2.92c4.07,0,7.82,0.97,11.2,2.92c3.38,1.95,6.03,4.64,7.96,8.05c1.92,3.43,2.88,7.29,2.88,11.6
			c0,4.35-0.97,8.29-2.89,11.76c-1.92,3.49-4.58,6.2-7.96,8.15C371.03,87.47,367.31,88.45,363.24,88.45 M363.24,101.43
			c6.98-0.02,13.2-1.6,18.67-4.76c5.47-3.16,9.76-7.45,12.84-12.89c3.08-5.42,4.64-11.48,4.64-18.15c0-6.63-1.54-12.62-4.62-18.04
			c-3.08-5.4-7.35-9.67-12.84-12.79c-5.49-3.14-11.7-4.7-18.69-4.7c-6.96,0-13.18,1.56-18.67,4.7c-5.49,3.12-9.76,7.39-12.84,12.81
			c-3.1,5.42-4.64,11.41-4.64,18.02c0,6.65,1.56,12.71,4.64,18.13c3.1,5.44,7.39,9.75,12.86,12.91
			C350.06,99.83,356.27,101.41,363.24,101.43z"/>
  </g>
</svg>
