<?xml version="1.0" encoding="UTF-8"?>
<!-- Generated by Pixelmator Pro 3.7.1 -->
<svg width="110" height="110" viewBox="0 0 110 110" xmlns="http://www.w3.org/2000/svg">
    <path id="Path" fill="#000000" fill-rule="evenodd" stroke="none" d="M 73.163002 48.919998 L 55 35.723999 L 36.836998 48.919998 L 43.773998 70.268997 L 66.227005 70.268997 L 73.163002 48.919998 L 73.163002 48.919998 Z M 75.103996 46.776001 L 56.439999 33.216003 L 56.439999 11.864998 L 80.490997 19.68 L 95.360001 40.145004 L 75.103996 46.776001 L 75.103996 46.776001 Z M 96.242996 42.880997 L 96.242996 68.171005 L 81.375999 88.635002 L 68.862 71.460999 L 75.995003 49.509003 L 96.242996 42.880997 L 96.242996 42.880997 Z M 79.056 90.318001 L 66.546005 73.149002 L 43.453999 73.149002 L 30.944 90.318001 L 55 98.135002 L 79.056 90.318001 L 79.056 90.318001 Z M 28.625 88.635002 L 13.757 68.171005 L 13.757 42.880997 L 34.006001 49.509003 L 41.138 71.460999 L 28.625 88.635002 L 28.625 88.635002 Z M 14.64 40.145004 L 29.509001 19.68 L 53.560001 11.864998 L 53.560001 33.216003 L 34.896 46.776001 L 14.64 40.145004 Z"/>
    <text id="Created-by-Proicon" visibility="hidden" xml:space="preserve" x="6" y="127" font-family="Helvetica" font-size="5" fill="#000000">Created by Proicon</text>
    <text id="from-Noun-Project" visibility="hidden" xml:space="preserve" x="6" y="132" font-family="Helvetica" font-size="5" fill="#000000">from Noun Project</text>
</svg>
