<?xml version="1.0" encoding="UTF-8"?>
<svg width="1200pt" height="1200pt" version="1.1" viewBox="0 0 1200 1200" xmlns="http://www.w3.org/2000/svg">
 <path d="m915.01 165.6 6.0664-3.6055 218.45 367.48-6.0664 3.6055z"/>
 <path d="m291.68 773.14c-0.98438-1.6914-0.34766-3.8398 1.3438-4.8008 1.6914-0.96094 3.8516-0.35938 4.8008 1.3438 0.96094 1.6914 0.35938 3.8398-1.3438 4.8008-0.5625 0.3125-1.1641 0.45703-1.7266 0.45703-1.2383 0-2.4375-0.625-3.0742-1.8008zm-9.9102-4.4414c-1.3086-1.4531-1.1641-3.6719 0.28906-4.9805s3.6719-1.1992 4.9805 0.25391c1.3086 1.4766 1.1992 3.707-0.25391 5.0039-0.67187 0.60156-1.5117 0.88672-2.3633 0.88672-0.99609 0-1.9453-0.38281-2.6523-1.1641zm22.223-2.4727c-0.94922-1.6914-0.34766-3.8398 1.3438-4.8008s3.8398-0.32422 4.8008 1.3789c0.94922 1.6914 0.34766 3.8398-1.3438 4.8008-0.5625 0.27734-1.1641 0.45703-1.7266 0.45703-1.2383 0-2.4375-0.67188-3.0742-1.8359zm12.312-6.875c-0.96094-1.6914-0.35938-3.8398 1.3438-4.8008 1.6914-0.96094 3.8398-0.35938 4.8008 1.3438 0.94922 1.7266 0.34766 3.875-1.3438 4.8359-0.5625 0.28906-1.1289 0.42188-1.7266 0.42188-1.2383 0-2.4375-0.63672-3.0742-1.8008zm-43.957-1.1289c-1.3438-1.4531-1.1992-3.6719 0.25391-4.9805 1.4414-1.3086 3.6602-1.1992 4.9688 0.25391 1.3086 1.4414 1.1992 3.707-0.23828 5.0039-0.67188 0.60156-1.5234 0.88672-2.3633 0.88672-0.96484 0-1.9492-0.38281-2.6211-1.1641zm56.281-5.7461c-0.96094-1.6914-0.35937-3.8516 1.3438-4.8008 1.6914-0.96094 3.8398-0.34766 4.8008 1.3438 0.96094 1.6914 0.35938 3.8398-1.3438 4.8008-0.5625 0.3125-1.1641 0.45703-1.7266 0.45703-1.25 0-2.4492-0.67188-3.0742-1.8008zm-65.738-4.7305c-1.3086-1.4414-1.1992-3.6719 0.23828-4.9688 1.4531-1.3086 3.6719-1.1992 4.9805 0.23828 1.3086 1.4531 1.1992 3.6719-0.25391 5.0039-0.67188 0.60156-1.5117 0.88672-2.3633 0.88672-0.94531 0.003906-1.9297-0.39062-2.6016-1.1602zm78.039-2.1836c-0.94922-1.6914-0.34766-3.8516 1.3438-4.8008 1.6914-0.96094 3.8398-0.3125 4.8008 1.3789 0.96094 1.6914 0.35938 3.8398-1.3438 4.8008-0.5625 0.28906-1.1641 0.45703-1.7266 0.45703-1.2383-0.011719-2.4297-0.68359-3.0742-1.8359zm12.324-6.8867c-0.94922-1.6914-0.34766-3.8398 1.3438-4.8008 1.6914-0.94922 3.8398-0.34766 4.8008 1.3438 0.94922 1.7266 0.34766 3.8398-1.3438 4.8008-0.5625 0.3125-1.1289 0.45703-1.7266 0.45703-1.2383 0-2.4531-0.63672-3.0742-1.8008zm-99.816-1.4141c-1.3086-1.4531-1.1992-3.6719 0.25391-4.9805 1.4531-1.3086 3.6719-1.1992 4.9805 0.25391 1.3086 1.4531 1.1992 3.6719-0.25391 4.9805-0.67188 0.63672-1.5117 0.91016-2.3633 0.91016-0.96094 0-1.9102-0.38672-2.6172-1.1641zm112.12-5.4609c-0.96094-1.6914-0.34766-3.8398 1.3438-4.8008 1.6914-0.94922 3.8398-0.34766 4.8008 1.3438 0.94922 1.6914 0.34766 3.8516-1.3438 4.8008-0.5625 0.3125-1.1289 0.45703-1.7266 0.45703-1.2383 0-2.4375-0.67188-3.0742-1.8008zm-121.58-5.0156c-1.3086-1.4531-1.1992-3.6719 0.25391-4.9805 1.4414-1.3086 3.707-1.1992 5.0039 0.25391 1.2734 1.4531 1.1641 3.6719-0.28906 4.9805-0.67188 0.63672-1.5234 0.91016-2.3633 0.91016-0.94922 0-1.8984-0.38672-2.6055-1.1641zm133.89-1.9102c-0.96094-1.6914-0.35938-3.8398 1.3438-4.8008 1.6914-0.94922 3.8398-0.34766 4.8008 1.3438 0.96094 1.7266 0.35937 3.8867-1.3438 4.8359-0.5625 0.28906-1.1289 0.45703-1.7266 0.42188-1.2383 0-2.4375-0.625-3.0742-1.8008zm12.312-6.875c-0.94922-1.6914-0.34766-3.8398 1.3438-4.8008 1.7266-0.94922 3.8398-0.34766 4.8359 1.3438 0.92578 1.7266 0.32422 3.8398-1.3789 4.8008-0.5625 0.3125-1.1289 0.45703-1.7266 0.45703-1.2383 0-2.4375-0.63672-3.0742-1.8008zm-155.66-1.6914c-1.3086-1.4531-1.1992-3.6719 0.23828-4.9805 1.4531-1.3086 3.707-1.1992 5.0039 0.23828 1.3086 1.4531 1.1641 3.6719-0.28906 4.9805-0.67188 0.60156-1.5117 0.91016-2.3633 0.91016-0.93359 0.015625-1.8828-0.36719-2.5898-1.1484zm167.98-5.1836c-0.94922-1.7266-0.34766-3.875 1.3438-4.8359 1.6914-0.94922 3.8398-0.3125 4.8008 1.3789 0.94922 1.6914 0.34766 3.8398-1.3438 4.8008-0.52734 0.32422-1.1289 0.45703-1.7266 0.45703-1.2383 0-2.4375-0.67578-3.0742-1.8008zm-177.43-5.293c-1.3086-1.4531-1.1641-3.6719 0.28906-4.9805s3.6719-1.1992 4.9805 0.25391c1.3086 1.4531 1.1641 3.6719-0.28906 4.9805-0.67188 0.60156-1.5117 0.91016-2.3281 0.91016-0.98438 0-1.9414-0.38281-2.6523-1.1641zm189.75-1.6328c-0.96094-1.6914-0.34766-3.8398 1.3438-4.8008 1.7266-0.96094 3.875-0.35938 4.8008 1.3438 0.98437 1.7266 0.34766 3.875-1.3438 4.8359-0.52734 0.28906-1.1289 0.42188-1.7266 0.42188-1.2383 0-2.4375-0.625-3.0742-1.8008zm12.312-6.875c-0.96094-1.6914-0.35938-3.8398 1.3438-4.8008 1.7266-0.96094 3.875-0.35938 4.8008 1.3438 0.98437 1.6914 0.35937 3.8398-1.3438 4.8008-0.53125 0.3125-1.1289 0.45703-1.7305 0.45703-1.2344 0-2.4336-0.63672-3.0703-1.8008zm-211.48-1.9688c-1.3086-1.4531-1.1992-3.6719 0.25391-4.9805s3.6719-1.1992 4.9805 0.25391c1.3086 1.4531 1.1992 3.6719-0.25391 4.9805-0.67187 0.60156-1.5117 0.91016-2.3633 0.91016-0.99609 0-1.9453-0.39453-2.6172-1.1641zm223.79-4.9062c-0.94922-1.7266-0.34766-3.8867 1.3789-4.8359 1.6914-0.91016 3.8398-0.3125 4.8008 1.3789 0.96094 1.6914 0.32422 3.8398-1.3789 4.8008-0.52734 0.3125-1.1289 0.45703-1.7266 0.45703-1.2383-0.003906-2.4414-0.67578-3.0742-1.8008zm-233.25-5.582c-1.3086-1.4531-1.1992-3.707 0.25391-5.0039 1.4414-1.2734 3.6602-1.1641 4.9688 0.28906 1.3086 1.4414 1.1992 3.6719-0.23828 4.9688-0.67188 0.60156-1.5234 0.92578-2.3633 0.92578-0.96484-0.015625-1.9492-0.39844-2.6211-1.1797zm245.56-1.332c-0.94922-1.6914-0.34766-3.8516 1.3438-4.8008 1.7266-0.96094 3.8867-0.34766 4.8359 1.3438 0.91016 1.7266 0.3125 3.8398-1.3789 4.8359-0.52734 0.28906-1.1289 0.42188-1.7266 0.42188-1.2383 0-2.4297-0.63672-3.0742-1.8008zm12.32-6.8867c-0.94922-1.6914-0.34766-3.8398 1.3789-4.8008 1.6914-0.94922 3.8516-0.34766 4.8008 1.3438 0.94922 1.6914 0.34766 3.8398-1.3789 4.8008-0.52734 0.3125-1.1289 0.45703-1.6914 0.45703-1.2852 0-2.4844-0.63672-3.1094-1.8008zm-267.34-2.2578c-1.3086-1.4414-1.1992-3.707 0.23828-5.0039 1.4531-1.3086 3.6719-1.1641 4.9805 0.28906 1.3086 1.4531 1.1992 3.6719-0.25391 4.9805-0.67188 0.60156-1.5117 0.91016-2.3633 0.91016-0.93359-0.011719-1.8906-0.42969-2.6016-1.1758zm279.65-4.6172c-0.96094-1.7266-0.3125-3.875 1.3789-4.8359 1.6914-0.94922 3.8398-0.3125 4.8008 1.3789 0.94922 1.6914 0.3125 3.8516-1.3789 4.8008-0.52734 0.28906-1.1289 0.45703-1.6914 0.45703-1.25-0.003906-2.4492-0.67578-3.1094-1.8008zm-289.1-5.8945c-1.3086-1.4531-1.1992-3.6719 0.25391-4.9805 1.4531-1.3086 3.707-1.1641 4.9805 0.28906 1.3438 1.4531 1.1992 3.6719-0.25391 4.9805-0.67188 0.60156-1.5117 0.88672-2.3633 0.88672-0.96094-0.011719-1.9102-0.39453-2.6172-1.1758zm301.41-1.0195c-0.96094-1.6914-0.32422-3.8398 1.3789-4.8008 1.6914-0.94922 3.8398-0.34766 4.8008 1.3438 0.94922 1.7266 0.3125 3.8516-1.3789 4.8359-0.52734 0.28906-1.1289 0.42188-1.7266 0.42188-1.2031 0-2.4023-0.63672-3.0742-1.8008zm12.312-6.8867c-0.94922-1.7266-0.3125-3.8398 1.3789-4.8359 1.6914-0.91016 3.8398-0.3125 4.8008 1.3789 0.96094 1.6914 0.3125 3.8398-1.3789 4.8008-0.52734 0.3125-1.1289 0.45703-1.6914 0.45703-1.2383 0-2.4375-0.66016-3.1094-1.8008zm-323.18-2.5703c-1.3086-1.4531-1.1641-3.6719 0.25391-4.9805 1.4414-1.3086 3.707-1.1992 5.0039 0.23828 1.3086 1.4531 1.1641 3.707-0.28906 5.0156-0.67188 0.60156-1.5234 0.88672-2.3633 0.88672-0.9375 0.003906-1.8984-0.39062-2.6055-1.1602zm335.5-4.3438c-0.94922-1.6914-0.3125-3.8398 1.3789-4.8008 1.6914-0.94922 3.8516-0.34766 4.8008 1.3438 0.96094 1.7266 0.34766 3.875-1.3789 4.8359-0.52734 0.28906-1.1289 0.42188-1.6914 0.42188-1.2383 0-2.4375-0.63672-3.1094-1.8008zm-344.94-6.1445c-1.3086-1.4414-1.1641-3.6719 0.23828-4.9688 1.4766-1.3086 3.707-1.1992 5.0039 0.23828 1.3086 1.4531 1.1641 3.707-0.28906 5.0039-0.67188 0.60156-1.5117 0.88672-2.3281 0.88672-0.96875 0.019532-1.9297-0.37891-2.625-1.1602zm357.25-0.73047c-0.96094-1.6914-0.35938-3.8398 1.3789-4.8008 1.6914-0.96094 3.8398-0.35938 4.8008 1.3438 0.94922 1.6914 0.34766 3.8398-1.3789 4.8008-0.52734 0.32422-1.1289 0.45703-1.6914 0.45703-1.2383 0-2.4375-0.63672-3.1094-1.8008zm12.312-6.9219c-0.92578-1.6914-0.32422-3.8164 1.3789-4.8008 1.6914-0.92578 3.8398-0.32422 4.8008 1.3789 0.94922 1.6914 0.34766 3.8398-1.3438 4.8008-0.5625 0.3125-1.1641 0.45703-1.7266 0.45703-1.2383 0.011719-2.4375-0.66016-3.1094-1.8359zm-379.04-2.8203c-1.3086-1.4531-1.1641-3.6719 0.28906-4.9805 1.4531-1.3086 3.6719-1.1992 4.9805 0.25391 1.3086 1.4531 1.1992 3.707-0.25391 4.9805-0.70703 0.63672-1.5117 0.91016-2.3633 0.91016-0.98047 0-1.9414-0.38672-2.6523-1.1641zm391.38-4.0586c-0.98438-1.6914-0.35938-3.8398 1.3438-4.8008 1.6914-0.96094 3.8398-0.35938 4.8008 1.3438 0.96094 1.7266 0.35938 3.875-1.3789 4.8359-0.52734 0.28906-1.1289 0.42188-1.6914 0.42188-1.2383 0-2.4375-0.63672-3.0742-1.8008zm12.312-6.875c-0.94922-1.6914-0.34766-3.8867 1.3438-4.8008 1.6914-0.94922 3.8516-0.34766 4.8008 1.3438 0.96094 1.6914 0.34766 3.8398-1.3438 4.8008-0.5625 0.3125-1.1641 0.45703-1.7266 0.45703-1.2383 0-2.4414-0.63672-3.0742-1.8008zm-413.11 0.45703c-1.3086-1.4531-1.1992-3.6719 0.25391-4.9805 1.4531-1.3086 3.6719-1.1992 4.9805 0.25391 1.3086 1.4414 1.1992 3.707-0.25391 4.9688-0.67187 0.63672-1.5117 0.92578-2.3633 0.92578-0.94922-0.003906-1.9453-0.39062-2.6172-1.168zm425.43-7.3672c-0.94922-1.6914-0.34766-3.8516 1.3438-4.8008s3.8398-0.34766 4.8008 1.3789c0.94922 1.6914 0.34766 3.8516-1.3438 4.8008-0.5625 0.3125-1.1641 0.45703-1.7266 0.45703-1.2383-0.015626-2.4414-0.67188-3.0742-1.8359zm-434.87-3.1094c-1.3086-1.4531-1.1992-3.6719 0.25391-4.9805 1.4414-1.3086 3.6602-1.1992 4.9688 0.23828 1.3086 1.4531 1.1992 3.6719-0.23828 4.9805-0.67188 0.63672-1.5234 0.91016-2.3633 0.91016-0.96484 0.015626-1.9609-0.36719-2.6211-1.1484zm447.19-3.7812c-0.96094-1.6914-0.35938-3.8398 1.3438-4.8008 1.6914-0.94922 3.8398-0.34766 4.8008 1.3438 0.94922 1.7266 0.34766 3.8867-1.3438 4.8359-0.5625 0.28906-1.1641 0.42188-1.7266 0.42188-1.25 0-2.4492-0.63672-3.0742-1.8008zm12.277-6.875c-0.91016-1.6914-0.3125-3.8398 1.3789-4.8008 1.6914-0.94922 3.8398-0.34766 4.8008 1.3438 0.96094 1.6914 0.35938 3.8398-1.3438 4.8008-0.5625 0.3125-1.1641 0.45703-1.7266 0.45703-1.2383 0-2.4375-0.67188-3.1094-1.8008zm-468.92 0.17969c-1.3086-1.4531-1.1992-3.6719 0.23828-4.9805 1.4531-1.3086 3.6719-1.1992 5.0039 0.25391 1.2734 1.4531 1.1641 3.6719-0.28906 4.9805-0.67188 0.63672-1.5117 0.91016-2.3633 0.91016-0.93359 0-1.8945-0.38281-2.5898-1.1641zm-9.457-10.488c-1.3086-1.4531-1.1992-3.6719 0.25391-4.9805 1.4531-1.3086 3.707-1.1992 5.0039 0.25391 1.3086 1.4531 1.1641 3.6719-0.28906 4.9805-0.67188 0.60156-1.5117 0.91016-2.3633 0.91016-0.94922 0.011718-1.9102-0.38281-2.6055-1.1641zm481.76-1.9688c-1.9453-0.035156-3.4922-1.6562-3.457-3.6016 0.035157-1.9453 1.6562-3.4922 3.6016-3.457 1.9453 0.035156 3.4922 1.6562 3.457 3.6016s-1.6211 3.457-3.5273 3.457h-0.074218zm-491.22-8.5078c-1.3086-1.4531-1.1992-3.6719 0.25391-5.0039 1.4766-1.2734 3.707-1.1641 5.0039 0.28906 1.3086 1.4414 1.1641 3.6602-0.28906 4.9688-0.67188 0.60156-1.5234 0.92578-2.3633 0.92578-0.94922-0.015625-1.8984-0.39844-2.6055-1.1797zm491.5-5.6016c-1.9453-0.035156-3.4922-1.6328-3.457-3.6016 0.035156-1.9453 1.6562-3.4922 3.6016-3.4219 1.9453 0 3.4922 1.6211 3.457 3.5625-0.035156 1.9453-1.6211 3.457-3.5273 3.457-0.027344 0.003906-0.074218 0.003906-0.074218 0.003906zm-500.95-4.875c-1.3086-1.4414-1.1641-3.707 0.27734-5.0039 1.4531-1.3086 3.6719-1.1641 4.9805 0.28906 1.3086 1.4531 1.1992 3.6719-0.23828 4.9805-0.67188 0.60156-1.5234 0.91016-2.3633 0.91016-1-0.011719-1.957-0.39453-2.6562-1.1758zm501.24-9.2383c-1.9453-0.035156-3.4922-1.6328-3.457-3.6016 0.035156-1.9453 1.6211-3.4922 3.6016-3.457 1.9453 0.035157 3.4922 1.6562 3.457 3.6016-0.035156 1.9453-1.6211 3.457-3.5625 3.457zm-510.7-1.2344c-1.2734-1.4531-1.1641-3.707 0.28906-4.9805 1.4531-1.3438 3.6719-1.1992 4.9805 0.25391 1.3086 1.4531 1.1992 3.6719-0.25391 4.9805-0.67187 0.60156-1.5117 0.91016-2.3633 0.91016-0.96094 0-1.9453-0.39844-2.6523-1.1641zm-9.4219-10.516c-1.3086-1.4531-1.1992-3.6719 0.25391-4.9805s3.6719-1.1641 4.9805 0.28906c1.3086 1.4531 1.1992 3.6719-0.25391 4.9805-0.67188 0.60156-1.5117 0.88672-2.3633 0.88672-0.96094-0.011718-1.9453-0.40625-2.6172-1.1758zm520.39-2.3633c-1.9453-0.035156-3.4922-1.6328-3.457-3.6016 0.035156-1.9453 1.6211-3.4922 3.6016-3.457 1.9453 0.070312 3.4922 1.6562 3.4219 3.6367 0 1.9062-1.5859 3.4219-3.4922 3.4219h-0.074218zm-529.85-8.1094c-1.3086-1.4141-1.1992-3.6719 0.25391-4.9805 1.4414-1.3086 3.6602-1.1641 4.9688 0.28906 1.3438 1.4141 1.1992 3.6719-0.23828 4.9805-0.67188 0.60156-1.5234 0.91016-2.3633 0.91016-0.96484-0.011719-1.9102-0.43359-2.6211-1.1992zm530.14-5.9648c-1.9805-0.035156-3.4922-1.6562-3.4922-3.6016 0.070313-1.9805 1.6562-3.5273 3.6016-3.457 1.9805 0.035157 3.5273 1.6211 3.457 3.6016 0 1.9062-1.5859 3.457-3.4922 3.457h-0.074219zm0.25391-14.113c-1.9453-0.035156-3.457-1.6562-3.457-3.6016 0.070313-1.9805 1.6562-3.4922 3.6016-3.457 1.9805 0.035156 3.5273 1.6562 3.457 3.6016-0.035157 1.9062-1.5859 3.457-3.5273 3.457h-0.074219zm0.27344-14.113c-1.9453-0.035156-3.4922-1.6562-3.457-3.6016 0.070313-1.9453 1.6562-3.4922 3.6016-3.457 1.9805 0.035156 3.4922 1.6562 3.457 3.6016-0.035156 1.9062-1.5859 3.457-3.4922 3.457h-0.10938zm0.28906-14.109c-1.9453-0.035157-3.4922-1.6562-3.457-3.6016s1.6562-3.4922 3.6016-3.457c1.9453 0.035156 3.4922 1.6211 3.457 3.6016-0.035157 1.9062-1.6211 3.457-3.5273 3.457h-0.074219zm0.27734-14.125c-1.9453-0.035157-3.4922-1.6562-3.457-3.6016 0.035156-1.9453 1.6562-3.4922 3.6016-3.457 1.9453 0.035156 3.4922 1.6562 3.457 3.6016-0.035156 1.9062-1.5859 3.457-3.5273 3.457h-0.074219zm0.28516-14.113c-1.9453-0.035156-3.4922-1.6562-3.457-3.6016 0.035156-1.9453 1.6562-3.4922 3.6016-3.457 1.9453 0.035157 3.4922 1.6562 3.457 3.6016-0.035157 1.9453-1.6211 3.457-3.5273 3.457h-0.074219zm0.27734-14.109c-1.9453-0.035156-3.4922-1.6562-3.457-3.6016 0.035156-1.9453 1.6562-3.4922 3.6016-3.457 1.9453 0.035156 3.4922 1.6562 3.457 3.6016-0.035156 1.9453-1.6211 3.457-3.5273 3.457h-0.074219zm0.28906-14.113c-1.9453-0.035156-3.4922-1.6562-3.457-3.6016 0.035157-1.9453 1.6562-3.4922 3.6016-3.457 1.9453 0.035156 3.4922 1.6562 3.457 3.6016-0.035156 1.9453-1.6211 3.457-3.5273 3.457h-0.074219zm0.27734-14.113c-1.9453-0.035157-3.4922-1.6562-3.457-3.6016 0.035156-1.9453 1.6562-3.4922 3.6016-3.457 1.9453 0.035156 3.4922 1.6562 3.457 3.6016-0.035157 1.9453-1.6211 3.457-3.5273 3.457h-0.074219zm0.28516-14.109c-1.9453-0.035156-3.4922-1.6211-3.457-3.6016 0.035157-1.9453 1.6211-3.4922 3.6016-3.457 1.9453 0.035156 3.4922 1.6562 3.457 3.6016-0.035156 1.9453-1.6211 3.457-3.5625 3.457zm0.24219-14.113c-1.9453-0.035156-3.4922-1.6211-3.4219-3.6016 0.035156-1.9453 1.6211-3.4922 3.5625-3.457 1.9805 0.070312 3.4922 1.6562 3.457 3.6016-0.035156 1.9453-1.5859 3.457-3.4922 3.457h-0.10547zm0.28516-14.113c-1.9453-0.035156-3.4922-1.6211-3.4219-3.5625 0-1.9805 1.6211-3.5273 3.5625-3.457 1.9805 0.035156 3.4922 1.6211 3.457 3.5625-0.035156 1.9453-1.5859 3.457-3.5273 3.457h-0.070313zm0.28906-14.109c-1.9453 0-3.4922-1.6211-3.457-3.5625 0.035156-1.9805 1.6562-3.4922 3.6016-3.457s3.4922 1.6211 3.457 3.6016c-0.035156 1.9062-1.5859 3.4219-3.5273 3.4219-0.015626-0.003906-0.050782-0.003906-0.074219-0.003906zm0.27734-14.078c-1.9453-0.070312-3.4922-1.6562-3.457-3.6016 0.035157-1.9805 1.6562-3.4922 3.6016-3.457 1.9453 0.035156 3.4922 1.6211 3.457 3.6016-0.035156 1.9062-1.5859 3.457-3.5273 3.457h-0.074219zm0.27344-14.109c-1.9453-0.035156-3.4922-1.6562-3.457-3.6016 0.035156-1.9453 1.6562-3.4922 3.6016-3.457 1.9453 0.035157 3.4922 1.6211 3.457 3.6016-0.035156 1.9062-1.5859 3.457-3.5273 3.457h-0.074219zm0.28906-14.113c-1.9453-0.035156-3.4922-1.6562-3.457-3.6016 0.035157-1.9453 1.6562-3.4922 3.6016-3.457 1.9453 0.035157 3.4922 1.6562 3.457 3.6016-0.035156 1.9062-1.5859 3.457-3.5273 3.457h-0.074219zm0.27734-14.113c-1.9453-0.035156-3.4922-1.6562-3.457-3.6016 0.035156-1.9453 1.6562-3.4922 3.6016-3.457 1.9453 0.035156 3.4922 1.6562 3.457 3.6016-0.035157 1.9062-1.6211 3.457-3.5273 3.457h-0.074219zm0.28906-14.109c-1.9453-0.035157-3.4922-1.6562-3.457-3.6016 0.035156-1.9453 1.6211-3.4922 3.6016-3.457 1.9453 0.035156 3.4922 1.6562 3.457 3.6016-0.035156 1.9453-1.6211 3.457-3.5273 3.457h-0.074219zm0.27344-14.113c-1.9453-0.035157-3.4922-1.6562-3.457-3.6016s1.6211-3.4922 3.6016-3.457c1.9453 0.035156 3.4922 1.6562 3.457 3.6016-0.035157 1.9453-1.6211 3.457-3.5273 3.457h-0.074219zm0.28906-14.113c-1.9805-0.035156-3.4922-1.6562-3.457-3.6016 0.035156-1.9453 1.6211-3.4922 3.6016-3.457 1.9453 0.035157 3.4922 1.6562 3.4219 3.6016 0 1.9453-1.5859 3.457-3.4922 3.457h-0.074219zm0.28906-14.109c-1.9805-0.035156-3.4922-1.6562-3.4922-3.6016 0.070312-1.9453 1.6562-3.4922 3.6367-3.457 1.9453 0.035156 3.4922 1.6562 3.4219 3.6016-0.035157 1.9453-1.5859 3.457-3.4922 3.457h-0.074219zm0.023438-14.293c-0.45703-1.9062 0.74219-3.8164 2.6523-4.2344 1.9062-0.42188 3.7812 0.74219 4.2344 2.6523 0.42187 1.9062-0.78125 3.8164-2.6758 4.2344-0.25391 0.070313-0.52734 0.070313-0.78125 0.070313-1.6289-0.011719-3.0703-1.1016-3.4297-2.7227zm13.762-3.1445c-0.45703-1.9062 0.74219-3.7812 2.6523-4.1992 1.9062-0.45703 3.7812 0.74219 4.2344 2.6523 0.42188 1.9062-0.78125 3.8164-2.6875 4.2344-0.23828 0.035157-0.52734 0.070313-0.78125 0.070313-1.6172-0.011719-3.0703-1.1016-3.418-2.7578zm13.766-3.1094c-0.45703-1.9062 0.74219-3.7812 2.6523-4.2344 1.9062-0.42188 3.8164 0.78125 4.2344 2.6875 0.42188 1.9062-0.78125 3.7812-2.6758 4.1992-0.25391 0.070312-0.52734 0.10938-0.78125 0.10938-1.5938 0-3.082-1.1289-3.4297-2.7617zm13.75-3.0938c-0.42187-1.9062 0.74219-3.8047 2.6523-4.2344 1.9062-0.42188 3.8164 0.78125 4.2344 2.6758 0.42188 1.8711-0.78125 3.7812-2.6758 4.1992-0.25391 0.070313-0.49219 0.10938-0.78125 0.10938-1.5898-0.003906-3.0664-1.1328-3.4297-2.75zm13.766-3.1445c-0.42188-1.9062 0.78125-3.7812 2.6758-4.1992 1.8711-0.42188 3.7812 0.74219 4.1992 2.6523 0.42187 1.9062-0.78125 3.8047-2.6523 4.2344-0.27734 0.070313-0.52734 0.070313-0.80469 0.070313-1.582-0.011719-3.0352-1.1016-3.418-2.7578zm13.766-3.1094c-0.42187-1.9062 0.78125-3.7812 2.6758-4.1992 1.9062-0.45703 3.7812 0.74219 4.1992 2.6523 0.42188 1.9062-0.74219 3.7812-2.6523 4.2344-0.28906 0.035156-0.52734 0.070312-0.78125 0.070312-1.6055 0.003907-3.0586-1.1016-3.4414-2.7578zm13.75-3.0938c-0.42187-1.9062 0.78125-3.7812 2.6758-4.2344 1.8711-0.42188 3.7812 0.78125 4.1992 2.6758 0.45703 1.9062-0.74219 3.7812-2.6523 4.2344-0.28906 0.035157-0.52734 0.070313-0.78125 0.070313-1.6055 0-3.043-1.0898-3.4414-2.7461zm13.766-3.1094c-0.42188-1.9062 0.78125-3.8164 2.6875-4.2344 1.9062-0.42188 3.7695 0.78125 4.1992 2.6523 0.45703 1.9062-0.74219 3.8164-2.6523 4.2344-0.28906 0.070312-0.52734 0.10938-0.78125 0.10938-1.6172-0.015625-3.0703-1.1406-3.4531-2.7617zm13.801-3.1445c-0.45703-1.9062 0.74219-3.7812 2.6523-4.1992 1.9062-0.42188 3.7812 0.74219 4.2344 2.6523 0.42187 1.9062-0.78125 3.8164-2.6758 4.2344-0.25391 0.070312-0.52734 0.070312-0.78125 0.070312-1.6328 0.003906-3.082-1.1016-3.4297-2.7578zm13.75-3.1094c-0.45703-1.9062 0.74219-3.7812 2.6523-4.1992 1.9062-0.45703 3.8164 0.74219 4.2344 2.6523 0.42187 1.9062-0.78125 3.7812-2.6875 4.2344-0.23828 0.035156-0.52734 0.070312-0.78125 0.070312-1.6172 0.003907-3.0586-1.0898-3.418-2.7578zm13.766-3.0938c-0.42188-1.9062 0.74219-3.7812 2.6523-4.2344 1.9062-0.42188 3.8164 0.78125 4.2344 2.6875 0.42188 1.9062-0.78125 3.7812-2.6758 4.1992-0.25391 0.070313-0.52734 0.10938-0.78125 0.10938-1.5938-0.015626-3.082-1.1406-3.4297-2.7617zm13.762-3.1094c-0.42187-1.9062 0.78125-3.8164 2.6523-4.2344 1.9062-0.42188 3.8164 0.78125 4.2344 2.6758 0.42188 1.8711-0.78125 3.7812-2.6523 4.1992-0.28906 0.070312-0.52734 0.070312-0.81641 0.070312-1.582 0.003907-3.0703-1.0898-3.418-2.7109zm13.754-3.1445c-0.42188-1.8711 0.78125-3.7812 2.6758-4.1992 1.8711-0.45703 3.7812 0.74219 4.1992 2.6523 0.42188 1.9062-0.74219 3.8164-2.6523 4.2344-0.27734 0.035157-0.52734 0.070313-0.78125 0.070313-1.6055 0.003906-3.0586-1.1016-3.4414-2.7578zm13.762-3.0938c-0.42188-1.9062 0.78125-3.7812 2.6875-4.2344 1.8711-0.42188 3.7695 0.78125 4.1992 2.6758 0.42188 1.9062-0.74219 3.7812-2.6523 4.2344-0.28906 0.035156-0.52734 0.070312-0.78125 0.070312-1.6172 0-3.0664-1.0898-3.4531-2.7461zm13.766-3.1094c-0.42187-1.9062 0.78125-3.8047 2.6758-4.2344 1.9062-0.42187 3.7812 0.78125 4.1992 2.6758 0.45703 1.9062-0.74219 3.7812-2.6523 4.1992-0.28906 0.070313-0.52734 0.10938-0.78125 0.10938-1.6172 0-3.0586-1.1289-3.4414-2.75zm13.789-3.1094c-0.45703-1.9062 0.74219-3.8164 2.6523-4.2344 1.9062-0.42188 3.7695 0.78125 4.2344 2.6758 0.42188 1.8711-0.78125 3.7812-2.6875 4.1992-0.23828 0.070312-0.52734 0.070312-0.78125 0.070312-1.6211 0.003906-3.0703-1.0898-3.418-2.7109zm13.762-3.1406c-0.42188-1.8711 0.74219-3.7812 2.6523-4.1992 1.9062-0.42188 3.7812 0.74219 4.2344 2.6523 0.42188 1.9062-0.78125 3.7812-2.6758 4.2344-0.25391 0.035156-0.52734 0.070312-0.78125 0.070312-1.6289 0-3.082-1.0898-3.4297-2.7578zm13.754-3.0977c-0.42188-1.9062 0.74219-3.7812 2.6523-4.2344 1.9062-0.42188 3.8164 0.78125 4.2344 2.6758 0.42188 1.9062-0.78125 3.7812-2.6875 4.2344-0.23828 0.035157-0.52734 0.070313-0.78125 0.070313-1.6172 0.003906-3.0586-1.0898-3.418-2.7461zm13.762-3.1094c-0.42188-1.9062 0.78125-3.8164 2.6523-4.2344 1.8945-0.42188 3.8047 0.78125 4.2344 2.6875 0.42187 1.9062-0.74219 3.7812-2.6523 4.1992-0.28906 0.070312-0.52734 0.10938-0.80469 0.10938-1.5938-0.011719-3.043-1.1406-3.4297-2.7617zm13.766-3.1055c-0.42188-1.9062 0.78125-3.8164 2.6758-4.2344 1.8711-0.42187 3.7812 0.78125 4.1992 2.6875 0.42188 1.8711-0.78125 3.7812-2.6523 4.1992-0.28906 0.070313-0.52734 0.10938-0.81641 0.10938-1.5703-0.003906-3.0234-1.1289-3.4062-2.7617zm13.75-3.1328c-0.42188-1.9062 0.78125-3.7812 2.6758-4.1992 1.9062-0.42188 3.7812 0.74219 4.1992 2.6523 0.42188 1.9062-0.74219 3.8164-2.6523 4.2344-0.28906 0.035156-0.52734 0.070313-0.78125 0.070313-1.6055-0.011719-3.043-1.1016-3.4414-2.7578zm13.766-3.1094c-0.42188-1.9062 0.78125-3.7812 2.6875-4.2344 1.9062-0.42188 3.7695 0.78125 4.2344 2.6875 0.38281 1.9062-0.78125 3.7812-2.6758 4.1992-0.25391 0.070312-0.52734 0.10938-0.78125 0.10938-1.6289-0.011719-3.082-1.1406-3.4648-2.7617zm13.801-3.1055c-0.46875-1.9102 0.73047-3.8047 2.6406-4.2383 1.9062-0.42188 3.7812 0.78125 4.2344 2.6758 0.42188 1.9062-0.78125 3.7812-2.6758 4.1992-0.25391 0.070312-0.52734 0.10938-0.78125 0.10938-1.6289 0-3.0703-1.1289-3.418-2.7461z"/>
 <path d="m603.12 237.32c-1.9062-0.42188-3.1094-2.3281-2.6758-4.2344 0.42188-1.8711 2.3281-3.0703 4.2344-2.6523 1.8711 0.42188 3.0703 2.293 2.6523 4.1992-0.34766 1.6562-1.8008 2.7461-3.4219 2.7461-0.26172 0.011719-0.55078 0.011719-0.78906-0.058593zm-13.801-3.1094c-1.8711-0.42188-3.0703-2.293-2.6523-4.1992 0.42188-1.9062 2.293-3.1094 4.1992-2.6758 1.9062 0.42188 3.1094 2.3281 2.6758 4.2344-0.38281 1.6211-1.8359 2.7461-3.457 2.7461-0.23828 0.003907-0.47656-0.03125-0.76563-0.10547zm-13.766-3.0703c-1.9062-0.42188-3.1094-2.293-2.6523-4.1992 0.38281-1.9062 2.293-3.1094 4.1992-2.6875 1.9062 0.42188 3.1094 2.293 2.6758 4.1992-0.38281 1.6562-1.8359 2.7461-3.457 2.7461-0.23437 0.011719-0.47656 0.011719-0.76562-0.058594zm-13.75-3.0586c-1.9062-0.42188-3.1094-2.3281-2.6758-4.2344 0.42188-1.9062 2.3281-3.1094 4.2344-2.6523 1.8711 0.38281 3.0703 2.293 2.6523 4.1992-0.34766 1.6562-1.8359 2.7461-3.4219 2.7461-0.29688 0.011719-0.55078-0.023437-0.78906-0.058593zm-13.801-3.1094c-1.8711-0.42187-3.0703-2.293-2.6523-4.1992 0.42188-1.9062 2.293-3.1094 4.1992-2.6875 1.8945 0.42188 3.1094 2.293 2.6758 4.1992-0.38281 1.6562-1.8359 2.7852-3.457 2.7852-0.23828 0.011719-0.47656-0.027344-0.76562-0.097657zm-13.766-3.0742c-1.9062-0.42188-3.1094-2.3281-2.6758-4.2344 0.42188-1.9062 2.3281-3.0703 4.2344-2.6523 1.9062 0.42188 3.1094 2.293 2.6523 4.1992-0.34766 1.6211-1.8008 2.7461-3.4219 2.7461-0.24609 0.015624-0.5-0.019532-0.78906-0.058594zm-13.75-3.1055c-1.9062-0.42188-3.1094-2.293-2.6758-4.1992 0.42188-1.9062 2.3281-3.1094 4.2344-2.6875 1.8711 0.42188 3.0703 2.3281 2.6523 4.2344-0.34766 1.6211-1.8008 2.7461-3.4219 2.7461-0.26172 0.011719-0.55078-0.023437-0.78906-0.09375zm-13.801-3.0625c-1.8711-0.42188-3.0703-2.3281-2.6523-4.1992 0.42188-1.9062 2.293-3.1094 4.1992-2.6875s3.1094 2.293 2.6875 4.1992c-0.38281 1.6562-1.8359 2.7461-3.457 2.7461-0.25 0.003906-0.48828 0.003906-0.77734-0.058594zm-13.75-3.0703c-1.9062-0.45703-3.1094-2.3281-2.6758-4.2344 0.42188-1.9062 2.3281-3.1094 4.2344-2.6875 1.9062 0.42187 3.1094 2.3281 2.6758 4.2344-0.38281 1.6211-1.8359 2.7461-3.457 2.7461-0.25 0.011719-0.53906-0.023437-0.77734-0.058594zm-13.766-3.1094c-1.9062-0.42188-3.1094-2.293-2.6875-4.1992s2.3281-3.1094 4.2344-2.6875 3.0703 2.293 2.6523 4.1992c-0.34766 1.6562-1.8008 2.7852-3.4219 2.7852-0.25 0.011718-0.53906-0.023438-0.77734-0.097656zm-13.801-3.0703c-1.8711-0.42188-3.0703-2.3281-2.6523-4.2344 0.42188-1.9062 2.293-3.1094 4.1992-2.6523 1.9062 0.42188 3.1094 2.293 2.6875 4.1992-0.35938 1.6562-1.8359 2.7461-3.4219 2.7461-0.28516 0.011719-0.52344-0.023438-0.8125-0.058594zm-13.75-3.0977c-1.9062-0.42188-3.1094-2.293-2.6758-4.1992 0.42188-1.9062 2.3281-3.1094 4.2344-2.6875s3.1094 2.3281 2.6758 4.2344c-0.38281 1.6211-1.8359 2.7461-3.457 2.7461-0.25 0.003906-0.50391-0.03125-0.77734-0.09375zm-13.766-3.0703c-1.9062-0.42188-3.1094-2.3281-2.6875-4.1992 0.42188-1.9062 2.293-3.1094 4.1992-2.6758 1.9062 0.42188 3.1094 2.293 2.6758 4.1992-0.34766 1.6562-1.8008 2.7461-3.4219 2.7461-0.23828 0-0.51172-0.035157-0.76562-0.070313zm-13.762-3.1094c-1.9062-0.42188-3.1094-2.293-2.6758-4.1992 0.42188-1.9062 2.293-3.1094 4.1992-2.6875 1.9062 0.42188 3.1094 2.3281 2.6875 4.2344-0.35938 1.6211-1.8359 2.7461-3.4219 2.7461-0.29687 0.015625-0.53906-0.019531-0.78906-0.09375zm-13.789-3.0703c-1.9062-0.42188-3.0703-2.3281-2.6758-4.1992 0.42188-1.9062 2.3281-3.1094 4.2344-2.6758 1.9062 0.42188 3.1094 2.293 2.6758 4.1992-0.38281 1.6562-1.8359 2.7461-3.457 2.7461-0.25 0-0.53906 0-0.77734-0.070312zm-13.766-3.0742c-1.9062-0.45703-3.1094-2.3281-2.6875-4.2344 0.42188-1.9062 2.3281-3.1094 4.1992-2.6875 1.9062 0.42188 3.1094 2.3281 2.6758 4.2344-0.34766 1.6211-1.8008 2.7461-3.4219 2.7461-0.23828 0.015625-0.51172-0.019532-0.76563-0.058594zm-13.75-3.0938c-1.9062-0.42188-3.1094-2.293-2.6758-4.1992 0.42188-1.9062 2.293-3.1094 4.1992-2.6758 1.9062 0.42188 3.1094 2.3281 2.6875 4.1992-0.35938 1.6562-1.8359 2.7852-3.4219 2.7852-0.29688-0.003906-0.55078-0.039063-0.78906-0.10938zm-13.801-3.0742c-1.9062-0.42188-3.1094-2.3281-2.6758-4.2344 0.42188-1.9062 2.3281-3.1094 4.2344-2.6523 1.9062 0.42188 3.1094 2.293 2.6758 4.1992-0.38281 1.6562-1.8359 2.7461-3.457 2.7461-0.25 0.015625-0.5-0.019531-0.77734-0.058594zm-13.766-3.1055c-1.9062-0.42187-3.1094-2.293-2.6875-4.1992s2.3281-3.1094 4.1992-2.6758c1.9062 0.42188 3.1094 2.3281 2.6758 4.2344-0.34766 1.6211-1.8359 2.7461-3.4219 2.7461-0.27344 0-0.51172-0.035156-0.76562-0.10547zm-13.75-3.0742c-1.9062-0.42188-3.1094-2.3281-2.6758-4.1992 0.42188-1.9062 2.293-3.1094 4.1992-2.6758 1.9062 0.42188 3.1094 2.293 2.6875 4.1992-0.35938 1.6562-1.8359 2.7461-3.457 2.7461-0.26172 0.003906-0.51562 0.003906-0.75391-0.070312zm-13.801-3.0586c-1.9062-0.42188-3.1094-2.3281-2.6758-4.2344 0.45703-1.9062 2.3281-3.1094 4.2344-2.6758 1.9062 0.45703 3.1094 2.3281 2.6758 4.2344-0.38281 1.6562-1.8359 2.7461-3.457 2.7461-0.25 0-0.52344-0.035156-0.77734-0.070312zm-13.75-3.1094c-1.9062-0.42188-3.1094-2.293-2.6875-4.1992s2.3281-3.1094 4.1992-2.6758c1.9062 0.42188 3.1094 2.3281 2.6758 4.1992-0.34766 1.6562-1.8359 2.7852-3.457 2.7852-0.24219 0-0.49219-0.035156-0.73047-0.10938zm-13.766-3.0703c-1.9062-0.42187-3.1094-2.3281-2.6758-4.2344 0.42188-1.9062 2.293-3.0703 4.1992-2.6758 1.9062 0.45703 3.1094 2.3281 2.6875 4.2344-0.35938 1.6211-1.8359 2.7461-3.4219 2.7461-0.29687 0-0.55078-0.035156-0.78906-0.070313z"/>
 <path d="m825.26 111.47 3.668-6.0273 90.879 55.312-3.668 6.0273z"/>
 <path d="m385.74 1095.4c-0.60156-1.8711 0.45703-3.8398 2.3281-4.4141 1.8711-0.5625 3.8398 0.49219 4.4141 2.3281 0.5625 1.8711-0.49219 3.8398-2.3633 4.4141-0.3125 0.10938-0.67188 0.17969-1.0195 0.17969-1.5234 0-2.8906-0.98047-3.3594-2.5078zm-4.1484-13.512c-0.5625-1.8359 0.49219-3.8047 2.3633-4.4141 1.8711-0.5625 3.8164 0.49219 4.4141 2.3633 0.5625 1.8711-0.49219 3.8398-2.3633 4.4141-0.35938 0.10938-0.67188 0.13281-1.0195 0.13281-1.5234 0.011719-2.9062-0.93359-3.3945-2.4961zm-4.1289-13.477c-0.5625-1.8711 0.49219-3.8398 2.3633-4.4141 1.8711-0.5625 3.8164 0.49219 4.4141 2.3281 0.5625 1.8711-0.49219 3.8398-2.3633 4.4141-0.35938 0.10938-0.67188 0.17969-1.0195 0.17969-1.5234 0-2.9023-0.98047-3.3945-2.5078zm-4.1289-13.512c-0.5625-1.8359 0.49219-3.8164 2.3633-4.3789 1.8711-0.5625 3.8164 0.45703 4.4141 2.3281 0.5625 1.8711-0.49219 3.8398-2.3633 4.4141-0.35938 0.10938-0.67188 0.14453-1.0195 0.14453-1.5352 0-2.9023-0.94531-3.3945-2.5078zm-4.1289-13.473c-0.5625-1.8711 0.49219-3.8398 2.3633-4.4141 1.8359-0.5625 3.8164 0.45703 4.3672 2.3281 0.60156 1.8711-0.45703 3.8398-2.3281 4.4141-0.35938 0.10938-0.67188 0.17969-1.0195 0.17969-1.5234 0-2.9258-0.99609-3.3828-2.5078zm-4.1289-13.516c-0.5625-1.8359 0.49219-3.8164 2.3281-4.3789 1.8711-0.60156 3.8516 0.45703 4.4141 2.3281 0.60156 1.8711-0.45703 3.8164-2.3281 4.4141-0.35938 0.10938-0.67188 0.14453-1.0195 0.14453-1.5312 0-2.9375-0.94531-3.3945-2.5078zm-4.1367-13.473c-0.5625-1.8711 0.49219-3.8516 2.3281-4.4141 1.8711-0.5625 3.8398 0.49219 4.4141 2.3633 0.5625 1.8359-0.45703 3.8164-2.3281 4.4141-0.34766 0.10938-0.70703 0.14453-1.0195 0.14453-1.5234 0-2.9297-0.99609-3.3945-2.5078zm-4.1289-13.477c-0.5625-1.8711 0.45703-3.8398 2.3281-4.4141 1.8711-0.60156 3.8398 0.45703 4.4141 2.3281 0.5625 1.8711-0.45703 3.8398-2.3281 4.4141-0.34766 0.10938-0.70703 0.14453-1.0195 0.14453-1.5234 0-2.9258-0.96094-3.3945-2.4727zm-4.1172-13.512c-0.5625-1.8711 0.45703-3.8398 2.3281-4.4141 1.8711-0.5625 3.8398 0.49219 4.4141 2.3633 0.5625 1.8359-0.49219 3.8164-2.3281 4.4141-0.34766 0.070312-0.70703 0.14453-1.0195 0.14453-1.5352 0-2.9375-0.99609-3.3945-2.5078zm-4.1289-13.477c-0.5625-1.8711 0.45703-3.8398 2.3281-4.4141 1.8711-0.5625 3.8398 0.45703 4.4141 2.3281 0.5625 1.8711-0.49219 3.8398-2.3281 4.4141-0.34766 0.10938-0.70703 0.14453-1.0547 0.14453-1.4961-0.011718-2.9023-0.96094-3.3594-2.4727zm-4.125-13.512c-0.5625-1.8711 0.45703-3.8398 2.3281-4.4141 1.8711-0.5625 3.8398 0.49219 4.4141 2.3281 0.5625 1.8711-0.49219 3.8398-2.3281 4.4141-0.34766 0.10938-0.70703 0.17969-1.0547 0.17969-1.5-0.011719-2.9062-0.99609-3.3594-2.5078zm-4.1289-13.477c-0.60156-1.8711 0.45703-3.8398 2.3281-4.4141 1.8711-0.5625 3.8398 0.45703 4.4141 2.3281 0.5625 1.8711-0.49219 3.8398-2.3281 4.4141-0.34766 0.10938-0.70703 0.13281-1.0547 0.13281-1.5234 0-2.9023-0.94922-3.3594-2.4609zm-4.1289-13.512c-0.60156-1.8711 0.45703-3.8164 2.3281-4.4141 1.8711-0.5625 3.8398 0.49219 4.4141 2.3633 0.5625 1.8711-0.49219 3.8164-2.3281 4.3789-0.34766 0.10938-0.70703 0.17969-1.0547 0.17969-1.5352-0.011718-2.9023-0.99609-3.3594-2.5078zm-4.1289-13.488c-0.60156-1.8711 0.45703-3.8398 2.3281-4.4141 1.8711-0.5625 3.8398 0.45703 4.4141 2.3281 0.5625 1.8711-0.49219 3.8398-2.3633 4.4141-0.3125 0.10938-0.67188 0.14453-1.0195 0.14453-1.5352 0-2.9023-0.94922-3.3594-2.4727zm-4.1641-13.512c-0.5625-1.8711 0.49219-3.8164 2.3633-4.4141 1.8711-0.5625 3.8164 0.49219 4.4141 2.3633 0.5625 1.8711-0.49219 3.8398-2.3633 4.4141-0.32422 0.10938-0.67188 0.14453-1.0195 0.14453-1.5352 0-2.9023-0.98437-3.3945-2.5078zm-4.125-13.477c-0.5625-1.8711 0.49219-3.8398 2.3633-4.4141 1.8711-0.60156 3.8164 0.45703 4.4141 2.3281 0.5625 1.8711-0.49219 3.8398-2.3633 4.4141-0.32422 0.10938-0.67188 0.14453-1.0195 0.14453-1.5352 0-2.9023-0.94922-3.3945-2.4727zm-4.1289-13.512c-0.5625-1.8711 0.49219-3.8516 2.3633-4.4141s3.8047 0.49219 4.4141 2.3633c0.5625 1.8711-0.49219 3.8164-2.3633 4.4141-0.34766 0.10938-0.67188 0.14453-1.0195 0.14453-1.5234 0-2.9023-0.98438-3.3945-2.5078zm-4.1289-13.477c-0.5625-1.8711 0.49219-3.8398 2.3633-4.4141 1.8711-0.5625 3.8164 0.45703 4.3789 2.3281 0.60156 1.8711-0.45703 3.8398-2.3281 4.4141-0.34766 0.10938-0.67188 0.14453-1.0195 0.14453-1.5234 0-2.9375-0.96094-3.3945-2.4727zm-4.1289-13.512c-0.5625-1.8711 0.49219-3.8398 2.3633-4.4141 1.8711-0.5625 3.8164 0.49219 4.3789 2.3633 0.60156 1.8359-0.45703 3.8164-2.3281 4.4141-0.34766 0.10938-0.70703 0.14453-1.0195 0.14453-1.5234 0-2.9375-0.99609-3.3945-2.5078zm-4.1289-13.477c-0.5625-1.8711 0.49219-3.8398 2.3281-4.4141 1.8711-0.5625 3.8398 0.45703 4.4141 2.3281 0.60156 1.8711-0.45703 3.8398-2.3281 4.4141-0.34766 0.10938-0.70703 0.17969-1.0195 0.17969-1.5195-0.011719-2.9375-0.99609-3.3945-2.5078zm-4.125-13.512c-0.5625-1.8711 0.49219-3.8164 2.3281-4.4141 1.8711-0.5625 3.8398 0.49219 4.4141 2.3633 0.5625 1.8711-0.45703 3.8164-2.3281 4.3789-0.35938 0.13281-0.71875 0.16797-1.0664 0.16797-1.4766 0-2.8945-0.98438-3.3477-2.4961zm-4.1289-13.477c-0.5625-1.8711 0.49219-3.8398 2.3281-4.4141 1.8711-0.5625 3.8398 0.45703 4.4141 2.3281 0.5625 1.8711-0.45703 3.8398-2.3281 4.4141-0.34766 0.10938-0.70703 0.17969-1.0547 0.17969-1.4883-0.011718-2.9023-0.99609-3.3594-2.5078zm-4.1289-13.512c-0.5625-1.8359 0.45703-3.8164 2.3281-4.4141 1.8711-0.5625 3.8398 0.49219 4.4141 2.3633 0.5625 1.8711-0.45703 3.8398-2.3281 4.4141-0.34766 0.10938-0.70703 0.14453-1.0547 0.14453-1.4883-0.011719-2.9023-0.99609-3.3594-2.5078zm-4.1289-13.488c-0.5625-1.8711 0.45703-3.8398 2.3281-4.4141 1.8711-0.5625 3.8398 0.45703 4.4141 2.3281 0.5625 1.8711-0.49219 3.8398-2.3633 4.4141-0.32422 0.10938-0.67188 0.17969-1.0195 0.17969-1.5234 0-2.9023-0.98438-3.3594-2.5078zm626.74-6.418c-1.6914-0.98438-2.2578-3.1445-1.2734-4.8359 0.94922-1.6914 3.1094-2.2578 4.8008-1.3086 1.6914 0.98438 2.2578 3.1445 1.3086 4.8359-0.67188 1.1289-1.8359 1.7656-3.0703 1.7656-0.60156 0.007813-1.2031-0.13281-1.7656-0.45703zm-626.84-4.8984c-0.94922-1.6914-0.34766-3.8398 1.3438-4.8008 1.6914-0.94922 3.8398-0.34766 4.8008 1.3789 0.94922 1.6914 0.34766 3.8398-1.3438 4.8008-0.5625 0.28906-1.1289 0.42188-1.7266 0.42188-1.2383-0.011719-2.4375-0.63672-3.0742-1.8008zm636.57-0.46875c-1.4766-1.3086-1.5859-3.5273-0.27734-4.9805 1.2734-1.4531 3.4922-1.5859 4.9688-0.28906 1.4531 1.3086 1.5469 3.5273 0.28906 4.9805-0.70703 0.78125-1.6562 1.1641-2.6523 1.1641-0.83984 0.015624-1.6562-0.27344-2.3281-0.875zm-21.934-1.7266c-1.6914-0.94922-2.2578-3.1094-1.3086-4.8008 0.98437-1.6914 3.1445-2.2578 4.8359-1.3086 1.6914 0.98438 2.2578 3.1445 1.2734 4.8359-0.63672 1.1289-1.8359 1.7656-3.0352 1.7656-0.60156 0.011719-1.2031-0.16797-1.7656-0.49219zm-602.33-4.6914c-0.96094-1.6914-0.34766-3.8398 1.3438-4.8008 1.7266-0.96094 3.8398-0.35938 4.8008 1.3438 0.94922 1.6914 0.34766 3.8398-1.3438 4.8008-0.52734 0.32422-1.1289 0.45703-1.7266 0.45703-1.2383 0-2.4414-0.63672-3.0742-1.8008zm590.09-2.3633c-1.6562-0.98438-2.2578-3.1445-1.2734-4.8008 0.98438-1.6914 3.1445-2.293 4.8359-1.3086 1.6562 0.98438 2.2578 3.1445 1.2734 4.8008-0.63672 1.1641-1.8359 1.7656-3.0703 1.7656-0.60156-0.003907-1.1992-0.13281-1.7656-0.45703zm43.574-1.7305c-1.4531-1.3086-1.5859-3.5273-0.28906-5.0039 1.3086-1.4531 3.5273-1.5469 4.9805-0.23828 1.4766 1.2734 1.5859 3.5273 0.28906 4.9688-0.70703 0.78125-1.6562 1.1641-2.6172 1.1641-0.85156 0-1.6914-0.28906-2.3633-0.89062zm-621.35-2.8203c-0.96094-1.6914-0.35938-3.8398 1.3438-4.8008 1.6914-0.96094 3.875-0.32422 4.8008 1.3789 0.96094 1.6914 0.35937 3.8398-1.3438 4.8008-0.5625 0.3125-1.1289 0.45703-1.7266 0.45703-1.2383 0-2.4414-0.67188-3.0742-1.8359zm565.56-2.5078c-1.6914-0.98438-2.2578-3.1445-1.2734-4.8359 0.96094-1.6914 3.1094-2.2578 4.8008-1.2734 1.6914 0.94922 2.2578 3.1445 1.3086 4.8008-0.67188 1.1289-1.8359 1.7656-3.0703 1.7656-0.60156 0-1.2031-0.13281-1.7656-0.45703zm-553.25-4.3672c-0.94922-1.6914-0.34766-3.8398 1.3438-4.8008 1.7266-0.96094 3.8398-0.35938 4.8008 1.3438 0.96094 1.7266 0.35938 3.875-1.3438 4.8008-0.5625 0.3125-1.1289 0.45703-1.7266 0.45703-1.2383 0-2.4375-0.63672-3.0742-1.8008zm618.46-0.85156c-1.4766-1.2734-1.5859-3.4922-0.3125-4.9805 1.3086-1.4531 3.5625-1.5469 5.0039-0.28906 1.4531 1.3086 1.5859 3.5273 0.28906 4.9805-0.70703 0.80469-1.6562 1.1992-2.6523 1.1992-0.85156 0.015625-1.668-0.27344-2.3281-0.91016zm-77.41-1.8359c-1.6914-0.98438-2.2578-3.1445-1.2734-4.8359 0.96094-1.6914 3.1094-2.2578 4.8008-1.2734 1.6914 0.94922 2.2578 3.1094 1.2734 4.8008-0.63672 1.1289-1.8008 1.7656-3.0352 1.7656-0.60156 0-1.2031-0.13281-1.7656-0.45703zm-528.73-4.1992c-0.94922-1.7266-0.34766-3.8516 1.3438-4.8008 1.6914-0.96094 3.8398-0.34766 4.8359 1.3438 0.91016 1.6914 0.3125 3.8398-1.3789 4.8008-0.52734 0.3125-1.1289 0.45703-1.7266 0.45703-1.2383 0-2.4375-0.67188-3.0742-1.8008zm516.53-2.8906c-1.6914-0.96094-2.2578-3.1094-1.3086-4.8008 0.98438-1.6914 3.1445-2.2578 4.8359-1.3086 1.6914 0.98437 2.2578 3.1445 1.2734 4.8359-0.63672 1.1289-1.8359 1.7656-3.0352 1.7656-0.60156-0.003906-1.2344-0.13281-1.7656-0.49219zm99-1.5859c-1.4531-1.2734-1.5859-3.5273-0.28906-4.9805 1.3086-1.4531 3.5273-1.5859 5.0039-0.28906 1.4531 1.3086 1.5469 3.5273 0.28906 4.9805-0.70703 0.81641-1.6914 1.1992-2.6523 1.1992-0.83984 0.003907-1.6797-0.30859-2.3516-0.91016zm-603.21-2.4375c-0.96094-1.6914-0.34766-3.8516 1.3438-4.8008 1.7266-0.96094 3.875-0.3125 4.8008 1.3789 0.94922 1.6914 0.34766 3.8398-1.3438 4.8008-0.5625 0.28906-1.1289 0.42188-1.7266 0.42188-1.2383 0-2.4375-0.63672-3.0742-1.8008zm492.01-3.0352c-1.6914-0.96094-2.293-3.1445-1.3086-4.8008 0.98438-1.6914 3.1445-2.293 4.8008-1.3086 1.6914 0.98438 2.293 3.1445 1.3086 4.8359-0.63672 1.1289-1.8359 1.7656-3.0703 1.7656-0.61328 0-1.2148-0.16797-1.7305-0.49219zm-479.69-3.8398c-0.96094-1.6914-0.35938-3.8867 1.3438-4.8008 1.7266-0.94922 3.8398-0.34766 4.8008 1.3438s0.35938 3.8398-1.3438 4.8008c-0.52734 0.3125-1.1289 0.45703-1.7266 0.45703-1.25 0-2.4492-0.63672-3.0742-1.8008zm600.31-1.1992c-1.4766-1.3086-1.5859-3.5273-0.28906-4.9805 1.3086-1.4531 3.5273-1.5859 4.9805-0.28906 1.4531 1.3086 1.5859 3.5273 0.28906 4.9805-0.70703 0.78125-1.6562 1.1992-2.6523 1.1992-0.81641 0-1.6562-0.30859-2.3281-0.91016zm-132.88-2.0156c-1.6914-0.98438-2.2578-3.1445-1.2734-4.8359 0.94922-1.6562 3.1094-2.2578 4.8008-1.2734 1.6914 0.96094 2.2578 3.1445 1.3086 4.8008-0.67188 1.1641-1.8711 1.7656-3.0703 1.7656-0.60156 0-1.2031-0.13281-1.7656-0.45703zm-455.12-3.6953c-0.94922-1.6914-0.34766-3.8398 1.3438-4.8008 1.7266-0.94922 3.875-0.34766 4.8359 1.3789 0.92578 1.6914 0.32422 3.8516-1.3789 4.8008-0.52734 0.28906-1.1289 0.45703-1.7266 0.45703-1.2383-0.011718-2.4375-0.67188-3.0742-1.8359zm442.92-3.3594c-1.6914-0.98438-2.2578-3.1445-1.3086-4.8359 0.98438-1.6914 3.1445-2.2578 4.8359-1.2734 1.6914 0.96094 2.2578 3.1094 1.2734 4.8008-0.63672 1.1289-1.8359 1.7656-3.0352 1.7656-0.60156-0.003906-1.1992-0.13672-1.7656-0.45703zm154.46-1.4414c-1.4531-1.3086-1.5469-3.5273-0.25391-4.9805 1.2734-1.4766 3.4922-1.5859 4.9805-0.28906 1.4531 1.3086 1.5469 3.5273 0.28906 4.9805-0.70703 0.78125-1.6914 1.1641-2.6523 1.1641-0.85156 0-1.6914-0.27734-2.3633-0.875zm-585.07-2.0898c-0.94922-1.6914-0.34766-3.8398 1.3438-4.8008 1.7266-0.94922 3.8867-0.34766 4.8008 1.3438 0.94922 1.7266 0.34766 3.8516-1.3438 4.8008-0.52734 0.3125-1.1289 0.45703-1.7266 0.45703-1.2383 0-2.4375-0.63672-3.0742-1.8008zm418.4-3.5273c-1.6914-0.98438-2.2578-3.1445-1.3086-4.8359 0.98438-1.6914 3.1445-2.2578 4.8359-1.3086 1.6914 0.98438 2.2578 3.1445 1.2734 4.8359-0.63672 1.1289-1.8359 1.7656-3.0703 1.7656-0.60156 0-1.2031-0.13281-1.7305-0.45703zm-406.09-3.3477c-0.94922-1.7266-0.34766-3.8398 1.3438-4.8359 1.7266-0.94922 3.8398-0.3125 4.8359 1.3789 0.91016 1.6914 0.3125 3.8398-1.3789 4.8008-0.52734 0.3125-1.1289 0.45703-1.7266 0.45703-1.2383 0-2.4375-0.67188-3.0742-1.8008zm582.18-1.5469c-1.4531-1.3086-1.5859-3.5273-0.28906-5.0156 1.3086-1.4414 3.5273-1.5469 4.9805-0.23828 1.4766 1.2734 1.5859 3.5273 0.28906 4.9805-0.70703 0.78125-1.6562 1.1641-2.6172 1.1641-0.85156-0.015625-1.6914-0.29297-2.3633-0.89062zm-188.34-2.1953c-1.6914-0.96094-2.2578-3.1445-1.2734-4.8008 0.96094-1.6914 3.1445-2.293 4.8008-1.3086 1.6914 0.98438 2.2578 3.1445 1.3086 4.8359-0.67188 1.1289-1.8359 1.7656-3.0703 1.7656-0.60156 0-1.2031-0.16797-1.7656-0.49219zm-381.53-3.168c-0.96094-1.6914-0.35938-3.8398 1.3438-4.8008 1.7266-0.94922 3.875-0.34766 4.8359 1.3438 0.91016 1.7266 0.3125 3.8398-1.3789 4.8008-0.52734 0.3125-1.1289 0.45703-1.7266 0.45703-1.2383-0.015625-2.4414-0.63672-3.0742-1.8008zm369.32-3.8906c-1.6914-0.98437-2.2578-3.1445-1.2734-4.8359 0.96094-1.6562 3.1094-2.2578 4.8008-1.2734 1.6914 0.96094 2.2578 3.1445 1.3086 4.8008-0.67188 1.1641-1.8711 1.8008-3.0703 1.8008-0.60547 0-1.2031-0.16797-1.7656-0.49219zm209.96-1.3086c-1.4766-1.2734-1.5859-3.4922-0.28906-4.9805 1.2734-1.4531 3.5273-1.5859 4.9805-0.28906 1.4531 1.3086 1.5859 3.5625 0.28906 5.0039-0.70703 0.78125-1.6562 1.1641-2.6523 1.1641-0.85156 0.027344-1.6562-0.26172-2.3281-0.89844zm-566.98-1.6914c-0.96094-1.7266-0.35937-3.8398 1.3438-4.8008 1.7266-0.96094 3.8398-0.35938 4.8008 1.3438 0.98438 1.6914 0.35938 3.8398-1.3438 4.8008-0.52734 0.32422-1.1289 0.45703-1.7266 0.45703-1.2383 0-2.4375-0.67188-3.0742-1.8008zm344.81-4.0547c-1.6914-0.98438-2.2578-3.1445-1.3086-4.8359 0.98438-1.6914 3.1445-2.2578 4.8359-1.2734 1.6914 0.96094 2.2578 3.1094 1.2734 4.8008-0.63672 1.1289-1.8359 1.7656-3.0352 1.7656-0.60156 0-1.1992-0.13281-1.7656-0.45703zm-332.5-2.8555c-0.94922-1.6914-0.34766-3.8398 1.3438-4.8008 1.7266-0.96094 3.8867-0.35938 4.8008 1.3789 0.96094 1.6914 0.34766 3.8398-1.3438 4.8008-0.52734 0.28906-1.1289 0.42188-1.7266 0.42188-1.2383 0-2.4375-0.63672-3.0742-1.8008zm564.05-1.9102c-1.4531-1.3086-1.5859-3.5273-0.28906-4.9805 1.3086-1.4414 3.5273-1.5859 5.0039-0.27734 1.4531 1.3086 1.5469 3.5273 0.25391 4.9688-0.67188 0.78125-1.6562 1.1992-2.6172 1.1992-0.83984 0.015625-1.6797-0.30859-2.3516-0.91016zm-243.76-2.2891c-1.6914-0.98438-2.293-3.1445-1.3086-4.8359 0.98437-1.6914 3.1445-2.2578 4.8008-1.3086 1.6914 0.98438 2.293 3.1445 1.3086 4.8359-0.63672 1.1289-1.8359 1.7656-3.0703 1.7656-0.56641-0.003907-1.2031-0.13281-1.7305-0.45703zm-307.98-2.6758c-0.94922-1.6914-0.34766-3.8398 1.3438-4.8008 1.7266-0.96094 3.8398-0.35938 4.8008 1.3438 0.94922 1.6914 0.34766 3.8398-1.3438 4.8008-0.52734 0.3125-1.1289 0.45703-1.7266 0.45703-1.2383-0.003907-2.4375-0.63672-3.0742-1.8008zm295.73-4.418c-1.6914-0.94922-2.2578-3.1445-1.2734-4.8008 0.96094-1.6914 3.1445-2.2578 4.8008-1.3086 1.6914 0.98438 2.2578 3.1445 1.3086 4.8359-0.67188 1.1289-1.8359 1.7656-3.0703 1.7656-0.60156 0-1.1914-0.16797-1.7656-0.49219zm265.43-1.1289c-1.4531-1.3086-1.5859-3.5273-0.28906-4.9805 1.3086-1.4531 3.5273-1.5859 4.9805-0.28906 1.4531 1.3086 1.5859 3.5273 0.28906 4.9805-0.70703 0.78125-1.6562 1.1992-2.6523 1.1992-0.81641 0.015624-1.6562-0.30859-2.3281-0.91016zm-548.84-1.3789c-0.96094-1.6914-0.35937-3.8398 1.3789-4.8008 1.6914-0.96094 3.8398-0.35938 4.8008 1.3789 0.94922 1.6914 0.3125 3.8398-1.3789 4.8008-0.52734 0.28906-1.1289 0.45703-1.7266 0.45703-1.2383 0-2.4375-0.67187-3.0742-1.8359zm271.21-4.5469c-1.6914-0.98438-2.2578-3.1445-1.2734-4.8008 0.96094-1.6914 3.1094-2.293 4.8008-1.3086s2.2578 3.1445 1.2734 4.8359c-0.63672 1.1289-1.8359 1.7656-3.0352 1.7656-0.60156 0-1.1992-0.16797-1.7656-0.49219zm-258.89-2.3281c-0.96094-1.6914-0.35938-3.8516 1.3438-4.8008 1.7266-0.96094 3.875-0.34766 4.8008 1.3438 0.96094 1.7266 0.35938 3.8398-1.3438 4.8008-0.52734 0.3125-1.1289 0.45703-1.7266 0.45703-1.25 0-2.4492-0.63672-3.0742-1.8008zm545.94-2.2578c-1.4766-1.3086-1.5859-3.5273-0.28906-4.9805 1.2734-1.4766 3.4922-1.5859 4.9805-0.28906 1.4531 1.3086 1.5469 3.5273 0.28906 4.9805-0.70703 0.78125-1.6914 1.1641-2.6523 1.1641-0.85547 0-1.6953-0.27344-2.3281-0.875zm-299.26-2.4727c-1.6914-0.98438-2.2578-3.1445-1.3086-4.8359 0.98438-1.6914 3.1445-2.2578 4.8359-1.2734 1.6914 0.94922 2.2578 3.1094 1.2734 4.8008-0.63672 1.1289-1.8359 1.7656-3.0352 1.7656-0.60156 0-1.2383-0.13281-1.7656-0.45703zm-234.38-2.1445c-0.94922-1.7266-0.34766-3.8867 1.3438-4.8008 1.7266-0.98438 3.8516-0.34766 4.8359 1.3438 0.96094 1.6914 0.3125 3.8398-1.3789 4.8008-0.52734 0.3125-1.1289 0.45703-1.7266 0.45703-1.2266-0.003906-2.4258-0.67578-3.0742-1.8008zm222.13-4.9102c-1.6562-0.98438-2.2578-3.1445-1.2734-4.8359 0.94922-1.6914 3.1445-2.2578 4.8008-1.3086 1.6914 0.98437 2.293 3.1445 1.3086 4.8359-0.67187 1.1289-1.8359 1.7656-3.0703 1.7656-0.58984 0-1.1914-0.13281-1.7656-0.45703zm320.89-0.98438c-1.4531-1.3086-1.5859-3.5273-0.28906-4.9805 1.3086-1.4766 3.5273-1.5859 4.9805-0.28906 1.4766 1.2734 1.5859 3.4922 0.28906 4.9805-0.70703 0.78125-1.6562 1.1641-2.6172 1.1641-0.85156 0-1.6914-0.27344-2.3633-0.875zm-530.7-1.0195c-0.94922-1.6914-0.34766-3.8398 1.3789-4.8008 1.6914-0.94922 3.8516-0.34766 4.8008 1.3438 0.96094 1.7266 0.3125 3.8398-1.3789 4.8359-0.52734 0.28906-1.1289 0.42188-1.7266 0.42188-1.2383-0.011719-2.4531-0.63672-3.0742-1.8008zm197.6-5.0859c-1.6914-0.94922-2.2578-3.1094-1.2734-4.8008 0.94922-1.6914 3.1094-2.2578 4.8008-1.3086 1.6914 0.98438 2.2578 3.1445 1.3086 4.8359-0.67188 1.1289-1.8359 1.7656-3.0703 1.7656-0.60156-0.003906-1.1992-0.13281-1.7656-0.49219zm-185.29-1.8008c-0.96094-1.7266-0.35938-3.8398 1.3438-4.8008 1.7266-0.94922 3.875-0.34766 4.8008 1.3438 0.98438 1.6914 0.34766 3.8516-1.3438 4.8008-0.52734 0.3125-1.1289 0.45703-1.7266 0.45703-1.2383 0-2.4414-0.63672-3.0742-1.8008zm527.77-2.6406c-1.4531-1.2734-1.5469-3.4922-0.25391-4.9805 1.2734-1.4531 3.5273-1.5859 4.9805-0.28906 1.4531 1.3086 1.5469 3.5273 0.28906 5.0039-0.70703 0.78125-1.6562 1.1641-2.6523 1.1641-0.85156 0.011719-1.6562-0.26172-2.3633-0.89844zm-354.68-2.6172c-1.6914-0.98438-2.2578-3.1445-1.3086-4.8008 0.98438-1.6914 3.1445-2.293 4.8359-1.3086 1.6914 0.98438 2.2578 3.1445 1.2734 4.8359-0.63672 1.1289-1.8359 1.7656-3.0352 1.7656-0.60156 0-1.1992-0.17969-1.7656-0.49219zm-160.78-1.6562c-0.96094-1.6914-0.35938-3.8398 1.3789-4.8008 1.6914-0.94922 3.8398-0.34766 4.8008 1.3789 0.94922 1.6914 0.3125 3.8398-1.3789 4.8008-0.52734 0.28906-1.1289 0.45703-1.7266 0.45703-1.2383 0-2.3984-0.67188-3.0742-1.8359zm148.57-5.3984c-1.6914-0.98438-2.293-3.1445-1.3086-4.8359 0.98438-1.6562 3.1445-2.2578 4.8359-1.2734 1.6914 0.94922 2.2578 3.1445 1.2734 4.8008-0.63672 1.1641-1.8359 1.7656-3.0352 1.7656-0.60156 0-1.2383-0.14453-1.7656-0.45703zm-136.26-1.4766c-0.94922-1.6914-0.34766-3.8398 1.3438-4.8008 1.7266-0.94922 3.8867-0.34766 4.8008 1.3438 0.96094 1.7266 0.35938 3.875-1.3438 4.8008-0.52734 0.3125-1.1289 0.45703-1.7266 0.45703-1.2383-0.011718-2.4375-0.63672-3.0742-1.8008zm512.57 0.625c-1.4531-1.3086-1.5859-3.5273-0.28906-4.9688 1.3086-1.4531 3.5273-1.5859 4.9805-0.28906 1.4766 1.3086 1.5859 3.5273 0.28906 4.9805-0.67188 0.78125-1.6562 1.1992-2.6172 1.1992-0.85156 0-1.6914-0.3125-2.3633-0.92188zm-500.26-7.5117c-0.94922-1.7266-0.34766-3.875 1.3438-4.8359 1.7266-0.94922 3.8867-0.3125 4.8359 1.3789 0.96094 1.6914 0.3125 3.8398-1.3789 4.8008-0.52734 0.28906-1.1289 0.45703-1.7266 0.45703-1.2383-0.003906-2.4375-0.67578-3.0742-1.8008zm111.71 1.3086c-1.6914-0.98438-2.2578-3.1445-1.2734-4.8359 0.98438-1.6914 3.1445-2.2578 4.8008-1.2734 1.6914 0.94922 2.2578 3.1094 1.3086 4.8008-0.67188 1.1289-1.8359 1.7656-3.0703 1.7656-0.60156-0.003907-1.1992-0.14844-1.7656-0.45703zm397.97-4.3086c-1.4766-1.3086-1.5859-3.5273-0.28906-4.9805 1.3086-1.4531 3.5273-1.5859 4.9805-0.28906 1.4531 1.3086 1.5859 3.5273 0.28906 4.9805-0.70703 0.78125-1.6562 1.1641-2.6523 1.1641-0.81641 0.011719-1.6562-0.27734-2.3281-0.875zm-497.36-3.9141c-0.96094-1.6914-0.35938-3.8398 1.3438-4.8008 1.7266-0.96094 3.875-0.35938 4.8359 1.3438 0.91016 1.7266 0.3125 3.8398-1.3789 4.8008-0.52734 0.32422-1.1289 0.45703-1.6914 0.45703-1.2734 0-2.4727-0.63672-3.1094-1.8008zm87.18 1.1289c-1.6914-0.96094-2.2578-3.1094-1.2734-4.8008 0.96094-1.6914 3.1094-2.2578 4.8008-1.3086 1.6914 0.98438 2.2578 3.1445 1.3086 4.8359-0.67188 1.1289-1.8359 1.7656-3.0703 1.7656-0.60156 0-1.1992-0.14453-1.7656-0.49219zm-74.867-8.0039c-0.96094-1.7266-0.35938-3.875 1.3438-4.8008 1.7266-0.96094 3.875-0.35938 4.8008 1.3438 0.98438 1.6914 0.35938 3.8398-1.3438 4.8008-0.52734 0.3125-1.1289 0.45703-1.7266 0.45703-1.2383 0-2.4375-0.67188-3.0742-1.8008zm62.664 0.94922c-1.6914-0.96094-2.2578-3.1445-1.3086-4.8008 0.98438-1.6914 3.1445-2.293 4.8359-1.3086 1.6914 0.98438 2.2578 3.1445 1.2734 4.8359-0.63672 1.1289-1.8359 1.7656-3.0352 1.7656-0.60156 0-1.2031-0.18359-1.7656-0.49219zm431.77-0.67188c-1.4531-1.3086-1.5469-3.5273-0.28906-4.9688 1.3086-1.4883 3.5273-1.5859 5.0039-0.28906 1.4531 1.2734 1.5469 3.5273 0.28906 4.9688-0.70703 0.78125-1.6914 1.1641-2.6523 1.1641-0.83984 0.011718-1.6797-0.27734-2.3516-0.875zm-482.12-7.2031c-0.94922-1.6914-0.34766-3.8398 1.3789-4.8008 1.6914-0.96094 3.8398-0.35938 4.8008 1.3789 0.96094 1.6914 0.35938 3.8398-1.3789 4.8008-0.52734 0.28906-1.1289 0.42188-1.7266 0.42188-1.2383 0-2.4375-0.63672-3.0742-1.8008zm38.113 0.81641c-1.6562-0.98438-2.2578-3.1445-1.2734-4.8359 0.98438-1.6562 3.1445-2.2578 4.8008-1.2734 1.7266 0.96094 2.293 3.1445 1.3086 4.8359-0.63672 1.1289-1.8359 1.7266-3.0703 1.7266-0.60547 0.003906-1.2031-0.14062-1.7656-0.45312zm453.43-4.125c-1.4531-1.3086-1.5859-3.5273-0.28906-5.0039 1.3086-1.4531 3.5273-1.5469 4.9805-0.25391 1.4531 1.2734 1.5859 3.4922 0.28906 4.9805-0.70703 0.78125-1.6562 1.1641-2.6172 1.1641-0.85156 0-1.6914-0.28906-2.3633-0.88672zm-479.23-3.5664c-0.94922-1.6914-0.34766-3.8867 1.3438-4.8008 1.7266-0.94922 3.8867-0.34766 4.8359 1.3438 0.91016 1.6914 0.3125 3.8398-1.3789 4.8008-0.52734 0.3125-1.1289 0.45703-1.6914 0.45703-1.2734 0-2.4727-0.63672-3.1094-1.8008zm13.594 0.63672c-1.6914-0.98438-2.2578-3.1445-1.2734-4.8359 0.94922-1.6914 3.1445-2.2578 4.8008-1.2734 1.6914 0.96094 2.2578 3.1094 1.3086 4.8008-0.67187 1.1289-1.8359 1.7656-3.0703 1.7656-0.61328 0-1.2109-0.14453-1.7656-0.45703zm475.02-7.5859c-1.4531-1.3086-1.5469-3.5625-0.25391-5.0039 1.2734-1.4531 3.5273-1.5859 4.9805-0.28906 1.4531 1.3086 1.5469 3.5273 0.28906 4.9805-0.70703 0.81641-1.6562 1.1992-2.6523 1.1992-0.83594-0.007813-1.6523-0.32031-2.3633-0.88672zm9.4219-10.547c-1.4531-1.3086-1.5859-3.5273-0.28906-4.9805 1.3086-1.4531 3.5273-1.5859 4.9805-0.28906 1.4766 1.3086 1.5859 3.5273 0.28906 4.9805-0.67188 0.78125-1.6562 1.1992-2.6172 1.1992-0.83984 0.003907-1.6914-0.30859-2.3633-0.91016zm9.418-10.512c-1.4531-1.3086-1.5859-3.5273-0.28906-4.9805 1.3086-1.4766 3.5273-1.5859 4.9805-0.28906 1.4531 1.3086 1.5859 3.5273 0.28906 4.9805-0.70703 0.78125-1.6562 1.1992-2.6523 1.1992-0.80078 0.003907-1.6562-0.30859-2.3281-0.91016zm9.3867-10.512c-1.4531-1.3086-1.5469-3.5273-0.28906-5.0156 1.3086-1.4414 3.5273-1.5469 5.0039-0.23828 1.4531 1.2734 1.5469 3.5273 0.28906 4.9805-0.70703 0.78125-1.6914 1.1641-2.6523 1.1641-0.82812-0.015624-1.6797-0.28906-2.3516-0.89062zm9.418-10.523c-1.4531-1.3086-1.5859-3.5273-0.28906-5.0039 1.3086-1.4531 3.5273-1.5469 4.9805-0.25391 1.4531 1.2734 1.5859 3.4922 0.28906 4.9805-0.70703 0.78125-1.6562 1.1641-2.6172 1.1641-0.83984 0-1.6914-0.28906-2.3633-0.88672zm9.4219-10.547c-1.4766-1.2734-1.5859-3.5273-0.28906-4.9688 1.2734-1.4531 3.5273-1.5469 4.9805-0.28906 1.4531 1.3086 1.5469 3.5273 0.28906 4.9688-0.70703 0.81641-1.6562 1.1992-2.6523 1.1992-0.83984 0.011719-1.6562-0.3125-2.3281-0.91016z"/>
 <path d="m819.47 1089.1c-1.8359-0.60156-2.8203-2.6055-2.2188-4.4414 0.60156-1.8711 2.6172-2.8555 4.4531-2.2188 1.8711 0.60156 2.8555 2.6172 2.2578 4.4414-0.49219 1.4766-1.8711 2.4375-3.3477 2.4375-0.41406-0.003907-0.76172-0.078126-1.1445-0.21875zm4.4766-13.371c-1.8711-0.63672-2.8555-2.6055-2.2578-4.4766 0.63672-1.8359 2.6055-2.8203 4.4766-2.2188 1.8359 0.63672 2.8203 2.6172 2.2188 4.4766-0.49219 1.4531-1.8711 2.3984-3.3477 2.3984-0.34766 0-0.74219-0.070312-1.0898-0.17969zm4.4375-13.402c-1.8711-0.60156-2.8555-2.6172-2.2188-4.4414 0.60156-1.8711 2.6172-2.8555 4.4414-2.2188 1.8711 0.60156 2.8555 2.6172 2.2188 4.4414-0.49219 1.4766-1.8359 2.3984-3.3125 2.3984-0.38281-0.011719-0.73047-0.046876-1.1289-0.17969zm4.4531-13.379c-1.8359-0.60156-2.8203-2.6055-2.2188-4.4766 0.63672-1.8359 2.6172-2.8203 4.4883-2.2188 1.8359 0.63672 2.8203 2.6055 2.2188 4.4766-0.49219 1.4531-1.8711 2.3984-3.3477 2.3984-0.37109 0-0.75781-0.074219-1.1406-0.17969zm4.4766-13.371c-1.8711-0.63672-2.8555-2.6523-2.2578-4.4766 0.63672-1.8711 2.6055-2.8555 4.4766-2.2188 1.8359 0.60156 2.8203 2.6055 2.2188 4.4414-0.49219 1.4766-1.8711 2.3984-3.3477 2.3984-0.34766 0-0.74219-0.035156-1.0898-0.14453zm4.4531-13.402c-1.8711-0.63672-2.8555-2.6172-2.2188-4.4766 0.60156-1.8359 2.6172-2.8203 4.4414-2.2188 1.8711 0.63672 2.8555 2.6055 2.2578 4.4414-0.49219 1.4766-1.8711 2.4375-3.3477 2.4375-0.40234-0.003906-0.75-0.074219-1.1328-0.18359zm4.4375-13.402c-1.8359-0.60156-2.8203-2.6172-2.2188-4.4414 0.63672-1.8711 2.6172-2.8555 4.4883-2.2188 1.8359 0.60156 2.8203 2.6055 2.2188 4.4414-0.49219 1.4766-1.8711 2.3984-3.3477 2.3984-0.35938-0.011719-0.75391-0.050781-1.1406-0.17969zm4.4766-13.383c-1.8711-0.63672-2.8555-2.6172-2.2578-4.4883 0.63672-1.8359 2.6055-2.8203 4.4766-2.2188 1.8359 0.63672 2.8555 2.6172 2.2188 4.4531-0.49219 1.4766-1.8711 2.4375-3.3477 2.4375-0.34375-0.003906-0.73047-0.074219-1.0898-0.18359zm4.4531-13.402c-1.8359-0.60156-2.8203-2.6172-2.2188-4.4414 0.60156-1.8711 2.6172-2.8555 4.4414-2.2188 1.8711 0.60156 2.8555 2.6172 2.2578 4.4531-0.49219 1.4766-1.8711 2.4375-3.3477 2.4375-0.39062-0.015625-0.78516-0.085937-1.1328-0.23047zm4.4766-13.367c-1.8711-0.63672-2.8555-2.6172-2.2578-4.4883 0.63672-1.8359 2.6172-2.8203 4.4883-2.2188 1.8359 0.60156 2.8555 2.6172 2.2188 4.4883-0.49219 1.4531-1.8711 2.3984-3.3477 2.3984-0.35938 0-0.74219-0.074218-1.1016-0.17969zm4.4492-13.406c-1.8359-0.60156-2.8555-2.6172-2.2188-4.4531 0.60156-1.8711 2.5664-2.8555 4.4414-2.2188 1.8711 0.60156 2.8555 2.6172 2.2188 4.4414-0.49219 1.4883-1.8711 2.3984-3.3125 2.3984-0.39453 0-0.78125-0.035157-1.1289-0.16797zm4.4414-13.379c-1.8359-0.63672-2.8203-2.6172-2.2188-4.4883 0.63672-1.8359 2.6172-2.8555 4.4414-2.2188 1.8711 0.63672 2.8555 2.6172 2.2578 4.4414-0.49219 1.4766-1.8711 2.4375-3.3477 2.4375-0.35156 0.007812-0.73828-0.0625-1.1328-0.17188zm4.4883-13.406c-1.8711-0.60156-2.8555-2.6055-2.2578-4.4414 0.63672-1.8711 2.6172-2.8555 4.4883-2.2578 1.8359 0.63672 2.8555 2.6523 2.2188 4.4766-0.49219 1.4766-1.8711 2.3984-3.3477 2.3984-0.37109 0.007812-0.75391-0.03125-1.1016-0.17578zm4.4414-13.367c-1.8359-0.63672-2.8555-2.6055-2.2188-4.4766 0.60156-1.8359 2.6055-2.8555 4.4414-2.2188 1.8711 0.60156 2.8555 2.6172 2.2188 4.4766-0.45703 1.4531-1.8711 2.3984-3.3477 2.3984-0.35156-0.011718-0.74609-0.082031-1.0938-0.17969zm4.4375-13.414c-1.8359-0.60156-2.8203-2.6055-2.2188-4.4414 0.63672-1.8711 2.6172-2.8555 4.4766-2.2578 1.8359 0.63672 2.8203 2.6523 2.2188 4.4766-0.49219 1.4766-1.8711 2.3984-3.3477 2.3984-0.34766 0.003906-0.73047-0.03125-1.1289-0.17578zm4.4883-13.367c-1.8711-0.63672-2.8555-2.6055-2.2578-4.4766 0.63672-1.8359 2.6523-2.8555 4.4883-2.2188 1.8359 0.60156 2.8555 2.6055 2.2188 4.4414-0.49219 1.4766-1.8711 2.4375-3.3477 2.4375-0.35547-0.003907-0.75391-0.078125-1.1016-0.18359zm4.4414-13.406c-1.8359-0.60156-2.8555-2.6172-2.2188-4.4414 0.60156-1.8711 2.6055-2.8555 4.4414-2.2578 1.8711 0.63672 2.8555 2.6055 2.2578 4.4766-0.49219 1.4766-1.8711 2.3984-3.3477 2.3984-0.39063 0.003906-0.73828-0.03125-1.1328-0.17578zm4.4492-13.367c-1.8359-0.63672-2.8203-2.6172-2.2188-4.4766 0.63672-1.8359 2.6172-2.8555 4.4766-2.2188 1.8359 0.60156 2.8203 2.6055 2.2188 4.4766-0.49219 1.4531-1.8711 2.3984-3.3477 2.3984-0.38281-0.011719-0.74219-0.082031-1.1289-0.17969zm4.4766-13.418c-1.8711-0.60156-2.8555-2.6172-2.2578-4.4414 0.63672-1.8711 2.6523-2.8555 4.4883-2.2578 1.8711 0.63672 2.8555 2.6523 2.2188 4.4883-0.49219 1.4766-1.8711 2.3984-3.3477 2.3984-0.35547-0.003907-0.73828-0.042969-1.1016-0.1875zm4.4531-13.367c-1.8359-0.63672-2.8555-2.6172-2.2188-4.4766 0.60156-1.8359 2.6055-2.8555 4.4414-2.2188 1.8711 0.60156 2.8555 2.6172 2.2578 4.4531-0.49219 1.4766-1.8711 2.4375-3.3477 2.4375-0.40234-0.015625-0.75-0.085938-1.1328-0.19531zm4.4766-13.402c-1.8711-0.63672-2.8555-2.6172-2.2578-4.4414 0.63672-1.8711 2.6172-2.8555 4.4766-2.2578 1.8359 0.63672 2.8555 2.6172 2.2188 4.4883-0.49219 1.4766-1.8711 2.3984-3.3477 2.3984-0.34766-0.007813-0.73047-0.082032-1.0898-0.1875zm4.4414-13.406c-1.8359-0.60156-2.8555-2.5781-2.2188-4.4531 0.60156-1.8359 2.6172-2.8555 4.4531-2.2188 1.8711 0.60156 2.8555 2.6172 2.2188 4.4414-0.49219 1.4883-1.8711 2.4375-3.3125 2.4375-0.39844 0-0.74609-0.074219-1.1406-0.20703zm4.4492-13.379c-1.8359-0.60156-2.8203-2.6172-2.2188-4.4531 0.63672-1.8711 2.6055-2.8555 4.4414-2.2578 1.8711 0.63672 2.8555 2.6172 2.2578 4.4883-0.49219 1.4766-1.8711 2.3984-3.3477 2.3984-0.38672 0.003907-0.74609-0.03125-1.1328-0.17578zm4.4766-13.367c-1.8711-0.63672-2.8555-2.6172-2.2578-4.4883 0.63672-1.8359 2.6172-2.8555 4.4766-2.2188 1.8711 0.60156 2.8555 2.6172 2.2188 4.4414-0.49219 1.4766-1.8711 2.4375-3.3477 2.4375-0.34375 0.007812-0.73047-0.0625-1.0898-0.17188z"/>
 <path d="m602.93 1099.8h-214.27l-0.86328-0.55469-105.34-67.402 317.48-92.316v-343.04l-313.21-186.1 92.438-305.45h449.11v7.0547h-443.87l-89.328 295.14 311.93 185.33v352.37l-2.543 0.73047-305.11 88.719 91.367 58.461h212.21z"/>
 <path d="m69.426 671.35 6.0469-3.6328 218.46 363.5-6.0469 3.6328z"/>
 <path d="m68.93 531.25h7.0547v138.29h-7.0547z"/>
 <path d="m69.723 667.24 218.54-260.72 5.4062 4.5312-218.54 260.72z"/>
 <path d="m289.05 160.77 90.891-55.293 3.668 6.0273-90.891 55.293z"/>
 <path d="m69.359 529.43 218.58-367.39 6.0625 3.6094-218.58 367.39z"/>
 <path d="m820.27 1099.8h-227.61v-7.0586h225.53l91.367-58.461-307.64-89.449v-352.37l1.7266-1.0195 310.19-184.31-90.07-297.65 6.7539-2.0391 91.668 302.94-313.21 186.1v343.04l317.48 92.316z"/>
 <path d="m915.05 1031.3 218.24-363.62 6.0508 3.6328-218.24 363.62z"/>
 <path d="m1132.9 531.25h7.0547v138.29h-7.0547z"/>
 <path d="m915.36 410.99 5.4102-4.5312 218.47 260.79-5.4102 4.5312z"/>
</svg>
