<?xml version="1.0" encoding="UTF-8"?>
<!-- Generated by Pixelmator Pro 3.7.1 -->
<svg width="1600" height="1600" viewBox="0 0 1600 1600" xmlns="http://www.w3.org/2000/svg">
    <path id="Path" fill="#000000" stroke="#000000" stroke-width="20" d="M 1220.013306 220.800049 L 1228.101929 215.992676 L 1519.36853 705.966003 L 1511.279907 710.773376 Z"/>
    <path id="path1" fill="#000000" stroke="#000000" stroke-width="8" d="M 388.906647 1030.853271 C 387.594147 1028.598145 388.443115 1025.733643 390.698395 1024.452148 C 392.953613 1023.170959 395.833862 1023.973083 397.099457 1026.243896 C 398.380737 1028.499268 397.578644 1031.36377 395.307739 1032.64502 C 394.557739 1033.061768 393.755615 1033.254395 393.005615 1033.254395 C 391.354523 1033.254395 389.755615 1032.421143 388.906647 1030.853271 Z M 375.693085 1024.931396 C 373.948273 1022.993958 374.140961 1020.035583 376.078491 1018.290771 C 378.016022 1016.545959 380.974365 1016.691895 382.719147 1018.629333 C 384.463959 1020.598145 384.318085 1023.572021 382.380615 1025.30127 C 381.484772 1026.103271 380.36499 1026.483398 379.229523 1026.483398 C 377.901398 1026.483398 376.635773 1025.973145 375.693115 1024.931396 Z M 405.32373 1021.634521 C 404.058105 1019.379333 404.860199 1016.514832 407.115479 1015.233459 C 409.370728 1013.952148 412.235199 1014.801208 413.51651 1017.072021 C 414.782135 1019.327209 413.980072 1022.191711 411.724823 1023.473083 C 410.974823 1023.842834 410.172638 1024.08252 409.422638 1024.08252 C 407.771606 1024.08252 406.172638 1023.186584 405.32373 1021.634583 Z M 421.739746 1012.467834 C 420.458496 1010.212646 421.26059 1007.348145 423.531464 1006.066833 C 425.786652 1004.785583 428.651215 1005.587646 429.932526 1007.858582 C 431.198151 1010.160645 430.396088 1013.025208 428.140778 1014.306396 C 427.390778 1014.691833 426.63562 1014.868896 425.838654 1014.868896 C 424.187592 1014.868896 422.588654 1014.019958 421.739746 1012.467834 Z M 363.130402 1010.962646 C 361.338654 1009.025208 361.531464 1006.066833 363.468964 1004.322021 C 365.390839 1002.577209 368.349213 1002.723083 370.093994 1004.660583 C 371.838837 1006.582458 371.692963 1009.60321 369.776337 1011.332458 C 368.880463 1012.134521 367.745117 1012.514709 366.625244 1012.514709 C 365.338776 1012.514709 364.026337 1012.004333 363.130463 1010.962585 Z M 438.171753 1003.301208 C 436.890472 1001.045959 437.692596 998.165771 439.96347 996.900146 C 442.218658 995.618896 445.083221 996.436584 446.364532 998.691895 C 447.645782 1000.947083 446.843719 1003.811584 444.572784 1005.092957 C 443.822784 1005.509583 443.02066 1005.702332 442.27066 1005.702332 C 440.604004 1005.702332 439.005096 1004.806458 438.171753 1003.30127 Z M 350.521088 996.993896 C 348.776276 995.072021 348.922119 992.097961 350.838776 990.368835 C 352.776245 988.624023 355.73465 988.769836 357.479462 990.686523 C 359.224243 992.623962 359.078369 995.582336 357.1409 997.358398 C 356.245026 998.160461 355.125275 998.54071 353.989838 998.54071 C 352.729401 998.545898 351.416901 998.019836 350.521027 996.993713 Z M 454.57309 994.082458 C 453.307465 991.827209 454.109528 988.94696 456.364777 987.681335 C 458.619995 986.400085 461.484528 987.264648 462.765869 989.519836 C 464.047119 991.775085 463.245026 994.639587 460.974121 995.920898 C 460.224121 996.306335 459.421997 996.530273 458.671997 996.530273 C 457.020905 996.514648 455.432404 995.618835 454.57309 994.082458 Z M 471.005096 984.900146 C 469.73941 982.644958 470.541504 979.780457 472.796783 978.499084 C 475.052002 977.233459 477.916534 978.035461 479.197876 980.290771 C 480.463501 982.592957 479.661407 985.410583 477.406128 986.691895 C 476.656128 987.108582 475.900909 987.30127 475.104004 987.30127 C 473.452911 987.30127 471.833221 986.452332 471.005096 984.900146 Z M 337.917084 983.014648 C 336.172272 981.077209 336.318146 978.118835 338.255615 976.374023 C 340.193085 974.629211 343.151489 974.775085 344.896271 976.712585 C 346.641083 978.649963 346.495209 981.608398 344.557739 983.35321 C 343.661896 984.202148 342.542114 984.566711 341.406647 984.566711 C 340.125397 984.566711 338.859741 984.051086 337.917084 983.014648 Z M 487.4104 975.733459 C 486.12915 973.478271 486.946869 970.61377 489.202148 969.332458 C 491.457306 968.066833 494.321869 968.868835 495.60318 971.124084 C 496.868805 973.379333 496.066742 976.259583 493.811493 977.525208 C 493.061493 977.941895 492.306274 978.134583 491.509308 978.134583 C 489.858276 978.134583 488.259308 977.23877 487.4104 975.733459 Z M 325.303741 969.045959 C 323.558929 967.108582 323.704803 964.150146 325.642273 962.405334 C 327.564148 960.660583 330.58493 960.806396 332.314148 962.743896 C 334.011993 964.681335 333.866272 967.639709 331.928741 969.384521 C 331.032898 970.233459 329.897552 970.598083 328.777679 970.598083 C 327.512054 970.598083 326.24646 970.082458 325.30368 969.045959 Z M 503.82373 966.499084 C 502.54248 964.243896 503.344574 961.379333 505.615479 960.097961 C 507.870697 958.832336 510.735199 959.63446 512.016541 961.889709 C 513.297791 964.191895 512.495667 967.072021 510.224823 968.337585 C 509.474823 968.722961 508.719604 968.94696 507.922638 968.900146 C 506.271606 968.900146 504.672638 968.066833 503.82373 966.499023 Z M 520.239746 957.332458 C 518.974121 955.077209 519.776184 952.212646 522.031433 950.931335 C 524.333618 949.66571 527.151184 950.467773 528.479309 952.723083 C 529.713684 955.025208 528.911621 957.842773 526.640808 959.124084 C 525.890808 959.540771 525.13562 959.733459 524.338684 959.733459 C 522.687561 959.733459 521.088684 958.884521 520.239746 957.332458 Z M 312.693085 955.077209 C 310.948273 953.139709 311.094147 950.181335 313.010773 948.436523 C 314.948242 946.691711 317.95343 946.837585 319.682648 948.754211 C 321.42746 950.691711 321.234772 953.650146 319.297211 955.394958 C 318.401398 956.197021 317.281647 956.608459 316.146149 956.608459 C 314.901367 956.629333 313.635773 956.118896 312.693085 955.077209 Z M 536.666382 948.165771 C 535.400757 945.863586 536.20282 942.999084 538.45813 941.717834 C 540.713318 940.452209 543.577881 941.301208 544.859192 943.556396 C 546.124817 945.811584 545.322754 948.676086 543.067444 949.957458 C 542.364319 950.389709 541.562256 950.566833 540.76532 950.566833 C 539.114258 950.566833 537.51532 949.665771 536.666382 948.165771 Z M 300.093048 941.108398 C 298.348267 939.170898 298.540924 936.212585 300.478485 934.467773 C 302.416046 932.7229 305.374359 932.868835 307.119141 934.806335 C 308.863953 936.743713 308.671295 939.702148 306.733734 941.44696 C 305.837891 942.249023 304.71814 942.660461 303.629608 942.660461 C 302.317108 942.660461 301.041077 942.150085 300.093201 941.108398 Z M 553.093079 938.931335 C 551.811829 936.676086 552.629517 933.811584 554.884827 932.530273 C 557.186951 931.249023 560.051453 932.051086 561.285828 934.322021 C 562.598328 936.624084 561.749451 939.488708 559.494141 940.769836 C 558.791016 941.155273 557.988953 941.332336 557.192017 941.332336 C 555.540955 941.332336 553.942017 940.499023 553.093079 938.931335 Z M 569.509094 929.764648 C 568.227844 927.50946 569.029907 924.644958 571.300781 923.363586 C 573.602966 922.082336 576.467468 922.88446 577.701843 925.155334 C 579.014343 927.410583 578.18103 930.275085 575.910095 931.556396 C 575.201782 931.973083 574.404968 932.165771 573.602783 932.165771 C 571.95697 932.165771 570.357971 931.316833 569.509094 929.764709 Z M 287.535736 927.139587 C 285.790924 925.202148 285.936798 922.243713 287.874298 920.498962 C 289.811768 918.75415 292.770142 918.899963 294.514954 920.837463 C 296.259735 922.774963 296.113861 925.733337 294.176392 927.478088 C 293.280579 928.280212 292.160797 928.691711 291.02533 928.691711 C 289.697205 928.691711 288.43161 928.16571 287.535736 927.139587 Z M 585.922424 920.597961 C 584.656799 918.295898 585.458862 915.415771 587.760925 914.150146 C 590.016113 912.936584 592.880676 913.733459 594.161987 915.988708 C 595.443237 918.243896 594.594299 921.108398 592.323486 922.389709 C 591.620361 922.806396 590.818298 922.999084 590.021301 922.999084 C 588.3703 922.993896 586.766113 922.098083 585.922424 920.598083 Z M 274.922394 913.155334 C 273.177582 911.217834 273.323456 908.212646 275.260956 906.483459 C 277.182831 904.785583 280.141205 904.931335 281.886017 906.868896 C 283.630829 908.790771 283.484955 911.764709 281.568298 913.493958 C 280.672455 914.296082 279.537109 914.728333 278.417236 914.728333 C 277.130768 914.70752 275.818298 914.197083 274.922455 913.155334 Z M 602.335754 911.379333 C 601.070129 909.124084 601.872192 906.243896 604.127502 904.978271 C 606.429626 903.697021 609.309753 904.514709 610.575317 906.77002 C 611.788879 909.072083 610.992004 911.889709 608.736816 913.217834 C 608.033691 913.603271 607.231628 913.780334 606.434631 913.780334 C 604.78363 913.780334 603.195068 912.931396 602.335754 911.379333 Z M 618.76239 902.197083 C 617.496765 899.941895 618.298889 897.077332 620.600952 895.795959 C 622.85614 894.530334 625.736389 895.332458 627.002014 897.587708 C 628.267639 899.842957 627.465515 902.707458 625.163452 903.98877 C 624.460327 904.405457 623.658264 904.598145 622.908264 904.598145 C 621.194641 904.598145 619.595764 903.749207 618.76239 902.197083 Z M 262.309052 899.186707 C 260.56427 897.264832 260.710114 894.243958 262.62677 892.514832 C 264.56424 890.77002 267.522644 890.962646 269.267426 892.900208 C 271.012238 894.837646 270.866364 897.796082 268.928894 899.540833 C 268.033051 900.342957 266.9133 900.754395 265.777832 900.754395 C 264.533051 900.73877 263.257019 900.181458 262.309021 899.186707 Z M 635.17572 893.030457 C 633.89447 890.728271 634.759094 887.86377 637.014282 886.58252 C 639.26947 885.316895 642.133972 886.165833 643.415344 888.421082 C 644.680969 890.67627 643.83197 893.55658 641.576782 894.822083 C 640.873718 895.20752 640.071594 895.431458 639.321594 895.431458 C 637.654968 895.42627 636.055969 894.530457 635.17572 893.030457 Z M 249.709061 885.171082 C 247.964279 883.233582 248.110123 880.275208 250.047607 878.530457 C 251.985092 876.785583 254.99028 876.978271 256.688263 878.915833 C 258.480011 880.853271 258.287201 883.811707 256.349731 885.556458 C 255.453903 886.358582 254.334122 886.73877 253.198669 886.73877 C 251.917419 886.723145 250.651733 886.212708 249.709061 885.171082 Z M 651.58905 883.811768 C 650.3078 881.55658 651.156799 878.691956 653.427612 877.410645 C 655.6828 876.14502 658.547302 876.947083 659.828674 879.202393 C 661.094299 881.504578 660.2453 884.337891 657.990173 885.650208 C 657.287048 886.035645 656.484924 886.21283 655.687988 886.21283 C 654.083862 886.21283 652.484924 885.363831 651.58905 883.811707 Z M 668.005066 874.629456 C 666.739441 872.327332 667.58844 869.509766 669.843567 868.181641 C 672.098816 866.968018 674.963318 867.764954 676.24469 870.020081 C 677.52594 872.27533 676.661316 875.139893 674.406128 876.421204 C 673.703003 876.837891 672.90094 877.030579 672.15094 877.030579 C 670.499878 877.030579 668.90094 876.150391 668.005066 874.629456 Z M 237.098404 871.202393 C 235.353592 869.264954 235.546265 866.30658 237.436951 864.561768 C 239.35881 862.816895 242.379623 862.96283 244.10881 864.879456 C 245.853622 866.816895 245.66095 869.822083 243.723404 871.566895 C 242.82756 872.368958 241.6922 872.749207 240.572327 872.749207 C 239.322327 872.754395 238.041138 872.228333 237.098328 871.202209 Z M 684.431702 865.410645 C 683.166077 863.155457 684.015076 860.290955 686.270264 859.009583 C 688.525452 857.743958 691.405762 858.546082 692.671326 860.801331 C 693.952576 863.103455 693.134827 865.968018 690.832764 867.249207 C 690.1297 867.634583 689.327637 867.811707 688.577637 867.811707 C 686.926514 867.811707 685.327637 866.962708 684.431702 865.410645 Z M 224.511734 857.218018 C 222.766922 855.296143 222.959595 852.322083 224.829453 850.592957 C 226.798233 848.848145 229.77211 848.993958 231.501297 850.910645 C 233.246109 852.848145 233.053452 855.853271 231.115891 857.58252 C 230.220047 858.384583 229.100296 858.764832 228.011765 858.764832 C 226.720093 858.790833 225.438828 858.259583 224.511765 857.217834 Z M 700.845032 856.24408 C 699.563782 853.988831 700.365906 851.124268 702.683594 849.842957 C 704.938782 848.561707 707.803284 849.36377 709.084656 851.634705 C 710.350281 853.889893 709.548157 856.754456 707.246094 858.035828 C 706.54303 858.468079 705.740967 858.645203 704.990967 858.645203 C 703.339844 858.645203 701.740967 857.796204 700.845032 856.24408 Z M 717.261047 847.014832 C 716.026672 844.759583 716.828796 841.92627 719.099609 840.61377 C 721.354797 839.379395 724.219299 840.181458 725.500671 842.452332 C 726.766296 844.70752 725.964172 847.572021 723.708923 848.853333 C 722.958923 849.27002 722.156799 849.462708 721.406799 849.462708 C 719.755676 849.478333 718.156799 848.58252 717.260925 847.014893 Z M 211.874405 843.254456 C 210.129593 841.316956 210.322266 838.358582 212.259811 836.61377 C 214.197281 834.868958 217.155685 835.014832 218.900467 836.952332 C 220.645279 838.889832 220.499405 841.89502 218.561935 843.593018 C 217.619217 844.441956 216.546326 844.80658 215.410873 844.80658 C 214.103577 844.80658 212.822327 844.290955 211.874466 843.254395 Z M 733.714417 837.842957 C 732.401855 835.58783 733.235168 832.723206 735.506104 831.441895 C 737.761292 830.160645 740.625916 830.962708 741.907227 833.233643 C 743.188477 835.535828 742.386414 838.40033 740.068665 839.681458 C 739.36554 840.066895 738.563477 840.243958 737.813477 840.243958 C 736.162415 840.243958 734.563477 839.39502 733.714539 837.842957 Z M 750.130371 828.67627 C 748.864746 826.421143 749.666809 823.49408 751.922119 822.275208 C 754.177307 821.009583 757.057617 821.811707 758.323181 824.066956 C 759.604492 826.322205 758.786804 829.186707 756.531494 830.468018 C 755.781494 830.884705 754.979309 831.077393 754.229309 831.077393 C 752.578308 831.077393 750.974121 830.228455 750.130371 828.676331 Z M 199.317062 829.285645 C 197.572266 827.348206 197.71814 824.389832 199.655624 822.64502 C 201.593079 820.900208 204.551468 821.046082 206.29628 822.983582 C 208.041077 824.905457 207.895218 827.926208 205.957748 829.608643 C 205.061905 830.457581 203.942139 830.843018 202.806656 830.843018 C 201.541031 830.83783 200.212936 830.322205 199.317062 829.285645 Z M 766.557068 819.462708 C 765.291443 817.20752 766.093506 814.327332 768.348816 813.061707 C 770.604065 811.796082 773.468506 812.598145 774.749817 814.900208 C 776.015442 817.155457 775.213379 820.035645 772.958191 821.30127 C 772.208191 821.717957 771.406006 821.910645 770.656006 821.910645 C 769.004944 821.889832 767.400818 821.014832 766.557068 819.46283 Z M 186.730408 815.316895 C 184.985596 813.379395 185.13147 810.420959 187.068954 808.676208 C 188.990799 806.931396 191.949219 807.077332 193.694016 808.993896 C 195.438828 810.931396 195.292953 813.889832 193.376297 815.634583 C 192.480469 816.483582 191.345108 816.848145 190.225235 816.848145 C 188.938782 816.868958 187.610703 816.358582 186.730453 815.316895 Z M 782.983704 810.27533 C 781.702454 808.020081 782.504578 805.155518 784.775452 803.874207 C 787.030701 802.608582 789.895203 803.410645 791.176514 805.665955 C 792.442139 807.968079 791.640076 810.848206 789.384766 812.113831 C 788.634766 812.499207 787.832703 812.676331 787.082703 812.676331 C 785.416016 812.676331 783.817078 811.827393 782.983704 810.275208 Z M 799.353027 801.108643 C 798.139465 798.853455 798.93634 795.988831 801.191589 794.70752 C 803.446777 793.441895 806.31134 794.243958 807.592712 796.499268 C 808.873962 798.754456 808.071838 801.618958 805.800964 802.90033 C 805.050964 803.316956 804.248779 803.509705 803.498779 803.509705 C 801.847717 803.509705 800.248779 802.613831 799.352966 801.108643 Z M 174.126404 801.348206 C 172.381592 799.410706 172.527466 796.452332 174.444107 794.70752 C 176.381577 792.962708 179.339966 793.108582 181.115967 795.046082 C 182.813843 796.983582 182.668106 799.941956 180.730545 801.686768 C 179.834717 802.535706 178.714966 802.90033 177.579483 802.90033 C 176.334717 802.90033 175.053482 802.389893 174.126419 801.348145 Z M 161.517075 787.364197 C 159.772263 785.426758 159.918137 782.468323 161.855606 780.723572 C 163.793076 778.97876 166.798279 779.124573 168.527481 781.062073 C 170.272278 782.999512 170.079605 785.957947 168.142075 787.702698 C 167.246231 788.504822 166.126465 788.91626 164.990997 788.91626 C 163.725372 788.931885 162.444077 788.405823 161.516998 787.364197 Z M 803.86377 784.739075 C 801.27002 784.6922 799.207458 782.530823 799.254395 779.937012 C 799.30127 777.343262 801.462646 775.280762 804.05658 775.327637 C 806.650208 775.374512 808.71283 777.53595 808.665833 780.129822 C 808.618896 782.723633 806.504395 784.739075 803.96283 784.739075 L 803.863831 784.739075 Z M 148.903732 773.395447 C 147.158936 771.457947 147.304794 768.499512 149.242279 766.723572 C 151.211075 765.025635 154.184952 765.171387 155.914139 767.108948 C 157.658951 769.030823 157.466278 771.989197 155.528732 773.73407 C 154.632889 774.536133 153.497543 774.968445 152.37767 774.968445 C 151.112045 774.947571 149.846466 774.437073 148.903671 773.395447 Z M 804.237061 765.926575 C 801.643311 765.8797 799.580811 763.749512 799.627747 761.124451 C 799.674622 758.530762 801.835999 756.468201 804.429871 756.561951 C 807.023621 756.561951 809.086121 758.723389 809.039246 761.311951 C 808.992371 763.905701 806.877747 765.921326 804.336121 765.921326 C 804.299622 765.926514 804.237122 765.926514 804.237122 765.926514 Z M 136.303726 759.426575 C 134.558929 757.5047 134.751602 754.483948 136.673523 752.7547 C 138.610977 751.009949 141.569382 751.202637 143.314194 753.140137 C 145.05899 755.077637 144.913116 758.036072 142.996475 759.780823 C 142.100632 760.582947 140.965286 760.994385 139.845413 760.994385 C 138.512085 760.97876 137.236084 760.468323 136.303818 759.426575 Z M 804.623718 747.108887 C 802.030029 747.062012 799.967468 744.931824 800.014404 742.306702 C 800.061279 739.712952 802.175842 737.650452 804.816589 737.697449 C 807.410217 737.744324 809.472839 739.905701 809.425842 742.499512 C 809.378967 745.093262 807.264404 747.108887 804.675842 747.108887 Z M 123.690399 745.462952 C 121.992531 743.525574 122.138268 740.520325 124.075813 738.822327 C 126.013275 737.030579 128.97168 737.223389 130.716476 739.160889 C 132.461288 741.098328 132.315414 744.056702 130.37793 745.801514 C 129.482101 746.603577 128.362335 747.015076 127.226868 747.015076 C 125.945618 747.015076 124.633141 746.483826 123.690468 745.462952 Z M 111.127869 731.44165 C 109.383064 729.504211 109.528931 726.545837 111.466408 724.801025 C 113.403893 723.056213 116.362282 723.24884 118.107079 725.186462 C 119.851875 727.12384 119.706017 730.082275 117.768532 731.827087 C 116.872688 732.62915 115.75293 733.009338 114.617462 733.009338 C 113.336212 732.993713 112.023735 732.467712 111.127869 731.44165 Z M 804.981201 728.290588 C 802.387451 728.243713 800.324951 726.113525 800.371826 723.488464 C 800.418701 720.894714 802.533386 718.832214 805.174011 718.87915 C 807.767761 718.9729 809.830261 721.087402 809.736572 723.728027 C 809.736572 726.269714 807.622009 728.290588 805.080261 728.290588 L 804.981262 728.290588 Z M 98.514534 717.478027 C 96.769737 715.59259 96.915596 712.582214 98.853081 710.837402 C 100.77494 709.09259 103.733345 709.285217 105.478149 711.222839 C 107.269875 713.108337 107.07708 716.118652 105.160439 717.863464 C 104.264595 718.665527 103.129242 719.077087 102.009369 719.077087 C 100.722923 719.06134 99.46244 718.498962 98.51458 717.478088 Z M 805.367859 709.524963 C 802.727234 709.478088 800.711609 707.316711 800.711609 704.7229 C 800.805359 702.082214 802.919861 700.019775 805.513733 700.113525 C 808.154358 700.1604 810.216797 702.274963 810.123047 704.91571 C 810.123047 707.457275 808.008545 709.524963 805.466797 709.524963 L 805.367859 709.524963 Z M 805.70636 690.707703 C 803.112732 690.660828 801.097107 688.499451 801.097107 685.905518 C 801.190857 683.264893 803.305359 681.249268 805.899231 681.296204 C 808.539856 681.343079 810.602295 683.504456 810.508545 686.098328 C 810.46167 688.639954 808.394043 690.707703 805.805481 690.707703 L 805.706543 690.707703 Z M 806.070984 671.89032 C 803.477295 671.843445 801.414734 669.682068 801.46167 667.088196 C 801.55542 664.494446 803.669922 662.431946 806.263855 662.478882 C 808.90448 662.525757 810.920105 664.687134 810.873108 667.281006 C 810.826233 669.822571 808.758606 671.89032 806.216858 671.89032 L 806.071045 671.89032 Z M 806.45636 653.078308 C 803.862732 653.031433 801.80011 650.870056 801.847107 648.276184 C 801.894043 645.682312 804.055359 643.619934 806.649231 643.66687 C 809.24292 643.713745 811.305481 645.828308 811.258545 648.468994 C 811.21167 651.01062 809.097107 653.078308 806.555481 653.078308 L 806.456543 653.078308 Z M 806.826172 634.244995 C 804.232483 634.19812 802.169922 632.036743 802.216858 629.442871 C 802.263733 626.849121 804.42511 624.78656 807.018982 624.833557 C 809.612732 624.880432 811.675293 627.041809 811.628357 629.635681 C 811.581482 632.177307 809.513855 634.244995 806.925293 634.244995 L 806.826355 634.244995 Z M 807.20636 615.427673 C 804.612732 615.380798 802.55011 613.219421 802.597107 610.625549 C 802.643982 608.031799 804.805359 605.969299 807.399231 606.016174 C 809.99292 606.063049 812.055481 608.224426 812.008545 610.818298 C 811.96167 613.412048 809.847107 615.427673 807.305481 615.427673 L 807.206543 615.427673 Z M 807.576172 596.615662 C 804.982483 596.568787 802.919922 594.40741 802.966858 591.813538 C 803.013733 589.219788 805.17511 587.157288 807.768982 587.204163 C 810.362732 587.251038 812.425293 589.412476 812.378357 592.006348 C 812.331482 594.600037 810.216858 596.615662 807.675293 596.615662 L 807.576355 596.615662 Z M 807.961609 577.79834 C 805.36792 577.751465 803.305359 575.590088 803.352295 572.996216 C 803.39917 570.402466 805.560547 568.339966 808.154358 568.386841 C 810.748108 568.433716 812.81073 570.595093 812.763733 573.188965 C 812.716858 575.782715 810.602295 577.79834 808.06073 577.79834 L 807.961731 577.79834 Z M 808.33136 558.980957 C 805.73761 558.934082 803.67511 556.772705 803.722107 554.178833 C 803.768982 551.585083 805.930359 549.522583 808.52417 549.56958 C 811.11792 549.616455 813.180481 551.777832 813.133545 554.371704 C 813.08667 556.965454 810.972107 558.980957 808.430481 558.980957 L 808.331543 558.980957 Z M 808.711609 540.168945 C 806.11792 540.12207 804.055359 538.007568 804.102295 535.366821 C 804.14917 532.773193 806.263733 530.710571 808.904358 530.757568 C 811.498108 530.804443 813.56073 532.96582 813.513733 535.559692 C 813.466858 538.153442 811.352295 540.168945 808.763733 540.168945 Z M 809.034485 521.351685 C 806.440857 521.30481 804.378235 519.190186 804.471985 516.549561 C 804.51886 513.955811 806.633484 511.893311 809.221985 511.940186 C 811.86261 512.033936 813.878235 514.148438 813.831299 516.74231 C 813.784424 519.33606 811.716797 521.351685 809.175049 521.351685 L 809.034424 521.351685 Z M 809.414734 502.534302 C 806.821045 502.487427 804.758484 500.372925 804.852234 497.784302 C 804.852234 495.143677 807.013672 493.081299 809.602234 493.175049 C 812.24292 493.221924 814.258484 495.336426 814.211487 497.925049 C 814.164612 500.518677 812.096985 502.534302 809.508484 502.534302 L 809.414734 502.534302 Z M 809.80011 483.72229 C 807.206482 483.72229 805.14386 481.560913 805.190857 478.97229 C 805.237732 476.331665 807.399109 474.31604 809.99292 474.363037 C 812.586853 474.409912 814.649231 476.524414 814.602295 479.165161 C 814.55542 481.706787 812.487793 483.727661 809.899231 483.727661 C 809.878418 483.722412 809.831543 483.722412 809.800293 483.722412 Z M 810.169922 464.95166 C 807.576233 464.85791 805.513672 462.743408 805.560608 460.149536 C 805.607483 457.508911 807.76886 455.493286 810.362732 455.540161 C 812.956482 455.587036 815.019043 457.70166 814.972107 460.342285 C 814.925232 462.883911 812.857605 464.95166 810.269043 464.95166 L 810.170105 464.95166 Z M 810.534485 446.139648 C 807.940857 446.092773 805.878235 443.931396 805.925232 441.337524 C 805.972107 438.743774 808.133484 436.681274 810.727295 436.728149 C 813.321045 436.775024 815.383606 438.889648 815.33667 441.530273 C 815.289795 444.071899 813.222168 446.139648 810.633606 446.139648 L 810.534668 446.139648 Z M 810.919922 427.322388 C 808.326233 427.275513 806.263672 425.114014 806.310608 422.520142 C 806.357483 419.926514 808.51886 417.863892 811.112732 417.910889 C 813.706482 417.957764 815.769043 420.119141 815.722107 422.713013 C 815.675232 425.254639 813.607605 427.322388 811.019043 427.322388 L 810.920105 427.322388 Z M 811.289734 408.505005 C 808.695984 408.45813 806.633484 406.296753 806.68042 403.702881 C 806.727295 401.109131 808.888672 399.046631 811.482483 399.093506 C 814.076233 399.140381 816.138855 401.301758 816.091858 403.89563 C 816.044983 406.437256 813.93042 408.505005 811.388855 408.505005 L 811.289856 408.505005 Z M 811.67511 389.692993 C 809.08136 389.646118 807.01886 387.484741 807.065857 384.890869 C 807.112732 382.297119 809.227295 380.234619 811.86792 380.281494 C 814.46167 380.328369 816.524231 382.489746 816.477295 385.083618 C 816.43042 387.677368 814.315857 389.692993 811.774231 389.692993 L 811.675293 389.692993 Z M 812.039734 370.87561 C 809.445984 370.828735 807.383484 368.667358 807.43042 366.073486 C 807.477295 363.479614 809.591858 361.417236 812.232483 361.464233 C 814.826233 361.511108 816.888855 363.672485 816.841858 366.266357 C 816.794983 368.860107 814.68042 370.87561 812.138855 370.87561 L 812.039856 370.87561 Z M 812.42511 352.05835 C 809.784485 352.011475 807.76886 349.850098 807.815857 347.256226 C 807.862732 344.662476 809.977295 342.599976 812.61792 342.646851 C 815.21167 342.693726 817.274231 344.855103 817.180481 347.448975 C 817.180481 350.042725 815.065918 352.05835 812.524231 352.05835 L 812.425293 352.05835 Z M 812.810547 333.246338 C 810.169922 333.199463 808.154297 331.038086 808.154297 328.444214 C 808.248047 325.850464 810.362549 323.787964 813.003235 323.834839 C 815.596924 323.881714 817.659485 326.043091 817.565735 328.636963 C 817.51886 331.230713 815.451233 333.246338 812.909485 333.246338 L 812.810547 333.246338 Z M 812.841797 314.188965 C 812.232422 311.647461 813.83136 309.100464 816.378174 308.543091 C 818.919861 307.980591 821.419861 309.532715 822.024109 312.07959 C 822.586609 314.621094 820.982422 317.168091 818.45636 317.725342 C 818.117737 317.819092 817.753235 317.819092 817.414734 317.819092 C 815.242859 317.803467 813.320984 316.350342 812.841736 314.188843 Z M 831.191162 309.996338 C 830.581787 307.454712 832.180725 304.954712 834.727539 304.397461 C 837.269104 303.788086 839.769104 305.386963 840.373352 307.933838 C 840.935974 310.475342 839.331726 313.022339 836.790039 313.579712 C 836.472351 313.626587 836.086975 313.673462 835.748352 313.673462 C 833.592102 313.657837 831.654724 312.20459 831.191101 309.996338 Z M 849.545837 305.850464 C 848.936462 303.308838 850.5354 300.808838 853.082214 300.20459 C 855.623779 299.64209 858.170715 301.246216 858.728088 303.787964 C 859.290588 306.32959 857.686462 308.82959 855.160339 309.386841 C 854.821777 309.480591 854.457214 309.532715 854.118652 309.532715 C 851.993591 309.532715 850.009338 308.027466 849.545715 305.850464 Z M 867.87915 301.725342 C 867.31665 299.183838 868.868713 296.652466 871.415527 296.07959 C 873.957092 295.51709 876.504089 297.121216 877.061462 299.647217 C 877.623962 302.14209 876.019775 304.688843 873.493652 305.246216 C 873.15509 305.339966 872.837402 305.39209 872.451965 305.39209 C 870.332275 305.386841 868.363464 303.881592 867.879089 301.725342 Z M 886.233826 297.532715 C 885.671326 294.991089 887.275452 292.491089 889.801514 291.933838 C 892.296326 291.371338 894.843201 292.92334 895.400452 295.470215 C 895.962952 298.011841 894.358826 300.543091 891.864075 301.116089 C 891.494324 301.209839 891.16095 301.209839 890.791199 301.209839 C 888.681824 301.194214 886.744202 299.740967 886.233826 297.532715 Z M 904.58844 293.386841 C 904.02594 290.845215 905.630127 288.345215 908.15625 287.787964 C 910.697815 287.178589 913.197815 288.777588 913.755127 291.324341 C 914.317627 293.865967 912.765564 296.365967 910.21875 296.970215 C 909.833313 297.01709 909.515625 297.063965 909.177063 297.063965 C 907.036377 297.069092 905.098938 295.595215 904.588562 293.386841 Z M 922.921814 289.261841 C 922.359314 286.720215 923.96344 284.220215 926.489563 283.615967 C 928.984375 283.053467 931.531189 284.657593 932.08844 287.183716 C 932.697815 289.72522 931.098877 292.22522 928.552063 292.82959 C 928.166687 292.876465 927.848938 292.92334 927.510437 292.92334 C 925.36969 292.92334 923.453064 291.470215 922.921875 289.261841 Z M 941.276428 285.115967 C 940.713928 282.574341 942.318115 280.027344 944.859802 279.470093 C 947.401428 278.907593 949.885803 280.511719 950.45874 283.00647 C 951.068115 285.548096 949.469177 288.094971 946.922363 288.652344 C 946.536926 288.746094 946.219238 288.798218 945.880676 288.798218 C 943.724426 288.777344 941.786926 287.277344 941.27655 285.115967 Z M 959.677795 280.923218 C 959.06842 278.381714 960.667419 275.881714 963.214172 275.324341 C 965.755798 274.761841 968.255798 276.313965 968.860107 278.860718 C 969.422607 281.402344 967.81842 283.949219 965.292297 284.506592 C 964.953796 284.600342 964.589172 284.600342 964.250671 284.600342 C 962.073669 284.605591 960.141357 283.131592 959.677734 280.92334 Z M 978.011169 276.777344 C 977.401794 274.23584 979.000732 271.73584 981.547546 271.178467 C 984.089111 270.569092 986.636047 272.168091 987.19342 274.714844 C 987.75592 277.25647 986.151794 279.75647 983.610107 280.360718 C 983.292419 280.407593 982.906982 280.454468 982.56842 280.454468 C 980.412109 280.459717 978.490295 279.001465 978.011047 276.777466 Z M 996.365784 272.652344 C 995.803284 270.110718 997.355408 267.610718 999.902161 267.00647 C 1002.443848 266.44397 1004.990723 268.048096 1005.548096 270.589844 C 1006.110596 273.131348 1004.506409 275.631348 1001.980286 276.188721 C 1001.641785 276.282471 1001.277283 276.334595 1000.93866 276.334595 C 998.81366 276.313721 996.829346 274.813721 996.365723 272.652344 Z M 1014.715149 268.50647 C 1014.152649 265.964844 1015.756836 263.417969 1018.251526 262.860596 C 1020.793152 262.298096 1023.340088 263.902222 1023.8974 266.428345 C 1024.459839 268.923096 1022.855713 271.469971 1020.361023 272.027222 C 1019.975586 272.120972 1019.657898 272.120972 1019.272461 272.120972 C 1017.163147 272.126221 1015.178711 270.667969 1014.715149 268.50647 Z M 1033.053833 264.313843 C 1032.491333 261.81897 1034.095459 259.272217 1036.621582 258.714844 C 1039.116333 258.105469 1041.663208 259.704468 1042.220459 262.251221 C 1042.782959 264.792847 1041.230835 267.339844 1038.684082 267.897095 C 1038.314331 267.94397 1037.980957 267.990845 1037.642456 267.990845 C 1035.501709 267.996094 1033.564331 266.522095 1033.053833 264.313843 Z M 1051.403198 260.188721 C 1050.840698 257.647095 1052.444824 255.147095 1054.98645 254.542847 C 1057.481323 253.980347 1060.012451 255.584473 1060.585449 258.110596 C 1061.147949 260.652222 1059.595825 263.152222 1057.04895 263.75647 C 1056.663574 263.803345 1056.345825 263.85022 1056.007324 263.85022 C 1053.851074 263.85022 1051.918823 262.397217 1051.403198 260.188721 Z M 1069.757813 256.042847 C 1069.195313 253.501221 1070.799438 250.969971 1073.325562 250.396973 C 1075.867065 249.834473 1078.367065 251.438721 1078.924438 253.964722 C 1079.533813 256.506348 1077.934937 259.006348 1075.388062 259.563721 C 1075.002686 259.657471 1074.684937 259.709473 1074.346436 259.709473 C 1072.190063 259.709473 1070.268311 258.204346 1069.757935 256.042847 Z M 1088.143188 251.896973 C 1087.533813 249.355469 1089.13269 246.808472 1091.679565 246.251099 C 1094.221069 245.688599 1096.705566 247.292847 1097.325439 249.818848 C 1097.887939 252.313721 1096.283813 254.860474 1093.742065 255.417847 C 1093.424438 255.511597 1093.03894 255.511597 1092.700439 255.511597 C 1090.53894 255.516724 1088.606689 254.058472 1088.143066 251.896973 Z M 1106.492554 247.709473 C 1105.929932 245.214722 1107.482056 242.667969 1110.028931 242.110596 C 1112.570435 241.548096 1115.070435 243.10022 1115.674683 245.646973 C 1116.237183 248.188599 1114.633057 250.688599 1112.107056 251.292847 C 1111.768433 251.339722 1111.403931 251.386597 1111.065308 251.386597 C 1108.893433 251.386597 1106.955933 249.933594 1106.492432 247.709595 Z M 1124.831177 243.579224 C 1124.268677 241.037598 1125.820679 238.537598 1128.367554 237.93335 C 1130.90918 237.37085 1133.456055 238.975098 1134.013428 241.501099 C 1134.575928 244.042725 1132.971802 246.542725 1130.430054 247.146973 C 1130.112427 247.193848 1129.726929 247.240723 1129.388428 247.240723 C 1127.232178 247.245972 1125.310303 245.78772 1124.831055 243.579346 Z M 1143.180542 239.43335 C 1142.618042 236.891846 1144.222168 234.344849 1146.716919 233.787598 C 1149.242798 233.225098 1151.789795 234.829224 1152.362671 237.37085 C 1152.925171 239.912476 1151.373169 242.412476 1148.826294 242.969849 C 1148.440918 243.063599 1148.123169 243.115601 1147.753418 243.115601 C 1145.628296 243.099976 1143.696167 241.594849 1143.180542 239.43335 Z M 1161.535156 235.292725 C 1160.972656 232.751099 1162.576782 230.204224 1165.102905 229.646851 C 1167.597656 229.084351 1170.144409 230.688477 1170.701782 233.230225 C 1171.264282 235.724976 1169.660156 238.271851 1167.165405 238.829102 C 1166.780029 238.922852 1166.46228 238.974976 1166.076904 238.974976 C 1163.983154 238.969727 1162.045654 237.469727 1161.535278 235.292725 Z M 1179.86853 231.115723 C 1179.30603 228.574097 1180.910156 226.074097 1183.436157 225.516724 C 1185.977783 224.954224 1188.477783 226.506348 1189.035156 229.053101 C 1189.597656 231.594727 1188.045532 234.141602 1185.498779 234.698975 C 1185.113403 234.74585 1184.795654 234.792725 1184.457153 234.792725 C 1182.316406 234.7771 1180.39978 233.323975 1179.86853 231.115723 Z M 1198.223145 226.969849 C 1197.660645 224.428223 1199.264771 221.928223 1201.806519 221.323975 C 1204.348022 220.761475 1206.832397 222.365601 1207.452271 224.907227 C 1207.962769 227.448853 1206.410645 229.948853 1203.884644 230.506226 C 1203.546021 230.599976 1203.181519 230.6521 1202.842896 230.6521 C 1200.671021 230.636475 1198.733643 229.131226 1198.223267 226.969727 Z M 1216.624512 222.829102 C 1215.999512 220.282227 1217.598511 217.756226 1220.145264 217.178101 C 1222.68689 216.615601 1225.18689 218.219727 1225.791138 220.74585 C 1226.353638 223.287354 1224.749512 225.787354 1222.223389 226.344727 C 1221.884888 226.438477 1221.520264 226.490601 1221.181763 226.490601 C 1219.009888 226.490601 1217.088013 224.985352 1216.62439 222.829102 Z"/>
    <path id="path2" fill="#000000" stroke="#000000" stroke-width="8" d="M 804.159973 316.426636 C 801.618408 315.864136 800.01416 313.32251 800.592285 310.780762 C 801.154785 308.286011 803.69635 306.687012 806.238098 307.244385 C 808.73291 307.806885 810.331848 310.301758 809.774475 312.843384 C 809.310974 315.051636 807.373474 316.504761 805.211975 316.504761 C 804.863037 316.520386 804.4776 316.520386 804.159912 316.426636 Z M 785.758606 312.280762 C 783.263855 311.718262 781.664978 309.223511 782.222229 306.681885 C 782.784729 304.140259 785.279602 302.536011 787.821228 303.114136 C 790.362793 303.676636 791.967041 306.218262 791.388916 308.76001 C 790.878479 310.921509 788.941101 312.421509 786.779602 312.421509 C 786.461914 312.426636 786.144226 312.379761 785.758789 312.280884 Z M 767.403992 308.187012 C 764.862366 307.624512 763.258118 305.129761 763.867615 302.588135 C 764.377991 300.046509 766.924988 298.442261 769.466553 299.004761 C 772.008118 299.567261 773.612366 302.062134 773.034241 304.60376 C 772.523865 306.812012 770.586426 308.265137 768.424988 308.265137 C 768.112488 308.280762 767.789551 308.280762 767.404114 308.187012 Z M 749.070618 304.108887 C 746.529053 303.546387 744.924805 301.004761 745.50293 298.463135 C 746.06543 295.921509 748.607117 294.317139 751.148743 294.926636 C 753.643616 295.437012 755.242493 297.984009 754.685242 300.525635 C 754.22168 302.733887 752.237305 304.187012 750.12262 304.187012 C 749.726807 304.202637 749.388245 304.155762 749.070557 304.108887 Z M 730.669373 299.963135 C 728.174561 299.400635 726.575623 296.905762 727.132874 294.364136 C 727.695496 291.82251 730.190247 290.218262 732.731873 290.780762 C 735.257874 291.343262 736.877747 293.838135 736.299561 296.379761 C 735.789246 298.588013 733.851746 300.093384 731.690247 300.093384 C 731.372559 300.109009 731.054871 300.056885 730.669434 299.963135 Z M 712.314697 295.864136 C 709.77301 295.301636 708.168762 292.76001 708.746887 290.218262 C 709.309387 287.676636 711.851074 286.124512 714.392822 286.681885 C 716.934387 287.244385 718.538635 289.739258 717.929199 292.280762 C 717.465637 294.442261 715.528137 295.942261 713.366699 295.942261 C 713.038574 295.963135 712.700012 295.91626 712.314636 295.864136 Z M 693.981384 291.723511 C 691.439697 291.161011 689.835449 288.666138 690.413574 286.124512 C 690.976074 283.582886 693.517761 281.978638 696.059509 282.54126 C 698.55426 283.10376 700.153259 285.645264 699.595886 288.187012 C 699.132324 290.348511 697.194824 291.848511 695.033386 291.848511 C 694.684387 291.864136 694.299011 291.817261 693.981262 291.723511 Z M 675.580017 287.640137 C 673.085205 287.077637 671.486267 284.536011 672.04364 282.04126 C 672.60614 279.499634 675.100952 277.895264 677.642517 278.457886 C 680.184143 279.020386 681.788391 281.515137 681.225891 284.056763 C 680.715454 286.265137 678.778015 287.718262 676.616516 287.718262 C 676.283203 287.723511 675.965515 287.723511 675.580078 287.640137 Z M 657.246643 283.546387 C 654.705078 282.937012 653.100769 280.442261 653.678894 277.900513 C 654.241455 275.358887 656.783081 273.754639 659.324768 274.317139 C 661.866394 274.879639 663.470642 277.421387 662.892517 279.963135 C 662.382141 282.124512 660.444641 283.624512 658.283203 283.624512 C 657.94989 283.640137 657.564453 283.593262 657.246765 283.546387 Z M 638.892029 279.400513 C 636.350403 278.838013 634.746155 276.343262 635.308655 273.801636 C 635.871216 271.26001 638.412781 269.655762 640.954529 270.218262 C 643.496277 270.780762 645.048279 273.275635 644.490906 275.817139 C 644.027405 278.025513 642.089905 279.530762 639.928406 279.530762 C 639.595032 279.546387 639.209656 279.499512 638.891907 279.400635 Z M 620.490662 275.306763 C 617.99585 274.744263 616.396912 272.202637 616.954285 269.660889 C 617.516785 267.119385 620.011597 265.515137 622.553162 266.124512 C 625.094788 266.687012 626.699036 269.181885 626.136536 271.723511 C 625.657349 273.931763 623.68866 275.384888 621.574036 275.384888 C 621.193787 275.400513 620.876099 275.353638 620.490662 275.306763 Z M 602.157349 271.176514 C 599.615723 270.614014 598.011475 268.119141 598.5896 265.577637 C 599.1521 263.036011 601.693726 261.431763 604.235474 261.994263 C 606.777161 262.556763 608.381348 265.098389 607.803162 267.640137 C 607.292786 269.801636 605.355347 271.301636 603.193848 271.301636 C 602.860535 271.306763 602.521973 271.259888 602.15741 271.176636 Z M 583.802673 267.082764 C 581.261047 266.520264 579.656799 263.978638 580.219299 261.483887 C 580.781799 258.942261 583.276672 257.338013 585.818298 257.916138 C 588.359863 258.478638 589.964172 260.973511 589.385986 263.515137 C 588.922424 265.723389 586.984924 267.176514 584.823486 267.176514 C 584.505798 267.176514 584.141174 267.129639 583.802673 267.082764 Z M 565.453308 262.93689 C 562.911743 262.37439 561.307434 259.879639 561.88562 257.338013 C 562.44812 254.796387 564.942932 253.192139 567.484558 253.754639 C 570.026123 254.317139 571.630432 256.858765 571.067871 259.400513 C 570.588684 261.562012 568.619995 263.062012 566.50531 263.062012 C 566.109497 263.082764 565.78656 263.035889 565.453247 262.937012 Z M 547.067993 258.843262 C 544.526428 258.280762 542.974304 255.739014 543.500305 253.244263 C 544.062805 250.702637 546.604431 249.098389 549.146118 249.676514 C 551.687744 250.239014 553.291992 252.733887 552.713867 255.275513 C 552.20343 257.483765 550.265991 258.93689 548.104553 258.93689 C 547.771179 258.93689 547.385803 258.93689 547.068054 258.84314 Z M 528.713318 254.744263 C 526.171753 254.134888 524.567444 251.640137 525.130005 249.098389 C 525.692505 246.556763 528.234131 244.952515 530.728943 245.515137 C 533.270569 246.077637 534.874817 248.619141 534.296692 251.160889 C 533.83313 253.322388 531.895569 254.822388 529.734131 254.822388 C 529.416443 254.843262 529.051819 254.796387 528.713318 254.744263 Z M 510.380005 250.619141 C 507.838409 250.056641 506.234131 247.56189 506.812256 245.020264 C 507.374756 242.478638 509.869598 240.87439 512.411194 241.452515 C 514.95282 242.015015 516.557068 244.556641 515.994568 247.051514 C 515.51532 249.259766 513.546692 250.765137 511.432007 250.765137 C 511.036163 250.759888 510.697632 250.713013 510.379913 250.619263 Z M 491.978668 246.520264 C 489.437042 245.957764 487.832794 243.416138 488.410919 240.87439 C 488.973419 238.332764 491.515045 236.728516 494.056793 237.338013 C 496.598389 237.900513 498.202667 240.395264 497.624542 242.93689 C 497.114136 245.145264 495.176666 246.598389 493.015228 246.598389 C 492.681885 246.619263 492.348541 246.572388 491.97876 246.520264 Z M 473.623993 242.379639 C 471.082397 241.817139 469.478149 239.322266 470.040649 236.78064 C 470.60318 234.239014 473.144806 232.634766 475.639618 233.212891 C 478.181183 233.775391 479.785492 236.317017 479.207306 238.858765 C 478.743774 241.020264 476.759491 242.520264 474.644806 242.520264 C 474.280243 242.520264 473.962524 242.473389 473.623993 242.379639 Z M 455.290649 238.28064 C 452.749054 237.71814 451.144806 235.176514 451.722931 232.681763 C 452.285431 230.140137 454.780273 228.535889 457.321869 229.114014 C 459.863495 229.676514 461.467743 232.171387 460.905182 234.712891 C 460.426025 236.921143 458.457306 238.37439 456.295868 238.37439 C 455.946899 238.379639 455.608368 238.379639 455.290649 238.28064 Z M 436.889313 234.202515 C 434.347748 233.640015 432.743439 231.098389 433.321625 228.556641 C 433.931 226.015137 436.425751 224.410767 438.967438 224.988892 C 441.509064 225.598267 443.113312 228.093018 442.535187 230.634766 C 442.02478 232.843018 440.087311 234.296265 437.925873 234.296265 C 437.592529 234.296265 437.227936 234.24939 436.889404 234.202515 Z M 418.556 230.056641 C 416.014404 229.494141 414.410126 226.999268 414.972656 224.457764 C 415.535187 221.916138 418.076782 220.31189 420.571625 220.890015 C 423.11319 221.452515 424.717438 223.994141 424.139313 226.488892 C 423.675781 228.697266 421.691437 230.202515 419.529999 230.202515 C 419.207062 230.202515 418.873749 230.15564 418.55603 230.056641 Z M 400.201324 225.962891 C 397.65976 225.400391 396.05545 222.858765 396.633575 220.317017 C 397.196136 217.775513 399.690918 216.223389 402.232544 216.749268 C 404.774139 217.358643 406.378418 219.853516 405.815887 222.395264 C 405.3367 224.556641 403.368011 226.056641 401.253326 226.056641 C 400.857513 226.056641 400.518951 226.009766 400.201263 225.962891 Z"/>
    <path id="path3" fill="#000000" stroke="#000000" stroke-width="20" d="M 1100.34668 148.626709 L 1105.237305 140.590332 L 1226.409302 214.3396 L 1221.518677 222.375977 Z"/>
    <path id="path4" fill="#000000" stroke="#000000" stroke-width="8" d="M 514.320007 1460.533325 C 513.517883 1458.038574 514.929382 1455.413574 517.424133 1454.647827 C 519.918945 1453.897827 522.543884 1455.304199 523.309631 1457.751953 C 524.059631 1460.246704 522.653381 1462.871704 520.158508 1463.637573 C 519.741882 1463.783325 519.262695 1463.877075 518.799194 1463.877075 C 516.768005 1463.877075 514.945068 1462.569824 514.320007 1460.533325 Z M 508.788818 1442.517212 C 508.038818 1440.069458 509.445068 1437.444336 511.93985 1436.631836 C 514.434631 1435.881836 517.028381 1437.288086 517.825317 1439.782837 C 518.575317 1442.27771 517.169067 1444.90271 514.674255 1445.668457 C 514.195129 1445.814331 513.778442 1445.845581 513.314941 1445.845581 C 511.283722 1445.861206 509.439972 1444.600708 508.78894 1442.517456 Z M 503.2836 1424.547974 C 502.5336 1422.053223 503.93985 1419.428223 506.434662 1418.662598 C 508.929474 1417.912598 511.523193 1419.318848 512.320129 1421.766602 C 513.070129 1424.261353 511.66391 1426.886353 509.169067 1427.652222 C 508.689911 1427.797974 508.273224 1427.891724 507.809723 1427.891724 C 505.778534 1427.891724 503.939972 1426.584473 503.283722 1424.547974 Z M 497.778412 1406.532104 C 497.028412 1404.084106 498.434662 1401.443481 500.929474 1400.693481 C 503.424286 1399.943481 506.017975 1401.302856 506.814941 1403.797485 C 507.564941 1406.29248 506.158691 1408.917358 503.663849 1409.683105 C 503.184692 1409.828979 502.768036 1409.875854 502.304535 1409.875854 C 500.257599 1409.875854 498.434814 1408.615356 497.778534 1406.532104 Z M 492.273193 1388.567993 C 491.523193 1386.073242 492.929443 1383.448242 495.424286 1382.682495 C 497.872162 1381.932495 500.512817 1383.29187 501.247192 1385.786621 C 502.049286 1388.281372 500.637817 1390.906372 498.143066 1391.672241 C 497.66391 1391.817993 497.247223 1391.911743 496.783722 1391.911743 C 494.752533 1391.911743 492.88266 1390.583618 492.273315 1388.567993 Z M 486.767975 1370.546753 C 486.017975 1368.098755 487.424225 1365.45813 489.872162 1364.70813 C 492.366943 1363.906128 495.007599 1365.317505 495.757599 1367.812378 C 496.559692 1370.307129 495.148224 1372.900879 492.653473 1373.697754 C 492.174286 1373.843628 491.757599 1373.890503 491.294159 1373.890503 C 489.252533 1373.890503 487.377472 1372.630005 486.768158 1370.546753 Z M 481.252411 1352.582642 C 480.502411 1350.087891 481.908661 1347.447144 484.356537 1346.697144 C 486.851318 1345.947144 489.476288 1347.353394 490.241974 1349.848267 C 490.991974 1352.296143 489.632599 1354.936768 487.137848 1355.733765 C 486.674316 1355.879517 486.19516 1355.926392 485.778534 1355.926392 C 483.747314 1355.926392 481.872284 1354.598267 481.252533 1352.582642 Z M 475.747192 1334.613403 C 474.997192 1332.11853 476.356567 1329.49353 478.851318 1328.727905 C 481.346161 1327.925781 483.971069 1329.33728 484.736816 1331.832031 C 485.486816 1334.326782 484.127441 1336.951782 481.63266 1337.717407 C 481.169098 1337.863281 480.689941 1337.910156 480.273315 1337.910156 C 478.242157 1337.910156 476.372284 1336.628906 475.747314 1334.613159 Z M 470.257599 1316.59729 C 469.507599 1314.102539 470.866974 1311.477661 473.361725 1310.711792 C 475.856537 1309.961792 478.481476 1311.368042 479.247192 1313.862915 C 479.997192 1316.310791 478.590942 1318.951538 476.143066 1319.748413 C 475.679535 1319.842163 475.200348 1319.94104 474.783722 1319.94104 C 472.736816 1319.94104 470.867065 1318.612915 470.257721 1316.597412 Z M 464.752411 1298.628052 C 464.002411 1296.133179 465.361786 1293.508301 467.856537 1292.742554 C 470.351318 1291.992554 472.976288 1293.351929 473.741974 1295.84668 C 474.491974 1298.341431 473.085724 1300.966431 470.637848 1301.732056 C 470.174316 1301.878052 469.69516 1301.924805 469.231598 1301.924805 C 467.236816 1301.90918 465.361847 1300.643555 464.752411 1298.62793 Z M 459.252411 1280.611938 C 458.502411 1278.117188 459.861786 1275.49231 462.356537 1274.726563 C 464.851318 1273.976563 467.476288 1275.382813 468.241974 1277.830688 C 468.991974 1280.325439 467.585724 1282.950439 465.137848 1283.716187 C 464.674316 1283.861938 464.19516 1283.955688 463.731598 1283.955688 C 461.731598 1283.940063 459.856659 1282.627563 459.252411 1280.611938 Z M 453.747192 1262.6427 C 452.945099 1260.147827 454.356567 1257.522949 456.851318 1256.757202 C 459.346161 1256.007202 461.971069 1257.366577 462.736816 1259.861328 C 463.486816 1262.356079 462.080566 1264.981079 459.63266 1265.746826 C 459.169098 1265.8927 458.689941 1265.92395 458.22641 1265.92395 C 456.19519 1265.92395 454.356659 1264.658325 453.747192 1262.6427 Z M 448.241974 1244.626587 C 447.439911 1242.131836 448.851349 1239.538208 451.346161 1238.741211 C 453.840942 1237.991211 456.465851 1239.397461 457.231598 1241.892212 C 457.981598 1244.387085 456.575348 1246.980835 454.127472 1247.730835 C 453.66391 1247.876587 453.184784 1247.970337 452.721191 1247.970337 C 450.674286 1247.954712 448.851471 1246.642212 448.241974 1244.626587 Z M 442.736816 1226.6427 C 441.934723 1224.147827 443.346191 1221.522949 445.840942 1220.757202 C 448.335724 1220.007202 450.960663 1221.366577 451.72641 1223.861328 C 452.47641 1226.356079 451.07016 1228.981079 448.575317 1229.746826 C 448.158661 1229.8927 447.679474 1229.939575 447.215973 1229.939575 C 445.169067 1229.939575 443.346283 1228.67395 442.736816 1226.642578 Z M 437.184662 1208.626587 C 436.434662 1206.131836 437.840912 1203.538208 440.335724 1202.741211 C 442.830536 1201.991211 445.424286 1203.397461 446.221191 1205.892212 C 446.971191 1208.387085 445.564941 1211.011963 443.07016 1211.77771 C 442.637848 1211.923584 442.174286 1211.970459 441.710815 1211.970459 C 439.663849 1211.970459 437.841064 1210.657959 437.184814 1208.626709 Z M 431.684662 1190.657349 C 430.934662 1188.162476 432.340912 1185.537598 434.835724 1184.771851 C 437.330536 1183.969849 439.924286 1185.381226 440.721191 1187.875977 C 441.471191 1190.370728 440.064941 1192.995728 437.57016 1193.761475 C 437.137848 1193.907349 436.674286 1193.954224 436.210815 1193.954224 C 434.163849 1193.954224 432.341064 1192.688599 431.684814 1190.657227 Z M 426.179474 1172.641357 C 425.429474 1170.146606 426.835724 1167.505859 429.330536 1166.755859 C 431.825348 1166.005859 434.403473 1167.412109 435.215973 1169.90686 C 435.965973 1172.401733 434.559723 1174.995483 432.064941 1175.792358 C 431.60141 1175.938232 431.169098 1175.985107 430.705597 1175.985107 C 428.674408 1175.985107 426.835846 1174.672607 426.179596 1172.641357 Z M 420.674286 1154.671997 C 419.924286 1152.177124 421.330536 1149.552246 423.825317 1148.786499 C 426.32016 1148.036499 428.913849 1149.395874 429.663849 1151.890747 C 430.465942 1154.385498 429.054474 1157.010376 426.559723 1157.776123 C 426.096191 1157.921997 425.66391 1157.968872 425.200409 1157.968872 C 423.169189 1157.968872 421.283722 1156.687622 420.674408 1154.671875 Z M 415.169067 1136.656006 C 414.419067 1134.161255 415.825317 1131.536255 418.32016 1130.770508 C 420.814941 1130.020508 423.408661 1131.426758 424.158661 1133.921631 C 424.960724 1136.369507 423.549286 1139.010132 421.054535 1139.807007 C 420.590973 1139.952881 420.111816 1139.999756 419.69519 1139.999756 C 417.663971 1139.999756 415.778534 1138.671631 415.169189 1136.656006 Z M 409.663849 1118.686646 C 408.913849 1116.191895 410.320099 1113.566895 412.767975 1112.801147 C 415.262817 1112.051147 417.887726 1113.410522 418.653473 1115.905396 C 419.455566 1118.400146 418.044098 1121.025024 415.549316 1121.790771 C 415.085785 1121.936646 414.606598 1122.030396 414.189972 1122.030396 C 412.163971 1122.014771 410.273315 1120.702271 409.663971 1118.686646 Z M 404.163849 1100.670654 C 403.413849 1098.175903 404.820099 1095.582153 407.267975 1094.785278 C 409.762817 1094.035278 412.387726 1095.441528 413.153473 1097.936279 C 413.903473 1100.43103 412.544098 1103.02478 410.049316 1103.77478 C 409.57016 1103.951904 409.090973 1103.998779 408.627472 1103.998779 C 406.658661 1103.998779 404.768158 1102.686279 404.163849 1100.670654 Z M 398.658661 1082.701416 C 397.908661 1080.206543 399.314911 1077.581543 401.762817 1076.815918 C 404.257599 1076.065918 406.882538 1077.425293 407.648285 1079.919922 C 408.398285 1082.414795 407.03891 1085.039795 404.544159 1085.80542 C 404.080566 1085.951416 403.60144 1086.045166 403.137848 1086.045166 C 401.153473 1086.029541 399.268158 1084.717041 398.658661 1082.701416 Z M 393.153473 1064.685303 C 392.403473 1062.237549 393.762848 1059.59668 396.257599 1058.799805 C 398.752411 1058.049805 401.377319 1059.456055 402.143066 1061.950928 C 402.893066 1064.445801 401.533691 1067.070557 399.03894 1067.836426 C 398.575409 1067.982178 398.096222 1068.029053 397.63266 1068.029053 C 395.648285 1068.013428 393.762939 1066.700928 393.153473 1064.685303 Z M 387.648285 1046.701416 C 386.898285 1044.206543 388.25766 1041.581543 390.752411 1040.815918 C 393.247192 1040.065918 395.872162 1041.425293 396.637848 1043.919922 C 397.387848 1046.414795 395.981598 1049.039795 393.486816 1049.80542 C 393.054535 1049.951416 392.590942 1050.045166 392.127472 1050.045166 C 390.096283 1050.045166 388.257721 1048.732666 387.648285 1046.701416 Z M 1223.301636 1038.144043 C 1221.046387 1036.831543 1220.291138 1033.951416 1221.60376 1031.696045 C 1222.869385 1029.440918 1225.749634 1028.685791 1228.004761 1029.951416 C 1230.26001 1031.263916 1231.015259 1034.144043 1229.749634 1036.39917 C 1228.85376 1037.904297 1227.301758 1038.753418 1225.655884 1038.753418 C 1224.85376 1038.763672 1224.051758 1038.576172 1223.301758 1038.144043 Z M 387.514923 1031.612793 C 386.249298 1029.357666 387.051392 1026.493164 389.306671 1025.21167 C 391.561859 1023.946106 394.426392 1024.748291 395.707733 1027.050293 C 396.973358 1029.30542 396.171265 1032.169922 393.916016 1033.451416 C 393.166016 1033.83667 392.410797 1034.013916 391.613861 1034.013916 C 389.962799 1033.998291 388.363861 1033.164795 387.514923 1031.612793 Z M 1236.274902 1030.987793 C 1234.306152 1029.24292 1234.1604 1026.284668 1235.905151 1024.347168 C 1237.603027 1022.409668 1240.561401 1022.232605 1242.530151 1023.961731 C 1244.467651 1025.706543 1244.592773 1028.664795 1242.915649 1030.602295 C 1241.9729 1031.644043 1240.707397 1032.154541 1239.379272 1032.154541 C 1238.259399 1032.175293 1237.171021 1031.790039 1236.275024 1030.987793 Z M 1207.029663 1028.685547 C 1204.774414 1027.419922 1204.019165 1024.539795 1205.28479 1022.284607 C 1206.59729 1020.029358 1209.477417 1019.27417 1211.732666 1020.539795 C 1213.987915 1021.852295 1214.743042 1024.732422 1213.430542 1026.987549 C 1212.581543 1028.49292 1210.982666 1029.341797 1209.383667 1029.341797 C 1208.581543 1029.357422 1207.779419 1029.11792 1207.029419 1028.685547 Z M 403.922943 1022.430481 C 402.641693 1020.175293 403.459381 1017.31073 405.714691 1016.029358 C 408.016815 1014.748108 410.834381 1015.550232 412.115723 1017.821106 C 413.381348 1020.076355 412.579254 1022.940857 410.324005 1024.222168 C 409.62088 1024.654541 408.818817 1024.831543 408.021851 1024.831543 C 406.370819 1024.831543 404.766693 1023.982605 403.922943 1022.430481 Z M 1190.709595 1019.279358 C 1188.501343 1017.966858 1187.699219 1015.086731 1189.011719 1012.878357 C 1190.324219 1010.623108 1193.204468 1009.820984 1195.459595 1011.133545 C 1197.667847 1012.446045 1198.469971 1015.326172 1197.157471 1017.534607 C 1196.308472 1019.086731 1194.709595 1019.888733 1193.063721 1019.888733 C 1192.261597 1019.883545 1191.464722 1019.71167 1190.709595 1019.279358 Z M 1248.808228 1016.972107 C 1246.870728 1015.227295 1246.693726 1012.268982 1248.422852 1010.300232 C 1250.167603 1008.362732 1253.125854 1008.23761 1255.063599 1009.982483 C 1257.032349 1011.680359 1257.178101 1014.685547 1255.448853 1016.607605 C 1254.506226 1017.649231 1253.240601 1018.159668 1251.959351 1018.159668 C 1250.823853 1018.159668 1249.704102 1017.774231 1248.808228 1016.972168 Z M 420.341583 1013.21167 C 419.060333 1010.956482 419.862427 1008.09198 422.133331 1006.810608 C 424.38855 1005.529358 427.300018 1006.378357 428.534393 1008.64917 C 429.815643 1010.904297 429.01355 1013.76886 426.742676 1015.050232 C 425.992676 1015.466858 425.237457 1015.659607 424.440552 1015.659607 C 422.789459 1015.659607 421.185333 1014.763733 420.341583 1013.21167 Z M 1174.421631 1009.86792 C 1172.166382 1008.55542 1171.411255 1005.675293 1172.723755 1003.420105 C 1174.005005 1001.164856 1176.869629 1000.409668 1179.124878 1001.722168 C 1181.380005 1002.987793 1182.135132 1005.914856 1180.869629 1008.123291 C 1179.973755 1009.628479 1178.421753 1010.477356 1176.775879 1010.477356 C 1175.973755 1010.477356 1175.171753 1010.300293 1174.421753 1009.867981 Z M 436.754913 1004.044983 C 435.489288 1001.789795 436.291382 998.925293 438.546661 997.643982 C 440.848785 996.362732 443.666382 997.164795 444.947723 999.435608 C 446.229004 1001.737793 445.42691 1004.602295 443.156006 1005.836731 C 442.406006 1006.253418 441.650787 1006.446106 440.853882 1006.446106 C 439.202789 1006.446106 437.603882 1005.597168 436.754913 1004.044983 Z M 1261.368286 1002.909607 C 1259.399536 1001.211731 1259.253784 998.253357 1260.951538 996.26886 C 1262.696411 994.331482 1265.701538 994.20636 1267.623413 995.883545 C 1269.560913 997.628357 1269.738037 1000.586609 1268.008911 1002.52417 C 1267.066162 1003.597107 1265.800659 1004.123108 1264.472534 1004.123108 C 1263.337036 1004.143982 1262.248413 1003.758545 1261.368286 1002.909607 Z M 1158.154907 1000.461731 C 1155.89978 999.149231 1155.144531 996.269043 1156.457031 994.013855 C 1157.738281 991.758606 1160.602905 991.003418 1162.858154 992.315979 C 1165.113403 993.581604 1165.86853 996.461853 1164.55603 998.717041 C 1163.707031 1000.222229 1162.154907 1001.071228 1160.509033 1001.071228 C 1159.706909 1001.071228 1158.904907 1000.894104 1158.154907 1000.461853 Z M 453.18161 994.862793 C 451.915985 992.560608 452.718048 989.727295 454.973358 988.461731 C 457.228516 987.180481 460.093048 987.99823 461.421173 990.253418 C 462.634766 992.508606 461.83786 995.37323 459.582672 996.654541 C 458.879547 997.071228 458.077484 997.263916 457.280518 997.263916 C 455.629486 997.263916 454.030518 996.368103 453.18161 994.862793 Z M 1141.888306 991.008606 C 1139.633057 989.727356 1138.877808 986.862793 1140.143433 984.607605 C 1141.455933 982.352356 1144.33606 981.597168 1146.591309 982.862793 C 1148.846558 984.175293 1149.601685 987.05542 1148.289185 989.310608 C 1147.440308 990.815857 1145.841309 991.664795 1144.24231 991.664795 C 1143.440186 991.659607 1142.596436 991.487732 1141.888062 991.008545 Z M 1273.888306 988.894104 C 1271.950806 987.196289 1271.773804 984.191101 1273.502808 982.253418 C 1275.247681 980.315979 1278.205933 980.138916 1280.174683 981.867981 C 1282.112183 983.612854 1282.237183 986.571106 1280.560181 988.508728 C 1279.617432 989.597229 1278.304932 990.107666 1277.023804 990.107666 C 1275.903931 990.112854 1274.784058 989.696228 1273.888306 988.894104 Z M 469.608276 985.644104 C 468.327026 983.388916 469.144745 980.508606 471.399994 979.243103 C 473.702148 977.961853 476.56665 978.826416 477.801056 981.081604 C 479.066681 983.336731 478.264618 986.201355 476.009308 987.482666 C 475.259308 987.868103 474.50415 988.045166 473.707184 988.045166 C 472.056152 988.045166 470.457184 987.196228 469.608276 985.644104 Z M 1125.621582 981.597168 C 1123.366333 980.315918 1122.564331 977.404541 1123.876831 975.196106 C 1125.189331 972.940918 1128.069458 972.138733 1130.277832 973.451355 C 1132.533081 974.763855 1133.335205 977.643982 1132.022705 979.89917 C 1131.173706 981.404358 1129.574829 982.253357 1127.928955 982.253357 C 1127.111206 982.253357 1126.309204 982.029358 1125.621582 981.597107 Z M 486.034943 976.477478 C 484.753662 974.222229 485.555756 971.295166 487.82666 970.076416 C 490.128784 968.810791 492.946411 969.612854 494.227753 971.868103 C 495.509064 974.123352 494.706909 976.987854 492.436005 978.269226 C 491.73288 978.685852 490.930786 978.878601 490.133881 978.878601 C 488.467194 978.878601 486.868286 978.029602 486.034943 976.477478 Z M 1286.448242 974.878479 C 1284.479492 973.133728 1284.33374 970.175476 1286.062866 968.237854 C 1287.807617 966.300354 1290.765991 966.123291 1292.703491 967.852478 C 1294.640991 969.597229 1294.817993 972.555481 1293.088989 974.493103 C 1292.14624 975.534729 1290.880737 976.092041 1289.552612 976.092041 C 1288.463989 976.092041 1287.344238 975.680603 1286.448364 974.878479 Z M 1109.274902 972.191101 C 1107.019653 970.878601 1106.264526 967.998352 1107.577026 965.743164 C 1108.842651 963.534912 1111.7229 962.732727 1113.978149 964.045349 C 1116.233276 965.326599 1116.988525 968.237976 1115.7229 970.44635 C 1114.827026 971.998535 1113.228149 972.800537 1111.629272 972.800537 C 1110.827148 972.800537 1110.025024 972.623474 1109.275024 972.191162 Z M 502.448273 967.263977 C 501.182648 965.008789 501.984711 962.144287 504.23999 960.862976 C 506.542114 959.597351 509.406647 960.399353 510.687866 962.701416 C 511.922241 964.956604 511.120148 967.836914 508.849335 969.102539 C 508.14621 969.487976 507.344116 969.711914 506.547211 969.711914 C 504.896118 969.696289 503.297211 968.816101 502.448273 967.263977 Z M 1093.008301 962.784729 C 1090.753052 961.472229 1089.997925 958.592102 1091.263428 956.336914 C 1092.57605 954.081726 1095.456177 953.326477 1097.711304 954.639099 C 1099.966553 955.920349 1100.721802 958.784912 1099.40918 961.0401 C 1098.560181 962.545349 1096.961304 963.394287 1095.362305 963.394287 C 1094.560181 963.389099 1093.763306 963.211975 1093.008179 962.784912 Z M 1298.954956 960.862976 C 1297.017456 959.118103 1296.892456 956.159851 1298.616333 954.222229 C 1300.314331 952.253418 1303.272583 952.107727 1305.25708 953.836853 C 1307.194458 955.581604 1307.31958 958.539856 1305.642456 960.477539 C 1304.699829 961.519226 1303.387329 962.029602 1302.106079 962.029602 C 1300.970581 962.029602 1299.85083 961.659851 1298.954956 960.862976 Z M 518.861633 958.076477 C 517.596008 955.821289 518.398071 952.956787 520.65332 951.675476 C 522.955505 950.409851 525.835632 951.211914 527.054382 953.467224 C 528.320007 955.769287 527.517944 958.6026 525.262634 959.868225 C 524.559509 960.284912 523.757507 960.4776 522.96051 960.4776 C 521.309448 960.4776 519.71051 959.628662 518.861633 958.076599 Z M 1076.728271 953.373474 C 1074.473022 952.060974 1073.717896 949.180847 1074.983521 946.925598 C 1076.296021 944.67041 1079.176147 943.915222 1081.431274 945.180847 C 1083.686523 946.493347 1084.441772 949.373474 1083.129272 951.628662 C 1082.280273 953.13385 1080.681274 953.982727 1079.035522 953.982727 C 1078.233398 953.982727 1077.431274 953.805725 1076.728149 953.373474 Z M 535.274963 948.909851 C 534.009338 946.607727 534.811401 943.7901 537.06665 942.461975 C 539.368835 941.19635 542.186401 942.045349 543.514526 944.300537 C 544.728088 946.555725 543.931213 949.420227 541.675964 950.701599 C 540.972839 951.118225 540.170837 951.310974 539.37384 951.310974 C 537.722839 951.310974 536.12384 950.4151 535.274963 948.909912 Z M 1311.515015 946.847351 C 1309.577515 945.102539 1309.400391 942.144287 1311.129517 940.159851 C 1312.87439 938.237976 1315.832642 938.097351 1317.770142 939.842102 C 1319.739014 941.540039 1319.884644 944.545227 1318.15564 946.482849 C 1317.212891 947.524475 1315.947388 948.034912 1314.666016 948.034912 C 1313.53064 948.014099 1312.410767 947.644287 1311.515015 946.847473 Z M 1060.394897 943.920227 C 1058.139771 942.638977 1057.384521 939.7276 1058.697144 937.519226 C 1059.978394 935.263977 1062.889771 934.461853 1065.098145 935.774414 C 1067.353394 937.086914 1068.108521 939.967041 1066.842896 942.222229 C 1065.947144 943.727478 1064.395142 944.576416 1062.749146 944.576416 C 1061.947144 944.576416 1061.145142 944.352478 1060.395142 943.920166 Z M 551.688293 939.696289 C 550.407043 937.441101 551.209106 934.576477 553.47998 933.295166 C 555.782166 932.029541 558.646667 932.831604 559.927856 935.086914 C 561.141418 937.389099 560.344543 940.206604 558.089294 941.487976 C 557.38623 941.904602 556.584167 942.097351 555.78717 942.097351 C 554.136169 942.076477 552.531982 941.248352 551.688293 939.696289 Z M 1044.114868 934.508789 C 1041.859741 933.196289 1041.104614 930.316101 1042.417114 928.060974 C 1043.698364 925.8526 1046.562866 925.050537 1048.818115 926.363037 C 1051.073364 927.644287 1051.828491 930.555725 1050.562866 932.76416 C 1049.667114 934.316223 1048.068115 935.165222 1046.469238 935.165222 C 1045.661987 935.165222 1044.865112 934.941223 1044.115112 934.508972 Z M 1324.061646 932.763977 C 1322.092773 931.066101 1321.947144 928.107727 1323.676147 926.123291 C 1325.374023 924.185852 1328.379272 924.008789 1330.316772 925.737854 C 1332.254272 927.482666 1332.431396 930.487854 1330.702271 932.409729 C 1329.759521 933.451416 1328.494019 933.961914 1327.165894 933.961914 C 1326.030396 933.998352 1324.957642 933.612976 1324.061768 932.763977 Z M 568.088257 930.508789 C 566.807007 928.206604 567.60907 925.389099 569.880005 924.107727 C 572.182129 922.826477 574.999695 923.628601 576.281067 925.899414 C 577.593567 928.154602 576.760254 931.019226 574.489319 932.300537 C 573.786194 932.732849 572.984131 932.909912 572.187195 932.909912 C 570.536133 932.909912 568.937195 932.014099 568.088257 930.508789 Z M 1027.834961 925.102539 C 1025.579712 923.790039 1024.824585 920.909851 1026.09021 918.654602 C 1027.40271 916.399414 1030.282837 915.644287 1032.537964 916.956787 C 1034.793213 918.238037 1035.548462 921.1026 1034.23584 923.357849 C 1033.386841 924.863037 1031.787964 925.711975 1030.188965 925.711975 C 1029.386841 925.711975 1028.589966 925.534912 1027.834839 925.1026 Z M 584.501587 921.295166 C 583.235962 919.039978 584.038025 916.175476 586.293335 914.894104 C 588.595459 913.612854 591.475586 914.414978 592.694397 916.732666 C 593.975647 918.987854 593.157959 921.852356 590.902649 923.133728 C 590.199524 923.519104 589.397461 923.696228 588.600525 923.696228 C 586.949463 923.696228 585.350525 922.847229 584.501587 921.295166 Z M 1336.568237 918.748291 C 1334.630737 917.003418 1334.453735 914.045166 1336.182861 912.107605 C 1337.927612 910.18573 1340.885864 909.993103 1342.854736 911.737793 C 1344.792114 913.482605 1344.917236 916.440857 1343.193237 918.362854 C 1342.297485 919.404541 1340.984985 919.961853 1339.703735 919.961853 C 1338.583862 919.982666 1337.463989 919.550354 1336.568237 918.748291 Z M 1011.554932 915.696106 C 1009.299744 914.383606 1008.49762 911.503418 1009.81012 909.248291 C 1011.12262 906.993103 1014.002747 906.237854 1016.211182 907.503418 C 1018.46637 908.815979 1019.268555 911.696106 1017.955994 913.951355 C 1017.106995 915.456543 1015.508118 916.30542 1013.862305 916.30542 C 1013.106995 916.300232 1012.258118 916.128357 1011.554932 915.696045 Z M 600.914917 912.128418 C 599.649292 909.87323 600.451355 907.008606 602.706665 905.727295 C 605.008789 904.446045 607.826416 905.248108 609.107727 907.519043 C 610.373352 909.774231 609.571289 912.638733 607.315979 913.920105 C 606.612854 914.336731 605.810791 914.52948 605.013855 914.52948 C 603.362793 914.524231 601.763855 913.680481 600.914917 912.128418 Z M 995.221619 906.237732 C 992.96637 904.972107 992.211182 902.045105 993.523743 899.83667 C 994.804993 897.581482 997.71637 896.826233 999.924805 898.091858 C 1002.179993 899.404358 1002.935242 902.284485 1001.669617 904.539734 C 1000.773743 906.044922 999.221741 906.89386 997.575867 906.89386 C 996.773743 906.89386 995.987305 906.669922 995.221741 906.23761 Z M 1349.128296 904.732483 C 1347.190796 902.987732 1347.013794 900.02948 1348.742798 898.091858 C 1350.487671 896.154358 1353.445923 895.977295 1355.383545 897.706482 C 1357.320923 899.451233 1357.498047 902.409485 1355.768921 904.347107 C 1354.826294 905.388733 1353.560669 905.946045 1352.232544 905.946045 C 1351.143921 905.966858 1350.024292 905.534607 1349.128418 904.732483 Z M 617.341614 902.893982 C 616.060364 900.638733 616.862427 897.774231 619.180115 896.49292 C 621.435364 895.21167 624.299866 896.013733 625.581238 898.331482 C 626.846863 900.58667 625.997864 903.451172 623.742676 904.732483 C 623.039551 905.11792 622.237488 905.341858 621.440552 905.341858 C 619.78949 905.341858 618.190552 904.446045 617.341614 902.894043 Z M 978.954895 896.831482 C 976.699707 895.518982 975.944519 892.638733 977.25708 890.43042 C 978.53833 888.175232 981.402893 887.373047 983.658142 888.685547 C 985.91333 889.998108 986.668518 892.878235 985.356018 895.133484 C 984.50708 896.638672 982.908142 897.487549 981.309082 897.487549 C 980.507019 897.487549 979.710144 897.263611 978.954895 896.831299 Z M 633.76825 893.727295 C 632.487 891.472107 633.289124 888.591858 635.559998 887.326233 C 637.862122 886.044983 640.726685 886.862732 641.96106 889.117981 C 643.24231 891.420105 642.440247 894.237732 640.169373 895.519043 C 639.466248 895.93573 638.664124 896.128418 637.867188 896.128418 C 636.2005 896.128418 634.601624 895.27948 633.76825 893.727356 Z M 1361.688232 890.71698 C 1359.719482 888.972107 1359.57373 886.013855 1361.302856 884.076233 C 1363.000732 882.107422 1365.959106 881.961731 1367.943481 883.690857 C 1369.880981 885.435608 1370.005981 888.39386 1368.328979 890.331543 C 1367.38623 891.37323 1366.07373 891.883606 1364.792603 891.883606 C 1363.651978 891.883606 1362.532104 891.519043 1361.688354 890.71698 Z M 962.674988 887.419983 C 960.419739 886.107483 959.664551 883.227295 960.930115 880.972107 C 962.242676 878.71698 965.122803 877.961731 967.377991 879.274231 C 969.63324 880.539856 970.388428 883.420105 969.075867 885.675293 C 968.226868 887.180481 966.627991 888.02948 965.028992 888.02948 C 964.226868 888.02948 963.377869 887.852356 962.674805 887.420105 Z M 650.168274 884.560608 C 648.902649 882.258545 649.704712 879.378418 651.960022 878.159607 C 654.262146 876.847107 657.095459 877.696045 658.407898 879.951355 C 659.689148 882.206543 658.824524 885.071045 656.569336 886.352356 C 655.866211 886.769043 655.064148 886.961731 654.267212 886.961731 C 652.631714 886.956543 651.032776 886.06073 650.168274 884.56073 Z M 946.341614 878.013733 C 944.133301 876.701233 943.331238 873.821045 944.643738 871.565857 C 945.909363 869.310608 948.836426 868.55542 951.044861 869.821045 C 953.299988 871.133545 954.102112 874.013733 952.789612 876.26886 C 951.893799 877.774109 950.341736 878.623047 948.695862 878.623047 C 947.909424 878.623047 947.107361 878.445984 946.341736 878.013672 Z M 1374.194946 876.701233 C 1372.257446 874.95636 1372.080444 871.998108 1373.80957 870.060547 C 1375.554321 868.091736 1378.512573 867.946045 1380.450195 869.67511 C 1382.418945 871.372986 1382.564819 874.33136 1380.835571 876.315857 C 1379.892944 877.357483 1378.627319 877.86792 1377.346069 877.86792 C 1376.210571 877.86792 1375.09082 877.503357 1374.194946 876.701233 Z M 666.59491 875.341858 C 665.329285 873.08667 666.131409 870.222168 668.433472 868.940857 C 670.68866 867.675232 673.568909 868.477295 674.834534 870.732605 C 676.115784 873.034668 675.25116 875.852295 672.996033 877.18042 C 672.292908 877.565857 671.490784 877.74292 670.693848 877.74292 C 669.042786 877.727295 667.423035 876.893982 666.59491 875.341858 Z M 930.061584 868.56073 C 927.806396 867.295105 927.051208 864.414795 928.36377 862.159607 C 929.629395 859.904358 932.509583 859.149231 934.764832 860.414795 C 937.02002 861.727295 937.775208 864.607483 936.509583 866.862732 C 935.61377 868.36792 934.061768 869.216797 932.415833 869.216797 C 931.61377 869.211609 930.816895 869.039734 930.061768 868.560547 Z M 683.008301 866.159607 C 681.72699 863.857483 682.529114 861.039856 684.799988 859.758545 C 687.102112 858.49292 689.966614 859.294983 691.201111 861.550293 C 692.513611 863.805481 691.664612 866.68573 689.409363 867.951355 C 688.706238 868.367981 687.904114 868.56073 687.107178 868.56073 C 685.456116 868.56073 683.85199 867.711731 683.008301 866.159668 Z M 1386.70166 862.638855 C 1384.76416 860.940918 1384.639038 857.982605 1386.363159 855.998108 C 1388.060913 854.06073 1391.06604 853.883606 1393.003784 855.612732 C 1394.941284 857.357483 1395.066284 860.315857 1393.38916 862.284607 C 1392.446411 863.326233 1391.180786 863.836731 1389.852661 863.836731 C 1388.717285 863.852356 1387.644531 863.487793 1386.70166 862.638855 Z M 913.794922 859.149231 C 911.539734 857.83667 910.784485 854.956543 912.05011 852.748108 C 913.36261 850.49292 916.242859 849.690857 918.497986 851.003357 C 920.753174 852.315857 921.508362 855.196045 920.195862 857.451233 C 919.346924 858.95636 917.747986 859.805359 916.148926 859.805359 C 915.346863 859.805359 914.549988 859.565735 913.794861 859.149109 Z M 699.421631 856.940918 C 698.140381 854.68573 698.942444 851.821228 701.260193 850.539856 C 703.51532 849.274231 706.379883 850.076355 707.661194 852.378418 C 708.926819 854.633606 708.077881 857.498108 705.822693 858.77948 C 705.119568 859.164856 704.317444 859.388855 703.520508 859.388855 C 701.869446 859.388855 700.322693 858.492981 699.421631 856.940979 Z M 897.514954 849.743103 C 895.259766 848.430603 894.457581 845.550354 895.770081 843.295227 C 897.082581 841.086914 899.96283 840.284851 902.218018 841.597351 C 904.473206 842.862976 905.228455 845.790039 903.915833 847.998474 C 903.066895 849.550537 901.468018 850.352539 899.868896 850.352539 C 899.066833 850.352539 898.217834 850.159851 897.514832 849.743164 Z M 715.834961 847.774231 C 714.569336 845.519043 715.371399 842.654541 717.626648 841.37323 C 719.928772 840.107605 722.808899 840.909668 724.027771 843.164978 C 725.309021 845.467041 724.506897 848.331604 722.236023 849.565979 C 721.532898 849.982666 720.730774 850.175354 719.933838 850.175354 C 718.282776 850.159729 716.683838 849.326416 715.834961 847.774353 Z M 1399.261597 848.607605 C 1397.324097 846.862793 1397.147095 843.904541 1398.876099 841.982605 C 1400.620972 840.045105 1403.579224 839.867981 1405.516968 841.597168 C 1407.485718 843.34198 1407.631348 846.300232 1405.902344 848.237793 C 1405.006348 849.27948 1403.69397 849.836731 1402.412598 849.836731 C 1401.277222 849.836731 1400.157349 849.420105 1399.261597 848.607605 Z M 732.248291 838.592041 C 730.982666 836.289856 731.784729 833.425354 734.040039 832.144104 C 736.342102 830.878479 739.222229 831.727478 740.487854 833.982666 C 741.769104 836.237854 740.904541 839.102356 738.649353 840.383728 C 737.946228 840.769104 737.144104 840.993103 736.347168 840.993103 C 734.696106 840.987854 733.097168 840.092041 732.248291 838.592041 Z M 881.194885 840.336853 C 878.939697 839.024353 878.18457 836.144104 879.49707 833.888916 C 880.80957 831.633728 883.689697 830.878601 885.898132 832.191101 C 888.15332 833.456726 888.908508 836.336914 887.642883 838.592102 C 886.74707 840.097351 885.195068 840.946289 883.549255 840.946289 C 882.747131 840.941101 881.950256 840.748352 881.195068 840.336914 Z M 1411.821655 834.592041 C 1409.852905 832.847229 1409.707031 829.888916 1411.436157 827.951355 C 1413.18103 826.013916 1416.139282 825.836853 1418.076782 827.565918 C 1420.014282 829.31073 1420.191406 832.268982 1418.46228 834.206604 C 1417.519531 835.248291 1416.254028 835.758728 1414.925903 835.758728 C 1413.83728 835.774353 1412.717651 835.388916 1411.821777 834.592041 Z M 748.674988 829.37323 C 747.393738 827.117981 748.19574 824.253479 750.466614 822.972168 C 752.768799 821.690918 755.633301 822.492981 756.914551 824.763916 C 758.128113 827.065979 757.331238 829.883606 755.075989 831.164978 C 754.372864 831.597229 753.570801 831.774353 752.820801 831.774353 C 751.122986 831.774353 749.523865 830.925354 748.674988 829.373291 Z M 864.914978 830.878418 C 862.659729 829.597168 861.904541 826.732605 863.217041 824.477356 C 864.498291 822.222168 867.362976 821.46698 869.618164 822.732605 C 871.873352 824.045105 872.628479 826.925232 871.362976 829.18042 C 870.467102 830.685608 868.915039 831.534607 867.269226 831.534607 C 866.467102 831.534607 865.670227 831.341858 864.915039 830.878235 Z M 765.092285 820.206543 C 763.811035 817.904358 764.613098 815.039856 766.884033 813.805481 C 769.186096 812.524231 772.05072 813.326355 773.285095 815.597229 C 774.597595 817.852356 773.764221 820.71698 771.493347 821.998291 C 770.790222 822.414978 769.988098 822.607666 769.191162 822.607666 C 767.5401 822.607666 765.941162 821.711853 765.092285 820.206604 Z M 848.644287 821.472168 C 846.389099 820.190918 845.63385 817.279541 846.899475 815.071106 C 848.211975 812.815918 851.092102 812.013733 853.347351 813.326355 C 855.602539 814.638855 856.357727 817.518982 855.045166 819.77417 C 854.196228 821.279358 852.597351 822.128357 850.998291 822.128357 C 850.196228 822.128357 849.394104 821.883545 848.644104 821.472107 Z M 1424.337524 820.576355 C 1422.400024 818.831543 1422.275024 815.873291 1423.952148 813.951233 C 1425.696899 811.966858 1428.655273 811.836731 1430.624023 813.565857 C 1432.561523 815.263733 1432.686523 818.26886 1431.009399 820.190918 C 1430.066772 821.232605 1428.754272 821.743103 1427.473145 821.743103 C 1426.353394 821.758728 1425.233398 821.373291 1424.337524 820.576416 Z M 781.510925 810.972168 C 780.2453 808.71698 781.047363 805.852478 783.349426 804.571106 C 785.604675 803.289856 788.469238 804.09198 789.750549 806.409668 C 791.031799 808.664856 790.229736 811.529358 787.912048 812.81073 C 787.208923 813.196106 786.406799 813.37323 785.609863 813.37323 C 783.958801 813.37323 782.359863 812.524231 781.510925 810.972168 Z M 832.328308 812.06073 C 830.120056 810.74823 829.317871 807.868103 830.630371 805.612854 C 831.942871 803.404602 834.823059 802.602478 837.031494 803.915039 C 839.333557 805.196289 840.088806 808.107666 838.776306 810.362854 C 837.927307 811.868103 836.328369 812.665039 834.682556 812.665039 C 833.875244 812.670227 833.078369 812.477539 832.328369 812.060852 Z M 1436.901489 806.56073 C 1434.964233 804.815918 1434.787109 801.857666 1436.516113 799.888916 C 1438.261108 797.951416 1441.219238 797.826355 1443.15686 799.550293 C 1445.09436 801.24823 1445.271362 804.206604 1443.542358 806.190979 C 1442.599609 807.232666 1441.333984 807.743164 1440.052734 807.743164 C 1438.917358 807.743164 1437.797485 807.357727 1436.901489 806.560852 Z M 797.928284 801.805603 C 796.662659 799.550354 797.464661 796.623291 799.719971 795.40448 C 802.022156 794.138855 804.902283 794.940918 806.167908 797.196228 C 807.381409 799.451416 806.584534 802.315918 804.329346 803.597229 C 803.626221 804.013916 802.824158 804.206604 802.074158 804.206604 C 800.376282 804.206604 798.777161 803.357666 797.928284 801.805603 Z M 816.05365 802.654541 C 813.798401 801.34198 813.043213 798.461853 814.355713 796.206604 C 815.621338 793.951416 818.548401 793.196228 820.756836 794.508789 C 823.011963 795.790039 823.767151 798.654602 822.501648 800.909851 C 821.605774 802.415039 820.053711 803.263977 818.407898 803.263977 C 817.590149 803.263977 816.793274 803.071289 816.053711 802.654602 Z M 1449.413574 792.539978 C 1447.476074 790.795166 1447.351074 787.789978 1449.075073 785.868103 C 1450.772949 783.930664 1453.778198 783.753601 1455.715698 785.482666 C 1457.653198 787.227478 1457.77832 790.185791 1456.101074 792.123352 C 1455.158325 793.211914 1453.892944 793.722351 1452.564819 793.722351 C 1451.450195 793.711914 1450.361694 793.295227 1449.413696 792.540039 Z M 1461.976074 778.477295 C 1460.038696 776.732483 1459.861694 773.774231 1461.590698 771.83667 C 1463.335449 769.89917 1466.293823 769.722107 1468.231445 771.451233 C 1470.200195 773.196045 1470.345825 776.154297 1468.616821 778.091858 C 1467.721069 779.133545 1466.408569 779.690857 1465.127319 779.690857 C 1464.007446 779.696045 1462.87207 779.279358 1461.976074 778.477295 Z M 1474.533569 764.461365 C 1472.596069 762.716492 1472.418945 759.75824 1474.148071 757.820618 C 1475.892944 755.851807 1478.851074 755.706116 1480.788696 757.435242 C 1482.726196 759.179993 1482.90332 762.138245 1481.174194 764.075928 C 1480.231445 765.117615 1478.96582 765.674805 1477.637695 765.674805 C 1476.569946 765.679993 1475.429565 765.263367 1474.533569 764.461243 Z M 1487.04895 750.445313 C 1485.111694 748.7005 1484.98645 745.742249 1486.663574 743.757813 C 1488.408569 741.835938 1491.366699 741.695313 1493.335449 743.440125 C 1495.272949 745.138 1495.398071 748.14325 1493.720825 750.080811 C 1492.778198 751.122498 1491.465698 751.632874 1490.18457 751.632874 C 1489.080444 751.612122 1487.944946 751.247559 1487.04895 750.445496 Z M 1499.606445 736.414612 C 1497.668945 734.669861 1497.491821 731.711609 1499.221069 729.742737 C 1500.96582 727.805359 1503.92395 727.680237 1505.861694 729.404236 C 1507.799194 731.102112 1507.976196 734.060486 1506.24707 736.044922 C 1505.304321 737.086609 1504.038696 737.596985 1502.757446 737.596985 C 1501.637695 737.596985 1500.502319 737.211609 1499.606445 736.414734 Z M 1512.168945 722.35199 C 1510.200195 720.654114 1510.054321 717.648926 1511.783569 715.726868 C 1513.481445 713.78949 1516.486694 713.664368 1518.424194 715.341492 C 1520.361694 717.086243 1520.486694 720.044617 1518.80957 721.966553 C 1517.866821 723.055115 1516.60144 723.565491 1515.273315 723.565491 C 1514.153442 723.581116 1513.064941 723.148865 1512.169067 722.35199 Z"/>
    <path id="path5" fill="#000000" stroke="#000000" stroke-width="8" d="M 1092.626587 1452.133301 C 1090.178833 1451.331177 1088.866333 1448.659302 1089.668335 1446.211426 C 1090.470337 1443.716675 1093.157837 1442.404175 1095.605713 1443.253052 C 1098.100464 1444.055176 1099.413086 1446.742676 1098.616089 1449.174927 C 1097.959839 1451.143677 1096.121338 1452.424927 1094.152466 1452.424927 C 1093.600464 1452.4198 1093.136841 1452.320801 1092.626587 1452.133301 Z M 1098.595459 1434.305298 C 1096.100708 1433.456421 1094.788208 1430.831421 1095.585083 1428.336548 C 1096.43396 1425.888672 1099.059082 1424.576172 1101.553833 1425.378052 C 1104.001709 1426.227051 1105.314331 1428.867676 1104.512329 1431.347046 C 1103.856079 1433.284302 1102.017456 1434.5448 1100.048706 1434.5448 C 1099.585083 1434.5448 1099.059082 1434.45105 1098.595581 1434.305176 Z M 1104.512085 1416.436035 C 1102.017334 1415.633911 1100.704834 1412.946411 1101.553711 1410.51416 C 1102.355835 1408.019409 1105.043335 1406.706909 1107.475586 1407.555664 C 1109.970337 1408.357788 1111.282959 1411.04541 1110.43396 1413.477539 C 1109.77771 1415.446411 1107.986206 1416.675415 1106.017334 1416.675415 C 1105.506958 1416.65979 1105.043335 1416.612915 1104.512085 1416.435913 Z M 1110.449585 1398.59729 C 1108.001709 1397.795288 1106.689209 1395.123413 1107.491211 1392.62854 C 1108.34021 1390.180664 1110.980835 1388.868164 1113.475586 1389.670044 C 1115.923462 1390.519043 1117.235962 1393.144165 1116.43396 1395.639038 C 1115.77771 1397.576294 1113.939209 1398.836792 1111.970337 1398.836792 C 1111.475586 1398.836792 1110.959961 1398.737793 1110.449585 1398.597168 Z M 1116.418335 1380.769409 C 1113.923584 1379.92041 1112.611084 1377.23291 1113.408081 1374.800415 C 1114.256958 1372.305664 1116.881958 1370.993164 1119.376831 1371.842163 C 1121.824707 1372.644165 1123.137207 1375.31604 1122.335205 1377.764038 C 1121.678955 1379.732788 1119.840454 1380.961914 1117.871582 1380.961914 C 1117.408081 1380.961914 1116.881958 1380.915039 1116.418579 1380.769165 Z M 1122.355835 1362.900024 C 1119.861084 1362.051025 1118.548462 1359.4104 1119.397461 1356.931274 C 1120.199585 1354.483276 1122.887085 1353.170776 1125.319336 1353.972778 C 1127.814087 1354.821777 1129.126587 1357.446777 1128.329712 1359.894653 C 1127.673462 1361.863403 1125.834961 1363.144653 1123.866089 1363.144653 C 1123.329712 1363.139526 1122.866089 1363.045776 1122.355713 1362.899902 Z M 1128.272583 1345.03064 C 1125.824707 1344.228638 1124.512085 1341.541138 1125.314087 1339.108765 C 1126.163086 1336.614014 1128.803711 1335.301392 1131.298462 1336.150391 C 1133.74646 1336.952515 1135.05896 1339.62439 1134.256958 1342.072266 C 1133.600708 1344.041138 1131.762085 1345.270142 1129.793335 1345.270142 C 1129.314087 1345.254517 1128.788086 1345.202393 1128.272583 1345.030518 Z M 1134.241333 1327.186646 C 1131.74646 1326.337769 1130.43396 1323.697144 1131.230957 1321.202271 C 1132.079956 1318.754395 1134.704956 1317.441895 1137.199707 1318.243896 C 1139.647583 1319.092896 1141.00708 1321.733521 1140.158081 1324.181274 C 1139.501831 1326.150146 1137.66333 1327.431274 1135.694458 1327.431274 C 1135.236206 1327.426147 1134.720581 1327.332397 1134.241455 1327.186523 Z M 1140.178833 1309.317261 C 1137.730957 1308.515259 1136.418335 1305.827759 1137.220337 1303.395386 C 1138.022461 1300.900635 1140.709961 1299.588135 1143.142212 1300.437134 C 1145.637085 1301.239136 1146.949585 1303.926636 1146.15271 1306.374512 C 1145.49646 1308.343384 1143.657837 1309.624512 1141.689087 1309.624512 C 1141.168213 1309.603638 1140.642212 1309.509888 1140.178589 1309.317261 Z M 1146.147583 1291.494629 C 1143.652832 1290.64563 1142.34021 1288.005005 1143.137207 1285.510254 C 1143.986206 1283.062378 1146.626831 1281.749878 1149.121582 1282.55188 C 1151.569458 1283.353882 1152.928955 1286.041504 1152.079956 1288.536255 C 1151.423706 1290.473755 1149.585205 1291.734131 1147.616333 1291.734131 C 1147.137207 1291.734131 1146.626831 1291.635132 1146.147583 1291.494507 Z M 1152.079834 1273.619995 C 1149.631958 1272.817993 1148.272583 1270.130371 1149.12146 1267.682495 C 1149.923584 1265.187744 1152.543335 1263.875122 1155.043335 1264.724121 C 1157.538208 1265.526245 1158.850708 1268.213745 1158.001709 1270.645996 C 1157.345459 1272.630371 1155.506958 1273.843872 1153.585083 1273.843872 C 1153.05896 1273.843872 1152.543335 1273.796997 1152.079834 1273.619873 Z M 1158.001709 1255.781372 C 1155.553833 1254.932373 1154.241333 1252.291748 1155.043335 1249.796997 C 1155.892334 1247.348999 1158.532959 1245.989624 1160.96521 1246.838501 C 1163.459961 1247.6875 1164.772583 1250.328125 1163.975586 1252.760376 C 1163.319336 1254.729126 1161.480835 1256.010376 1159.511963 1256.010376 C 1159.043213 1256.020874 1158.527588 1255.927124 1158.001587 1255.78125 Z M 1163.986206 1237.906616 C 1161.491333 1237.104614 1160.178833 1234.432739 1160.975708 1231.984741 C 1161.824707 1229.48999 1164.465332 1228.17749 1166.960083 1228.974365 C 1169.408081 1229.823364 1170.767456 1232.510864 1169.918579 1234.943237 C 1169.262329 1236.911987 1167.423706 1238.140991 1165.454956 1238.140991 C 1164.960083 1238.151489 1164.449707 1238.099365 1163.986206 1237.906616 Z M 1169.908081 1220.083984 C 1167.460083 1219.234985 1166.100708 1216.609985 1166.949585 1214.115234 C 1167.751709 1211.667358 1170.423584 1210.307861 1172.87146 1211.15686 C 1175.366333 1211.958862 1176.678833 1214.646362 1175.829834 1217.12561 C 1175.220459 1219.06311 1173.335083 1220.323486 1171.366333 1220.323486 C 1170.897583 1220.307861 1170.37146 1220.214111 1169.907837 1220.083862 Z M 1175.824707 1202.198608 C 1173.376831 1201.396606 1172.064331 1198.724731 1172.866333 1196.276733 C 1173.71521 1193.781982 1176.355835 1192.469482 1178.835083 1193.266479 C 1181.282959 1194.115356 1182.595459 1196.802856 1181.793457 1199.235229 C 1181.137207 1201.203979 1179.298706 1202.433105 1177.329834 1202.433105 C 1176.866333 1202.438354 1176.355835 1202.391479 1175.824707 1202.19873 Z M 1181.809082 1184.375977 C 1179.314331 1183.526978 1178.001709 1180.901978 1178.798706 1178.407227 C 1179.647583 1175.959351 1182.335083 1174.599854 1184.783081 1175.448853 C 1187.230957 1176.250854 1188.590454 1178.922729 1187.741455 1181.370728 C 1187.085205 1183.339478 1185.246704 1184.620728 1183.277832 1184.620728 C 1182.803833 1184.615479 1182.272583 1184.516479 1181.809082 1184.375854 Z M 1187.730957 1166.501343 C 1185.283081 1165.699219 1183.923584 1163.011719 1184.772583 1160.579468 C 1185.574585 1158.084595 1188.24646 1156.772095 1190.694458 1157.569092 C 1193.189209 1158.418091 1194.501709 1161.043091 1193.704834 1163.537842 C 1193.048584 1165.506714 1191.209961 1166.735718 1189.241211 1166.735718 C 1188.720337 1166.740967 1188.256836 1166.694092 1187.730835 1166.501343 Z M 1193.663208 1148.678589 C 1191.215332 1147.829712 1189.902832 1145.189087 1190.704834 1142.709839 C 1191.553833 1140.261963 1194.194458 1138.902466 1196.673584 1139.751465 C 1199.12146 1140.553589 1200.43396 1143.225464 1199.631958 1145.720337 C 1198.975708 1147.657715 1197.137207 1148.918091 1195.168335 1148.918091 C 1194.657959 1148.902466 1194.178833 1148.808716 1193.663208 1148.678589 Z M 1199.631958 1130.787964 C 1197.137207 1129.985962 1195.824707 1127.298462 1196.621582 1124.866089 C 1197.470581 1122.371338 1200.158081 1121.058838 1202.606079 1121.855713 C 1205.10083 1122.704712 1206.41333 1125.392212 1205.564331 1127.84021 C 1204.908081 1129.80896 1203.06958 1131.037964 1201.10083 1131.037964 C 1200.626831 1131.032837 1200.116455 1130.980713 1199.631958 1130.787964 Z M 1205.569458 1112.965332 C 1203.121582 1112.116333 1201.762085 1109.475708 1202.611084 1106.99646 C 1203.413208 1104.548706 1206.085083 1103.189209 1208.532959 1104.038208 C 1211.02771 1104.84021 1212.34021 1107.52771 1211.543335 1109.975586 C 1210.887085 1111.944458 1209.048462 1113.225586 1207.079712 1113.225586 C 1206.543335 1113.204712 1206.079712 1113.110962 1205.569336 1112.96521 Z M 1211.538208 1095.096069 C 1209.043457 1094.24707 1207.730957 1091.606323 1208.527832 1089.174194 C 1209.376831 1086.679443 1212.017456 1085.366699 1214.496704 1086.163818 C 1216.944458 1087.012695 1218.304077 1089.65332 1217.455078 1092.148071 C 1216.798828 1094.116943 1214.960327 1095.346069 1212.991455 1095.346069 C 1212.527954 1095.335571 1212.017456 1095.236694 1211.538452 1095.096069 Z M 1217.460083 1077.221436 C 1215.012329 1076.419189 1213.652832 1073.783936 1214.501709 1071.283936 C 1215.303833 1068.835938 1217.991333 1067.476563 1220.439209 1068.325439 C 1222.93396 1069.127441 1224.24646 1071.815186 1223.397583 1074.247314 C 1222.741333 1076.231689 1220.902832 1077.497314 1218.980957 1077.497314 C 1218.449707 1077.497314 1217.986206 1077.398438 1217.460083 1077.221191 Z M 1223.392456 1059.382568 C 1220.944458 1058.580566 1219.631958 1055.893066 1220.43396 1053.445313 C 1221.282959 1050.950439 1223.908081 1049.637939 1226.355835 1050.434814 C 1228.850708 1051.283691 1230.163208 1053.924316 1229.366333 1056.419189 C 1228.710083 1058.387939 1226.87146 1059.617188 1224.90271 1059.617188 C 1224.387085 1059.622314 1223.907837 1059.575439 1223.392212 1059.382813 Z M 1229.361206 1041.560059 C 1226.866333 1040.710938 1225.553833 1038.070313 1226.35083 1035.575684 C 1227.199829 1033.127686 1229.840454 1031.768311 1232.31958 1032.617188 C 1234.814331 1033.419189 1236.126953 1036.106689 1235.277954 1038.539063 C 1234.621704 1040.507813 1232.783203 1041.789063 1230.814331 1041.789063 C 1230.356079 1041.799561 1229.840454 1041.705811 1229.361328 1041.559814 Z"/>
    <path id="path6" fill="#000000" stroke="#000000" stroke-width="20" d="M 803.906677 1466.400024 L 518.213318 1466.400024 L 517.062317 1465.660522 L 376.608978 1375.791016 L 799.915588 1252.703003 L 799.915588 795.316406 L 382.302277 547.183105 L 505.552979 139.916382 L 1104.366333 139.916382 L 1104.366333 149.322632 L 512.539612 149.322632 L 393.435638 542.842651 L 809.342285 789.949402 L 809.342285 1259.776001 L 805.95166 1260.75 L 399.138306 1379.041992 L 520.960999 1456.989868 L 803.907654 1456.989868 Z"/>
    <path id="path7" fill="#000000" stroke="#000000" stroke-width="20" d="M 92.568001 895.133301 L 100.630531 890.289612 L 391.910522 1374.956177 L 383.847992 1379.799927 Z"/>
    <path id="path8" fill="#000000" stroke="#000000" stroke-width="20" d="M 91.90667 708.333313 L 101.312935 708.333313 L 101.312935 892.719971 L 91.90667 892.719971 Z"/>
    <path id="path9" fill="#000000" stroke="#000000" stroke-width="20" d="M 92.963997 889.65332 L 384.350677 542.026611 L 391.558929 548.068237 L 100.172272 895.694885 Z"/>
    <path id="path10" fill="#000000" stroke="#000000" stroke-width="20" d="M 385.399994 214.359985 L 506.588013 140.635986 L 511.478668 148.672363 L 390.290649 222.396362 Z"/>
    <path id="path11" fill="#000000" stroke="#000000" stroke-width="20" d="M 92.478668 705.906677 L 383.918671 216.053345 L 392.001984 220.865845 L 100.562004 710.719238 Z"/>
    <path id="path12" fill="#000000" stroke="#000000" stroke-width="20" d="M 1093.693359 1466.400024 L 790.213318 1466.400024 L 790.213318 1456.988647 L 1090.920044 1456.988647 L 1212.742676 1379.040527 L 802.555969 1259.775269 L 802.555969 789.948547 L 804.858154 788.589172 L 1218.444824 542.842529 L 1098.35144 145.97583 L 1107.356689 143.25708 L 1229.580688 547.177124 L 811.967346 795.310364 L 811.967346 1252.697144 L 1235.274048 1375.785034 Z"/>
    <path id="path13" fill="#000000" stroke="#000000" stroke-width="20" d="M 1220.06665 1375.066772 L 1511.053345 890.23999 L 1519.121094 895.08374 L 1228.134399 1379.910278 Z"/>
    <path id="path14" fill="#000000" stroke="#000000" stroke-width="20" d="M 1510.533325 708.333313 L 1519.939575 708.333313 L 1519.939575 892.719971 L 1510.533325 892.719971 Z"/>
    <path id="path15" fill="#000000" stroke="#000000" stroke-width="20" d="M 1220.47998 547.986694 L 1227.693604 541.945068 L 1518.986938 889.665039 L 1511.773315 895.706726 Z"/>
</svg>
